<svg xmlns="http://www.w3.org/2000/svg" xmlns:xlink="http://www.w3.org/1999/xlink" width="612" height="398"><style><![CDATA[.B{fill:#fff}.C{fill:#fefefe}.D{fill:#c75627}.E{fill:#221e1f}.F{fill:#180f0e}.G{fill:#e7693c}.H{fill:#9c2d20}.I{stroke:#221e1f}.J{fill:#fbcaae}.K{fill:#efeeee}.L{fill:#761a14}.M{stroke:#180f0e}.N{fill:#f8a058}.O{fill:#3e120e}.P{stroke-width:2}.Q{fill:#e51e25}.R{fill:#e89923}.S{fill:#34b566}.T{stroke-width:.667}.U{stroke-width:1.334}.V{stroke-width:12.523}.W{stroke-width:2.505}]]></style><defs><path d="M.13 7.498c0 4.073 93.892 7.375 209.715 7.375S419.56 11.57 419.56 7.498 325.667.123 209.845.123.13 3.425.13 7.498z" id="A"/><path d="M1.907.436a1.8 1.8 0 0 0-1.79 1.808v22.608a1.8 1.8 0 0 0 1.79 1.808h76.076a1.8 1.8 0 0 0 1.79-1.808V2.244a1.8 1.8 0 0 0-1.79-1.808H1.907z" id="B"/><path d="M2.208.256C1.206.256.394 1.18.394 2.32v90.286c0 1.14.812 2.064 1.814 2.064H80.68c1.002 0 1.814-.924 1.814-2.064V2.32c0-1.14-.812-2.063-1.814-2.063H2.208z" id="C"/><path d="M9.632-.003C4.48-.003.305 4.13.305 9.226v25.377c0 1.02.835 1.846 1.865 1.846h347.452c1.03 0 1.866-.827 1.866-1.846V9.226c0-5.096-4.176-9.228-9.327-9.228H9.632z" id="D"/><path d="M.262 6.104c0 3.147 2.556 5.697 5.7 5.697s5.71-2.55 5.71-5.697S9.124.407 5.972.407s-5.7 2.55-5.7 5.697z" id="E"/><path d="M.075 6.104c0 3.147 2.555 5.697 5.71 5.697s5.71-2.55 5.71-5.697S8.937.407 5.785.407.075 2.958.075 6.104z" id="F"/><path d="M.433 6.104C.433 9.25 3 11.8 6.143 11.8s5.71-2.55 5.71-5.697S9.296.407 6.143.407s-5.7 2.55-5.7 5.697z" id="G"/><path id="H" d="M.13.038h228.443v9.84H.13z"/><path id="I" d="M.083.534H25.98v15.144H.083z"/><path d="M1.023.455c-.326 0-.59.25-.59.56v7c0 .308.265.56.59.56h25.115c.326 0 .59-.25.59-.56v-7c0-.3-.264-.56-.59-.56H1.023z" id="J"/><path d="M1.03.462c-.33 0-.6.276-.6.617v26.987c0 .34.268.617.6.617h25.916c.332 0 .6-.276.6-.617V1.08c0-.34-.267-.617-.6-.617H1.03z" id="K"/><path d="M6.46 1.163L5.402.72C4.626.396 3.73.604 3.175 1.236L.918 3.81a1.95 1.95 0 0 0-.327.519c-.428.995.032 2.15 1.026 2.577l6.623 2.85a1.96 1.96 0 0 0 2.162-.416l2.532-2.54c.18-.18.323-.395.42-.63.417-1-.054-2.15-1.053-2.566l-1.148-.48c.506-1.068.068-2.19-1.118-2.65A3.11 3.11 0 0 0 8.908.271c-.874 0-1.782.325-2.447.892zM8.017 3.13c-.565-.22-.724-.798-.354-1.294s1.13-.72 1.695-.5.725.798.354 1.293c-.274.366-.76.584-1.223.584-.164 0-.324-.027-.473-.084z" id="L"/><path d="M.036 1.046c-.1.652.426 1.245 1.15 1.325L13.31 3.7l.325-2.362L1.512.008l-.16-.008C.69-.001.12.442.036 1.046" id="M"/><path d="M.036 1.046c-.1.652.426 1.245 1.15 1.325L13.31 3.7l.325-2.362L1.512.008l-.16-.008C.69-.001.12.442.036 1.046z" id="N"/><path d="M.496.432C.474.625.598.8.77.824l4.33.59c.172.023.33-.114.35-.307S5.35.74 5.178.715L.847.124C.834.122.82.12.808.12.652.12.515.253.496.432" id="O"/><path d="M.496.432C.474.625.598.8.77.824l4.33.59c.172.023.33-.114.35-.307S5.35.74 5.178.715L.847.124C.834.122.82.12.808.12.652.12.515.253.496.432z" id="P"/><path d="M.46.852a.66.66 0 0 0 .571.736l.86.106a.66.66 0 0 0 .733-.576.66.66 0 0 0-.571-.736L1.19.276A.63.63 0 0 0 1.11.271.66.66 0 0 0 .46.852" id="Q"/><path d="M.46.852a.66.66 0 0 0 .571.736l.86.106a.66.66 0 0 0 .733-.576.66.66 0 0 0-.571-.736L1.19.276A.63.63 0 0 0 1.11.271.66.66 0 0 0 .46.852z" id="R"/><path id="S" d="M.226 2.675l2.75-.784L.574.313z"/><path d="M.388 2.8C.346 3.253.33 6.39.343 12.2l11.528 1.382 8.003-.527c-1.42-.398-2.778-1.17-4.072-2.322-1.94-1.726-3.057-3.378-7.254-7.985C7.05 1.102 5.59.55 4.33.55 2.057.55.43 2.344.388 2.8z" id="T"/><path d="M.14 23.156l9.576 27.29C26.263 40.028 36.652 32.018 40.88 26.417c1.007 7.81 10.937 29.126 12.7 32.662s11.083.004 10.918-1.278 3.055-45.66-12.594-55.063c-2.5-1.503-5.394-2.255-8.68-2.255C32.806.484 18.443 8.04.14 23.156z" id="U"/><path id="V" d="M5 2.23L.04 8.912 3.32 7.81l12.193 2.832L13.677.398z"/><path d="M2.022.524C.354 1.343.354 4.71.45 7.816c.064 2.072.51 4.3 1.334 6.687 20.395 0 30.592-.57 30.592-1.712 1.306-5.135.437-5.63-8.54-9.087-3.65-1.404-6.965-1.986-9.25-3.18-.78-.408-2.684 3.642-5.74 3.642-2.8 0-4.794-3.743-6.392-3.742a.96.96 0 0 0-.43.101" id="W"/><path d="M2.022.524C.354 1.343.354 4.71.45 7.816c.064 2.072.51 4.3 1.334 6.687 20.395 0 30.592-.57 30.592-1.712 1.306-5.135.437-5.63-8.54-9.087-3.65-1.404-6.965-1.986-9.25-3.18-.78-.408-2.684 3.642-5.74 3.642-2.8 0-4.794-3.743-6.392-3.742a.96.96 0 0 0-.43.101z" id="X"/><path d="M.35 16.442C-.65 32.856 23.043 40.125 38.42 41.727c-12.098.933-29.18 2.695-31.18 3.423-1.477.537-4.266 11.554-1.587 12.833 4.697 2.24 74.912 6.55 82.267-16.3 6.69-20.785-24.708-24.6-54.874-33.305-4.63-1.335-16.184-6.466-20.963-7.656-1.646-.4-3.05-.627-4.252-.627C2.262.096 1.06 4.758.35 16.442z" id="Y"/><path d="M.5 21.03c2.975 3.82 3.822 3.55 11.363-.202 3.065-1.526 5.348-3.316 7.494-4.088.734-.264-1.123-3.836.596-5.798s5.55-.71 5.896-2.254-1.52-3.507-3.817-5.25C20.5 2.276 18.63 1.267 16.442.41 4.983 13.493-.335 20.366.5 21.03z" id="Z"/><path d="M13.074 1.505C3.948 6.772.126 17.09.126 24.852s1.614 31.527 3.798 35.4c5.655 10.027-4.504 20.638 0 25.89S16.417 95.06 27.4 93.706s16.74-1.21 21.108-13.397c2.912-8.125 1.332-11.758-4.742-10.9-3.38-1.292-4.103-9.884-2.173-25.778 2.895-23.84-4.057-23.9-6.507-29.162C33.047 10.067 25.4.27 17.613.27c-1.52 0-3.047.374-4.54 1.235z" id="a"/><path d="M17.613.27c-1.52 0-3.048.374-4.54 1.235C3.948 6.772.126 17.09.126 24.852s1.614 31.527 3.798 35.4c5.655 10.027-4.504 20.638 0 25.89S16.417 95.06 27.4 93.706s16.74-1.21 21.108-13.397c2.912-8.125 1.332-11.758-4.742-10.9-3.38-1.292-4.103-9.884-2.173-25.778 2.895-23.84-4.057-23.9-6.507-29.162C33.047 10.067 25.4.27 17.614.27z" id="b"/><path d="M17.613.27c-1.52 0-3.048.374-4.54 1.235C3.948 6.772.126 17.09.126 24.852s1.614 31.527 3.798 35.4c5.655 10.027-4.504 20.638 0 25.89S16.417 95.06 27.4 93.706s16.74-1.21 21.108-13.397c2.912-8.125 1.332-11.758-4.742-10.9-3.38-1.292-4.103-9.884-2.173-25.778 2.895-23.84-4.057-23.9-6.507-29.162C33.047 10.068 25.4.27 17.614.27z" id="c"/><path d="M.433 2.95l18.93 25.837c9.707.673 15.044-2.604 16.01-9.832S33.79 5.436 27.734.08L.433 2.95z" id="d"/><path d="M14.96 1.243L7.42 7.396l-5.285 9.54-1.67 9.668c.72 4.334 1.954 7.4 3.698 9.203 2.616 2.702 9.54-.448 8.982-2.703-.37-1.503.912-4.002 3.85-7.498 3.296 2.684 5.428 4.225 6.395 4.622 1.315.54 6.946-3.945 11.628-9.86.48-.61 3.46-2.26 3.917-2.895 1.013-1.412-.66-1.914 0-3.56.97-2.43 1.556-6.653 1.756-12.67l-3.45-.97-22.283.97z" id="e"/><path d="M42.806.577c-18.363 1.817-13.62 15.587-25.87 23.117S-4.793 44.833 2.96 56.01s16.57 12.44 28.867 9.15c6.863-1.836 6.33-13.53 6.982-24.312.05-.812-2.206-.6-2.394-2.694s.76-4.426 2.394-5.065c2.107-.824 4.664.496 7.178 1.816 2.253 1.182 4.473 2.365 6.305 2.005 5.287-1.04 8.705-2.09 10.255-3.14-1.24 6.122-1.41 10.424-.506 12.905-1.644 1.673-3.036 2.98-4.175 3.92C56.227 51.95 79.56 44.66 79.56 33.09s-5.323-12.08-8.35-13C68.312 19.193 61.758.465 45.092.463c-.742 0-1.502.037-2.286.114z" id="f"/><path d="M13.21 2.88c-.573.44-1.502.52-2.79.237l-.897 1.136-1.433 6.382L.514 17.23l5.34 4.23 6.496-6.775c3.597-2.093 5.998-4.22 7.203-6.38 1.04-1.864-.244-4.502-2.083-5.76-.223-.153.843-.74.7-1.302-.103-.38-1.413-.807-1.577-.857a.79.79 0 0 0-.232-.034c-1.023 0-2.25 1.84-3.143 2.53z" id="g"/><path d="M11.797.24C8.03 1.094 2.322 4.695.576 17.376s13.038 41.305 25.88 45.7c8.56 2.93 22.588-4.693 42.083-22.87.598.17.598-1.234 0-4.212s-2.373-4.38-5.324-4.205C39.9 40.78 36.65 44.482 32.473 40.206s-3.804-15.46-5.004-26.93C26.41 3.16 17.96.085 13.396.085c-.612 0-1.154.055-1.6.156z" id="h"/><path d="M1.207 37.244c5.616 8.34 32.897 13.11 81.843 14.3h23.61l-15.015-31.91L48.33 0C11.3 16.5-4.41 28.905 1.207 37.244z" id="i"/><path d="M4.697 20.69c.004 4.778-.615 10.074-1.86 15.89C.973 45.302-2.32 50.27 4.732 60.645c6.584 9.687 13.447 3.984 15.51 11.537s-8.076 13.543.023 25.787 23.33.02 23.353 26.954c.02 23.554 44.58 21.348 62.373.056 28.495-34.102-1.428-49.555-11.232-52.73S90.878 56.88 83.616 48.7s-27.62-17.392-33.05-20.802-7.88-25.265-22.3-27.363c-.83-.12-1.643-.18-2.445-.18-8.51 0-15.55 6.78-21.125 20.336z" id="j"/><path d="M.314 6.332c-1.127 4.178 1.08 8.396 4.93 9.42s7.884-1.532 9.01-5.7-1.08-8.396-4.93-9.42C8.75.468 8.173.395 7.6.396c-3.263 0-6.328 2.38-7.287 5.936z" id="k"/><path d="M35.81 4.67c-.777.033-2.74-.438-5.368-.907C21.482 2.158 4.782.555.972 18.893c-4.928 23.716 31.242 28.395 29.86 26.383-.86-2.24-4.72-4.672-3.58-6.31.928-1.333.78-3.457-.44-6.37l13.722 1.468 1.914 3.88c1.29-4.88 7.25-6.252 8.848.118 1.065 4.246-.204 6.658-3.806 7.237 7.946 5.756 13.83 8.637 17.65 8.642 3.417.005 8.052-8.545 10.178-24.476 1.762-13.207-2.694-23.45-10.25-27.952C63.31.466 60.99.062 58.42.062c-8.582 0-19.972 4.495-22.61 4.606z" id="l"/><path d="M.265 1.007l1.527 10.515c2.128 1.292 4.555 1.938 7.282 1.938s5.017-1.28 6.872-3.84l-1.524-9.62L.265 1.007z" id="m"/><path d="M.128 1.007l1.528 10.515c2.127 1.292 4.554 1.938 7.28 1.938s5.017-1.28 6.873-3.84l-1.525-9.62L.128 1.007z" id="n"/><path d="M23.773 3.8c-4.86 0-6.333-3.415-7.037-2.993-2.055 1.235-5.088 1.953-8.393 3.457-8.13 3.7-8.91 4.21-7.48 8.925.033.69 10.836.708 28.765.053.848-.03 1.564-.68 1.726-1.566.397-2.16.586-3.77.57-4.826-.05-2.9-.05-6.713-1.166-6.713S28.633 3.8 23.773 3.8z" id="o"/><path d="M24.234 3.8C19.307 3.8 17.813.374 17.1.797c-2.084 1.235-5.16 1.953-8.5 3.457C.35 7.953-.442 8.463 1 13.178c.034.69 10.985.708 29.16.053.86-.03 1.585-.68 1.75-1.566.402-2.16.594-3.77.576-4.826-.05-2.9-.05-6.713-1.182-6.713S29.16 3.8 24.234 3.8z" id="p"/><path d="M22.998.317C7.842 38.895.263 66.33.262 82.618s3.68 39.386 11.037 69.3c.726 3.86 12.816 2.262 14.652-.001 2.058-2.54-3.862-25.483-5.424-68.832L42.81 45.75l1.332 34.858 12.955 71.038c1.566 4.37 14.465 4.37 15.575-1.677.74-4.033-5.43-26.485-6.172-67.357 8.654-41.89 12.64-63.708 11.96-65.456-.453-1.166-.453-6.78 0-16.84H22.998z" id="q"/><path d="M.176 42.678l.175.053L21.68 5.706 14.946.058.176 42.678z" id="r"/><path d="M16.818 13.103c-3.762-1.817-1.62-5.11 1.466-10.01l-7.78 3.02L.054 27.705C4.798 44.99 7.17 55.86 7.17 60.313c0 2.107-.778 7.585-2.335 16.434-.038.222-.073.443-.104.667C3.5 86.562 9.933 94.972 19.098 96.2c12.9 1.73 23.558-.497 30.605-6.9 4.856-4.42 16.992-71.217 13.7-74.793S58.463 6.092 42.398.013c-13.29 10.544-21.818 14.907-25.58 13.09z" id="s"/><path d="M6.64 19.19c-7.253 27.76-8.5 49.75-3.742 65.962 7.14 24.322-4.5 52.585-1.77 66.007 13.606 1.427 25.486 8.357 35.64 20.792 4.293-5.534 6.216-17.688 5.77-36.462-.668-28.16-7.368-29.726-8.402-42.546-.69-8.546-.69-19.183 0-31.91l-9.52-48.107c-4.54-3.772-8.074-6.43-10.6-7.97S8.23 1.924 4.234.485L6.64 19.19z" id="t"/><path d="M6.64 19.19C2.26 35.943.07 50.594.07 63.142.067 71.386 1 78.723 2.897 85.15c1.73 5.9 2.357 12.012 2.353 18.098-.008 16.295-4.536 32.334-4.546 42.997-.002 1.8.125 3.444.424 4.912 13.606 1.427 25.486 8.357 35.64 20.792 3.89-5.015 5.835-15.468 5.834-31.356l-.063-5.105c-.668-28.16-7.368-29.726-8.402-42.546-.345-4.273-.517-9.07-.517-14.387s.173-11.16.517-17.522l-9.52-48.107c-4.54-3.772-8.074-6.43-10.6-7.97S8.23 1.924 4.234.485L6.64 19.19z" id="u"/><path d="M6.64 19.19C2.26 35.943.07 50.594.07 63.142c-.002 8.244.942 15.58 2.828 22.008 1.73 5.89 2.356 12.012 2.353 18.098-.008 16.295-4.536 32.334-4.546 42.997-.002 1.8.125 3.444.424 4.912 13.606 1.427 25.486 8.357 35.64 20.792 3.89-5.015 5.835-15.467 5.834-31.356l-.063-5.105c-.668-28.16-7.368-29.726-8.402-42.546-.345-4.273-.517-9.07-.517-14.387s.172-11.16.517-17.522l-9.52-48.107c-4.54-3.772-8.074-6.43-10.6-7.97S8.23 1.924 4.234.485L6.64 19.19z" id="v"/><path d="M10.095 7.753c-4.253.793-6.62 1.69-7.1 2.688-.72 1.498 1.132 1.27-.356 2.658-1 .93-2.695 2.39-2.338 3.437.136.4 1.892.446 2.157.808 1.304 1.786 3.948 2.974 5.747 1.877 2.085-1.27 4.094-3.728 6.027-7.372l6.442-6.68L16.32.003l-6.225 7.75z" id="w"/><path d="M8.93 3.59c-3.524 10.893-3.524 18.723 0 23.49 4.57 12.046 7.34 20.864 8.306 26.455S12.49 70.986.107 89.11c.655 6.52 3.18 8.368 7.573 5.546 6.59-4.232 17.262-4.932 29.04-38.627 6.422-18.37-4.755-46.547-13.764-52.44C19.42 1.28 16.385.29 14.03.29 11.38.29 9.6 1.547 8.93 3.59" id="x"/><path d="M.5.314C.1.43 4.88 5.645 4.503 5.887c-1.863 1.187-3.165 3.676-2.11 5.436 1.222 2.04 3.654 4.046 7.298 6.02l6.58 6.394 5.412-3.99-7.676-6.224c-.66-4.097-1.49-6.393-2.49-6.886-.655-.323-.993-.166-1.278-.01-.368.203-.65.405-1.416-.424C7.932 5.245 1.934.3.605.3.566.3.53.305.5.314z" id="y"/><path d="M.134 6.69c11.06 15.888 20.184 26.228 27.373 31.02s18.55 8.68 34.084 11.66c1.457 21.32-.905 37.515-7.085 48.586-9.27 16.607-9.647 39.247-9.647 42.262s-11.04 22.75-8.133 28.348c9.022-9.408 27.052-5.598 28.74-9.744 1.234-3.03-3.693-9.368-1.69-27.687 1.286-11.76 7.952-26.607 9.14-37.153 3.037-26.976-.468-30.67-1.73-41.947-.42-3.76.31-8.535 2.186-14.325 1.25-3.857 3.628-10.388 7.13-19.59l2.25-1.326c.01-.948-.54-1.232-1.653-.852-1.025.35-7.183.278-15.637 2.18-5.315 1.194-10.96 5.34-17.99 4.34C30.705 20.076 9.012.428 5.81.428 3.677.428 1.784 2.515.134 6.69z" id="z"/><path d="M.134 6.69c11.06 15.888 20.184 26.228 27.373 31.02s18.55 8.68 34.084 11.66c.28 4.08.418 7.974.417 11.68-.004 15.652-2.504 27.955-7.502 36.907-9.27 16.607-9.647 39.247-9.647 42.262 0 2.662-8.603 18.355-8.62 25.848-.002.995.147 1.845.487 2.5 9.022-9.408 27.052-5.598 28.74-9.744.14-.343.2-.73.2-1.17.004-2.782-2.382-7.755-2.376-18.09.002-2.485.14-5.28.486-8.428 1.286-11.76 7.952-26.607 9.14-37.153.872-7.745 1.205-13.57 1.206-18.208.003-11.514-2.036-15.7-2.935-23.74-.076-.675-.114-1.384-.115-2.125-.006-3.384.76-7.45 2.302-12.2 1.25-3.857 3.628-10.388 7.13-19.59l2.25-1.326v-.032c-.001-.65-.276-.978-.823-.983H81.9c-.2.002-.433.045-.702.13l-.038.012-.007.003-.058.02c-1.025.35-7.183.278-15.637 2.18l-.218.05h-.01l-.32.08-.067.018a21.36 21.36 0 0 0-.951.276l-.005.002-.617.202-.064.022h-.003c-4.09 1.402-8.45 3.837-13.532 3.843h-.022c-.714 0-1.44-.05-2.185-.154C30.705 20.076 9.012.428 5.81.428 3.677.428 1.784 2.515.134 6.69z" id="AA"/><path d="M.134 6.69c11.06 15.888 20.184 26.228 27.373 31.02s18.55 8.68 34.084 11.66c.28 4.08.418 7.974.417 11.68-.004 15.652-2.505 27.955-7.502 36.907-9.27 16.607-9.647 39.247-9.647 42.262 0 2.662-8.604 18.355-8.62 25.848-.002.995.147 1.844.487 2.5 9.022-9.408 27.052-5.598 28.74-9.744.14-.344.2-.73.2-1.17.004-2.78-2.382-7.754-2.376-18.09.001-2.485.14-5.28.486-8.428 1.286-11.76 7.952-26.607 9.14-37.153.872-7.745 1.205-13.57 1.205-18.208.004-11.514-2.035-15.7-2.934-23.74a19.34 19.34 0 0 1-.115-2.126c-.006-3.383.76-7.45 2.3-12.2 1.25-3.857 3.628-10.388 7.13-19.59l2.25-1.326v-.032c-.001-.65-.276-.978-.823-.983H81.9c-.2.002-.433.045-.702.13l-.038.013-.007.002-.058.02c-1.025.35-7.183.278-15.637 2.18l-.218.05h-.01l-.32.08-.067.018c-.315.083-.632.176-.95.276l-.005.002-.617.202-.066.023c-4.09 1.402-8.45 3.837-13.532 3.843h-.02a15.44 15.44 0 0 1-2.185-.154C30.705 20.076 9.012.428 5.81.428 3.677.428 1.784 2.515.134 6.69z" id="AB"/><path d="M4.46 10.017v7.592c-2.75-1.157-4.125-.25-4.125 2.72s1.778 5 5.332 6.094l4.5 7.312c-1.454 4.575-2.624 7.602-3.51 9.082-1.328 2.22 1.035 7.807 6.82 7.807 3.856 0 10.16-1.707 18.917-5.122-1.914-2.02-3.286-4.283-4.116-6.785s-.83-5.52 0-9.056c4.435-10.1 6.188-16.243 5.262-18.426S27.634 5.334 18.6.078C9.173 3.857 4.46 7.17 4.46 10.017z" id="AC"/><path d="M.122 14.456c0 10.256 5.927 10.835 5.927 10.835l.998 8.148c2.08 1.35 3.768 3.617 5.063 6.8 1.943 4.773 6.1 11.184 11.872 10.45s8.78-1.918 13.408-13.663c3.086-7.83 3.086-13.894 0-18.196 1.042-3.082.625-6.1-1.252-9.048-1.426-2.24-9.496-4.615-12.157-6.038C19.204 1.188 15.225.1 11.972.1 3.69.11.122 7.093.122 14.456z" id="AD"/><path d="M1.956.31C1.577.573.962 3.34.11 8.6l1.047 4.137 5.288 2.837c1.09-.7 1.677-1.635 1.765-2.837.13-1.803.452-3.55 1.403-7.975.783-3.638-4.515-4.574-6.74-4.574-.48 0-.818.044-.92.114z" id="AE"/><path d="M4.404.4C2.85.633 1.947 3.3 1.2 5.786.685 7.443.442 9.32.46 11.416c16.306 5.08 24.612 7.17 24.92 6.265 2.423-3.743 1.86-4.353-4.39-9.328-2.54-2.022-5.035-3.308-6.542-4.824-.25-.25-.983.257-1.95.763-1.04.544-2.35 1.088-3.618.693C6.504 4.245 5.986.4 4.532.4a.87.87 0 0 0-.127.01z" id="AF"/><path d="M3.756 2.564l-1.67 6.883c-.4 1.09-1.034 1.877-1.906 2.363l6.298-.468 2.687-3.234c.638-4.233.825-6.537.56-6.91C9.51.9 8.005.058 6.544.058c-1.215 0-2.4.575-2.788 2.506z" id="AG"/><path d="M7.712.662C4.98 1.62 3.53 2.742 2.935 3.33c-.845.836-5.838 8.892-.15 11.256 1.412.587 5.752-.178 13.02-2.294.133-2.268-.035-4.284-.502-6.048-.7-2.646-1.38-3.535-3.078-3.702-1.44-.14-1.72-2.088-3.44-2.088-.307 0-.66.062-1.074.207z" id="AH"/><path d="M10.396 6.567L.162 14.928l6.055 13.33 21.13 2.9L18.94 65.69c1.055 1.83 2.23 2.92 3.527 3.27 1.943.524 7.08 4.04 8.925-1.438S60.38 18.68 48.758 6.567C44.884 2.53 39.75.5 33.356.5S19.31 2.53 10.396 6.567z" id="AI"/><path d="M10.8 9.796L.535 18.052l6.067 13.16 21.176 2.853-7.497 30.42c1.013 2.537 2.277 3.914 3.797 4.13s3.257-.363 5.213-1.74C56.425 32.82 51.78 9.796 46.357 2.793 45.152 1.236 43.032.458 39.995.458c-6.073 0-15.808 3.113-29.205 9.34z" id="AJ"/><path d="M1.36 26.796c.61 2.48 6.307 5.756 17.094 9.824l4.226 33.723 33.78 31.106c19.992 10.443 32.11 14.804 36.358 13.086 6.372-2.578 12.486-17.873 13.397-20.94.486-1.637.486-5.632-.852-6.886-3.94-1.746-7.85-5.547-11.728-11.406 13.04-6.14 18.166-11.676 15.38-16.605-5.912-10.462-12.184-26.338-15.38-33.043C90 18.026 81.902 13.724 69.343 12.75c-5.1 6.372-10.32 8.804-15.662 7.297s-7.786-5.033-7.333-10.578c-12.436-1.81-23.115-4.6-32.037-8.366-.97-.4-1.97-.6-2.968-.6-7.05 0-13.988 9.99-9.983 26.304z" id="AK"/><path d="M25.16.497c-2.594.702-4.134 3.392-3.44 6.01s3.362 4.17 5.957 3.47 4.134-3.392 3.44-6.008C30.535 1.774 28.57.328 26.42.328a4.85 4.85 0 0 0-1.261.168zM4.06 4.08c-2.594.7-4.134 3.39-3.44 6.008s3.362 4.17 5.957 3.47 4.134-3.39 3.44-6.01C9.435 5.358 7.47 3.913 5.323 3.913a4.83 4.83 0 0 0-1.262.168zm70.367 13.753c-2.595.695-4.134 3.363-3.44 5.96s3.362 4.136 5.957 3.44a4.87 4.87 0 0 0 3.439-5.961c-.582-2.174-2.547-3.607-4.695-3.607-.417 0-.84.054-1.262.167zm-21.1 3.554a4.87 4.87 0 0 0-3.439 5.96c.695 2.596 3.362 4.137 5.957 3.44s4.134-3.363 3.44-5.96c-.582-2.174-2.548-3.608-4.696-3.608-.417 0-.84.054-1.26.167zm-26.977 2.55c-2.595.7-4.134 3.39-3.44 6.01s3.362 4.17 5.957 3.47 4.134-3.392 3.44-6.01c-.582-2.19-2.548-3.637-4.696-3.637-.417 0-.84.054-1.262.168zm48.076 17.26c-2.595.7-4.134 3.39-3.44 6.008s3.362 4.17 5.957 3.47 4.134-3.39 3.44-6.008c-.582-2.193-2.548-3.638-4.696-3.638a4.82 4.82 0 0 0-1.262.168zm-21.1 3.584c-2.595.702-4.134 3.392-3.44 6.01s3.362 4.17 5.957 3.47 4.134-3.392 3.44-6.01c-.582-2.192-2.547-3.638-4.695-3.638a4.82 4.82 0 0 0-1.262.168zM32.07 48.62c-2.595.7-4.134 3.39-3.44 6.008a4.89 4.89 0 0 0 3.137 3.377c1.246-.025 2.543-.138 3.873-.33 1.94-1.054 2.982-3.348 2.387-5.588-.582-2.19-2.548-3.637-4.695-3.637-.417 0-.84.054-1.262.168zm43.548 16.02c-2.595.7-4.135 3.392-3.44 6.01s3.363 4.17 5.957 3.47 4.135-3.39 3.44-6.01c-.582-2.19-2.548-3.637-4.695-3.637a4.85 4.85 0 0 0-1.262.168zm5.72 24.68c-2.595.7-4.134 3.392-3.44 6.01.437 1.644 1.652 2.867 3.136 3.377 1.247-.025 2.543-.138 3.873-.33 1.94-1.053 2.983-3.348 2.388-5.588-.583-2.192-2.548-3.637-4.695-3.637-.417 0-.84.055-1.262.168z" id="AL"/><path id="AM" d="M.482.196H5.51v22.58H.482z"/><path d="M.584 4.278c0 2.354 1.986 4.26 4.435 4.26s4.436-1.907 4.436-4.26S7.47.02 5.02.02.584 1.925.584 4.278z" id="AN"/><path d="M.312 4.278c0 2.354 1.9 4.26 4.242 4.26s4.24-1.907 4.24-4.26S6.896.02 4.554.02.312 1.925.312 4.278z" id="AO"/><path d="M.253 4.512c0 2.353 1.9 4.26 4.242 4.26s4.24-1.907 4.24-4.26-1.9-4.26-4.24-4.26S.253 2.16.253 4.512z" id="AP"/><path d="M10.054 3.13C7.768 7.87 4.46 11.222.135 13.184l1.593 13.937c17.93-2.54 28.033-5.188 30.3-7.944 3.416-4.132 5.763-11.478.657-16.05C30.56 1.217 27.553.523 24.23.523c-4.617.001-9.842 1.34-14.177 2.606z" id="AQ"/><path d="M9.282 54.58c3.822 13.123 8.69 18.648 13.944 23.91S48.13 92.923 63.83 93.735c13.895.718 33.298-3.37 40.476-7.863s10.9-14.128 2.775-16.523c-4.288-1.266-13.615.892-21.822 3.05-7.324 1.925-13.756 3.85-14.918 3.343C56.63 69.752 60.8 28.207 54.2 23.8c-6.283-4.187-19.68 1.2-35.818-5.98C13.65 15.72 7.648 9.954.37.52c3.422 27.387 6.392 45.406 8.91 54.06" id="AR"/><path d="M4.407.483v22.02h.458V.483l-.23-.006-.23.006zm1.378 22.02h.46V.764C6.094.71 5.94.66 5.784.62v21.883zM3.028.764v21.74h.46V.62c-.157.04-.3.088-.46.143zm4.133 21.74h.46V1.572c-.146-.124-.3-.24-.46-.344v21.275zM1.65 1.57v20.932H2.1V1.228a4.66 4.66 0 0 0-.458.343zM8.54 22.503H9V3.61c-.115-.346-.27-.673-.46-.976v19.87zM.273 3.61v18.894h.46V2.634a4.54 4.54 0 0 0-.46.976zm12.4.602v13.127l.23-.03.23.03V4.135c-.157.013-.31.04-.46.076zm1.378 13.05c.16-.04.313-.095.46-.162V4.373c-.146-.067-.3-.12-.46-.162v13.05zm-2.755-12.2v12.296h.46V4.64a2.74 2.74 0 0 0-.459.412zm4.132 11.37a2.72 2.72 0 0 0 .46-.715v-9.94c-.116-.262-.27-.503-.46-.714v11.37zm-5.5.926h.46v-5.47h-.46v5.47z" id="AS"/><path d="M1.232.14c-.5 0-.908.424-.908.947v2.84c0 .524.406.947.908.947H22.57c.502 0 .908-.423.908-.947v-2.84c0-.523-.406-.947-.908-.947" id="AT"/><path id="AU" d="M204.353 61.297h104.493"/><path id="AV" d="M108.5 24a5.5 5.5 0 1 0 0-11 5.5 5.5 0 1 0 0 11"/><path id="AW" d="M221.255 252.324l23.823 9.82c.95.392 1.398 1.47 1.002 2.407-.052.122-.116.238-.194.346l-28.566 40.277c-.502.708-1.436.975-2.244.642l-23.822-9.82c-.95-.392-1.398-1.47-1.002-2.407.052-.122.116-.238.193-.346l28.566-40.277c.502-.708 1.436-.975 2.244-.642"/><path id="AX" d="M6.64 19.19c-7.253 27.76-8.5 49.748-3.742 65.962 7.14 24.32-4.5 52.585-1.77 66.007 13.605 1.427 25.485 8.358 35.64 20.792 4.292-5.535 6.216-17.69 5.77-36.462-.668-28.16-7.368-29.727-8.402-42.546-.69-8.546-.69-19.183 0-31.91l-9.52-48.107c-4.54-3.772-8.074-6.43-10.6-7.97S8.23 1.925 4.234.486L6.64 19.19z"/><path id="AY" d="M80.506 18.118c-3.503 9.204-5.88 15.734-7.13 19.592-1.878 5.8-2.606 10.565-2.186 14.325 1.26 11.277 4.766 14.97 1.73 41.947-1.187 10.546-7.853 25.393-9.14 37.153-2.004 18.32 2.923 24.657 1.69 27.686-1.69 4.147-19.718.336-28.74 9.744-2.906-5.597 8.133-25.333 8.133-28.348s.376-25.655 9.647-42.262c6.18-11.07 8.542-27.267 7.085-48.586-15.534-2.98-26.895-6.867-34.084-11.66S11.194 22.576.134 6.69C1.785 2.515 3.676.428 5.81.428c3.2 0 24.894 19.648 41.665 22.03 7.03 1 12.676-3.147 17.99-4.34 8.455-1.9 14.612-1.828 15.637-2.177 1.112-.38 1.664-.096 1.653.852l-2.25 1.326z"/><path id="AZ" d="M278.96 241.127c-2.83-1.58-7.16-.1-8.526 1.885l.73 4.083c4.446 23.982 21.674 47.072 35.083 61.524 7.644 8.238 14.123 14.81 19.437 19.715 5.16.803 9.906.253 14.243-1.65 2.828-1.242 7.262-.876 7.135-4.765-.26-8.018-7.38-12.068-10.2-23.68-2.636-10.895.33-33.088-7.638-37.657s-17.946 3.36-33.153-3.244c-10.757-4.673-14.3-14.628-17.12-16.2"/><path id="Aa" d="M35.513 304.18c-5.008 1.905-10.078.045-15.073-5.475-.252-.278-.265-.677-.027-.89s.633-.158.885.12c4.624 5.11 9.116 6.757 13.613 5.046.304-.115.684.06.85.4s.055.692-.25.808"/></defs><g transform="translate(0 1)" fill="none" fill-rule="evenodd"><path d="M401.5 397c115.704 0 209.5-3.358 209.5-7.5s-93.796-7.5-209.5-7.5-209.5 3.358-209.5 7.5 93.797 7.5 209.5 7.5" class="J"/><g transform="translate(192 382)"><mask id="Ab" class="B"><use xlink:href="#A"/></mask><path mask="url(#Ab)" d="M-4.048 19.212h427.785V-4.215H-4.048z" class="J"/></g><path d="M100.632.105h332.53c5.15 0 9.327 4.163 9.327 9.3v239.472c0 1.027-.835 1.86-1.866 1.86H93.17c-1.03 0-1.866-.833-1.866-1.86V9.405c0-5.136 4.176-9.3 9.327-9.3" class="K"/><path d="M100.632.105h332.53c5.15 0 9.327 4.163 9.327 9.3v239.472c0 1.027-.835 1.86-1.865 1.86H93.17c-1.03 0-1.866-.833-1.866-1.86V9.405c0-5.136 4.176-9.3 9.327-9.3z" class="M P"/><path d="M116.317 58.868h76.8c.998 0 1.807.8 1.807 1.79v22.368c0 .988-.81 1.79-1.807 1.79h-76.8c-.998 0-1.807-.8-1.807-1.79V60.657c0-.988.81-1.79 1.807-1.79" class="G"/><g transform="translate(114 58)"><mask id="Ac" class="B"><use xlink:href="#B"/></mask><g class="G"><path mask="url(#Ac)" d="M-255.448 479.25h877.05v-776.593h-877.05z"/><path mask="url(#Ac)" d="M-4.032 30.9h87.954V-3.794H-4.032z"/></g></g><path d="M114.812 99h78.376c1 0 1.812.92 1.812 2.054v89.89c0 1.135-.81 2.055-1.812 2.055h-78.376c-1 0-1.812-.92-1.812-2.055v-89.89c0-1.134.81-2.054 1.812-2.054" class="N"/><g transform="translate(112 98)"><mask id="Ad" class="B"><use xlink:href="#C"/></mask><g class="N"><path mask="url(#Ad)" d="M-256.8 433.89h885.513v-767.005H-256.8z"/><path mask="url(#Ad)" d="M-3.795 98.847h90.478V-3.922H-3.795z"/></g></g><g class="M P"><use xlink:href="#AU"/><use xlink:href="#AU" y="8.37"/><use xlink:href="#AU" y="15.066"/><use xlink:href="#AU" y="22.599"/><use xlink:href="#AU" y="30.131"/><use xlink:href="#AU" y="37.663"/><use xlink:href="#AU" y="44.36"/><use xlink:href="#AU" y="52.73"/><use xlink:href="#AU" y="59.425"/><use xlink:href="#AU" y="66.958"/><use xlink:href="#AU" y="74.491"/><use xlink:href="#AU" y="82.023"/><use xlink:href="#AU" y="90.403"/><use xlink:href="#AU" y="97.926"/><use xlink:href="#AU" y="105.459"/><use xlink:href="#AU" y="112.991"/><use xlink:href="#AU" y="119.687"/><use xlink:href="#AU" y="127.22"/><path d="M318.04 61.297h104.492m-104.492 8.37h104.492M318.04 76.363h104.492M318.04 83.896h104.492M318.04 91.428h104.492M318.04 98.96h104.492m-104.492 6.697h104.492m-104.492 8.37h104.492m-104.492 6.695h104.492m-104.492 7.533h104.492m-104.492 7.533h104.492M318.04 143.32h104.492M318.04 151.7h104.492m-104.492 7.523h104.492m-104.492 7.533h104.492m-104.492 7.532h104.492m-104.492 6.696h104.492m-104.492 7.533h104.492"/></g><g transform="translate(91)"><mask id="Ae" class="B"><use xlink:href="#D"/></mask><path mask="url(#Ae)" d="M-3.884 40.6h359.56V-4.155H-3.884z" class="E"/></g><use xlink:href="#AV" class="Q"/><g transform="translate(102 12)"><mask id="Af" class="B"><use xlink:href="#E"/></mask><path mask="url(#Af)" d="M-241.09 510h867.085v-753.06H-241.09z" class="Q"/><mask id="Ag" class="B"><use xlink:href="#F" href="#E"/></mask><path mask="url(#Ag)" d="M-3.84 15.903h19.622V-3.694H-3.84z" class="Q"/></g><use xlink:href="#AV" x="18" class="R"/><g transform="translate(120 12)"><mask id="Ah" class="B"><use xlink:href="#F"/></mask><path mask="url(#Ah)" d="M-259.09 510h867.085v-753.06H-259.09z" class="R"/><mask id="Ai" class="B"><use xlink:href="#H" href="#F"/></mask><path mask="url(#Ai)" d="M-4.027 15.903h19.622V-3.694H-4.027z" class="R"/></g><use xlink:href="#AV" x="36" class="S"/><g transform="translate(138 12)"><mask id="Aj" class="B"><use xlink:href="#G"/></mask><path mask="url(#Aj)" d="M-276.545 510H590.54v-753.06h-867.085z" class="S"/><mask id="Ak" class="B"><use xlink:href="#J" href="#G"/></mask><path mask="url(#Ak)" d="M-3.668 15.903h19.622V-3.694H-3.668z" class="S"/></g><path d="M226 259h228v-10H226z" class="H"/><g transform="translate(226 249)"><mask id="Al" class="B"><use xlink:href="#H"/></mask><path mask="url(#Al)" d="M-4.05 14.3h236.803V-4.385H-4.05z" class="H"/></g><path d="M235.936 363.607l10.947-103.003h-10.947v103.003zm13.014-104.86l-11.937 112.32a1.55 1.55 0 0 1-1.541 1.385c-.77 0-1.394-.624-1.394-1.392V258.747h14.873zm188.702 104.86V260.604h-10.947l10.947 103.003zm-13.014-104.86h14.874V371.06c0 .77-.624 1.392-1.395 1.392a1.55 1.55 0 0 1-1.541-1.385l-11.937-112.32z" class="E"/><path d="M408.588 235.43h23.107l-5.135 15.137h-12.837z" class="O"/><path d="M285.55 171.106h111.475a1.85 1.85 0 0 1 1.85 1.846V236.2a1.85 1.85 0 0 1-1.85 1.846H285.55a1.85 1.85 0 0 1-1.85-1.846v-63.238a1.85 1.85 0 0 1 1.85-1.846" class="J"/><path d="M285.55 176.01h111.475c1.022 0 1.85.91 1.85 2.035v69.7c0 1.124-.828 2.035-1.85 2.035H285.55c-1.022 0-1.85-.91-1.85-2.035v-69.7c0-1.124.828-2.035 1.85-2.035" fill="#fcf0ef"/><path d="M285.55 176.01h111.475c1.022 0 1.85.91 1.85 2.035v69.7c0 1.124-.828 2.035-1.85 2.035H285.55c-1.022 0-1.85-.91-1.85-2.035v-69.7c0-1.124.828-2.035 1.85-2.035z" class="M P"/><g transform="translate(328 235)"><mask id="Am" class="B"><use xlink:href="#I"/></mask><path mask="url(#Am)" d="M-4.167 19.826H30.23V-3.615H-4.167z" class="C"/></g><path d="M328.322 251.676h25.533v-15.202h-25.533z" class="I T"/><path d="M287.468 244.513H393.78v-64.307H287.468z" class="K"/><path fill="#d7d7d7" d="M288 244h106v-64H288z"/><path d="M295.585 192h24.832c.323 0 .584.247.584.552v6.896c0 .304-.26.55-.584.55h-24.832c-.323 0-.585-.247-.585-.55v-6.896c0-.305.262-.552.585-.552" class="G"/><g transform="translate(294 192)"><mask id="An" class="B"><use xlink:href="#J"/></mask><path mask="url(#An)" d="M-4.264 13.088h35.688V-4.057H-4.264z" class="G"/></g><path d="M295.597 204h25.806c.33 0 .597.274.597.612v26.776c0 .34-.267.612-.597.612h-25.806c-.33 0-.597-.274-.597-.612v-26.776c0-.34.267-.612.597-.612" class="N"/><g transform="translate(294 203)"><mask id="Ao" class="B"><use xlink:href="#K"/></mask><path mask="url(#Ao)" d="M-4.245 32.96h36.464V-3.813H-4.245z" class="N"/></g><path d="M324.26 194.397h30.4m-30.4 2.425h30.4m-30.4 1.938h30.4m-30.4 2.183h30.4m-30.4 2.183h30.4m-30.4 2.182h30.4m-30.4 1.94h30.4m-30.4 2.424h30.4m-30.4 1.94h30.4m-30.4 2.182h30.4m-30.4 2.182h30.4m-30.4 2.182h30.4m-30.4 2.425h30.4m-30.4 2.182h30.4m-30.4 2.182h30.4m-30.4 2.183h30.4m-30.4 1.94h30.4m-30.4 2.18h30.4m2.675-36.853h30.4m-30.4 2.425h30.4m-30.4 1.938h30.4m-30.4 2.183h30.4m-30.4 2.183h30.4m-30.4 2.182h30.4m-30.4 1.94h30.4m-30.4 2.424h30.4m-30.4 1.94h30.4m-30.4 2.182h30.4m-30.4 2.182h30.4m-30.4 2.182h30.4m-30.4 2.425h30.4m-30.4 2.182h30.4m-30.4 2.182h30.4m-30.4 2.183h30.4m-30.4 1.94h30.4m-30.4 2.18h30.4" class="M"/><use xlink:href="#AW" class="K"/><use xlink:href="#AW" class="J"/><g transform="translate(225 251)"><mask id="Ap" class="B"><use xlink:href="#L"/></mask><path d="M6.46 1.163C7.423.342 8.893.03 10.035.473c1.185.46 1.623 1.583 1.118 2.65l1.148.48c1 .417 1.47 1.566 1.053 2.566a1.97 1.97 0 0 1-.421.629L10.4 9.34a1.96 1.96 0 0 1-2.162.416l-6.623-2.85C.623 6.478.163 5.324.59 4.33a1.98 1.98 0 0 1 .327-.519l2.256-2.573A1.96 1.96 0 0 1 5.402.721l1.058.442zM8.017 3.13c.566.22 1.325-.005 1.695-.5s.212-1.074-.353-1.294a1.55 1.55 0 0 0-1.695.5c-.37.495-.212 1.074.353 1.294z" fill="#f26f23" mask="url(#Ap)"/></g><g transform="translate(221 267)"><mask id="Aq" class="B"><use xlink:href="#M"/></mask><path d="M.036 1.045c-.1.653.426 1.246 1.15 1.325L13.31 3.7l.325-2.363L1.512.008C.787-.07.126.393.036 1.045" mask="url(#Aq)" class="C"/><mask id="Ar" class="B"><use xlink:href="#N"/></mask><path d="M.036 1.045c-.1.653.426 1.246 1.15 1.325L13.31 3.7l.325-2.363L1.512.008C.787-.07.126.393.036 1.045z" mask="url(#Ar)" class="I V"/></g><g transform="translate(220 269)"><mask id="As" class="B"><use xlink:href="#O"/></mask><path d="M.496.43C.474.625.597.8.77.824l4.33.59c.172.023.33-.114.35-.307s-.1-.37-.274-.393L.847.124C.674.1.517.238.496.43" mask="url(#As)" class="C"/><mask id="At" class="B"><use xlink:href="#P"/></mask><path d="M.496.43C.474.625.597.8.77.824l4.33.59c.172.023.33-.114.35-.307s-.1-.37-.274-.393L.847.124C.675.1.517.238.496.43z" mask="url(#At)" class="I V"/></g><g transform="translate(219 266)"><mask id="Au" class="B"><use xlink:href="#Q"/></mask><path d="M.46.852a.66.66 0 0 0 .571.736l.86.106a.66.66 0 0 0 .732-.576.66.66 0 0 0-.57-.736L1.19.276a.66.66 0 0 0-.732.576" mask="url(#Au)" class="C"/><mask id="Av" class="B"><use xlink:href="#R"/></mask><path d="M.46.852a.66.66 0 0 0 .571.736l.86.106a.66.66 0 0 0 .732-.576.66.66 0 0 0-.57-.736L1.19.276a.66.66 0 0 0-.732.576z" mask="url(#Av)" class="I U"/></g><g transform="translate(233 268)"><mask id="Aw" class="B"><use xlink:href="#S"/></mask><path mask="url(#Aw)" d="M.574.313L.226 2.675l2.75-.784z" class="C"/><mask id="Ax" class="B"><use xlink:href="#W" href="#S"/></mask><path mask="url(#Ax)" d="M.574.313L.226 2.675l2.75-.784z" class="I U"/></g><g transform="translate(230 364)"><mask id="Ay" class="B"><use xlink:href="#T"/></mask><path mask="url(#Ay)" d="M-3.84 17.968h27.892V-3.837H-3.84z" class="C"/></g><path d="M187.646 360.857L178 333.625c24.253-19.84 41.634-26.63 52.143-20.375 15.764 9.384 12.52 53.67 12.687 54.95s-9.22 4.804-10.998 1.275-11.78-24.8-12.793-32.594c-4.26 5.6-14.724 13.583-31.393 23.978" class="L"/><g transform="translate(178 311)"><mask id="Az" class="B"><use xlink:href="#U"/></mask><path mask="url(#Az)" d="M-4.038 64.816h72.883v-68.54H-4.038z" class="L"/></g><g transform="translate(145 369)"><mask id="BA" class="B"><use xlink:href="#V"/></mask><path mask="url(#BA)" d="M-3.972 14.777h23.494V-3.738H-3.972z" class="C"/></g><path d="M161 380l-12.608-2.765L145 378.31l5.13-6.524 8.973-1.787z" class="C"/><g transform="translate(227 371)"><mask id="BB" class="B"><use xlink:href="#W"/></mask><path d="M2.022.524c1.668-.82 3.764 3.642 6.82 3.642s4.96-4.05 5.742-3.642c2.285 1.194 5.6 1.775 9.25 3.18 8.978 3.456 9.847 3.952 8.54 9.087 0 1.142-10.198 1.712-30.592 1.712C.96 12.116.515 9.887.45 7.816.354 4.71.354 1.343 2.022.524" mask="url(#BB)" class="E"/><mask id="BC" class="B"><use xlink:href="#X"/></mask><path d="M2.022.524c1.668-.82 3.764 3.642 6.82 3.642s4.96-4.05 5.742-3.642c2.285 1.194 5.6 1.775 9.25 3.18 8.978 3.455 9.847 3.952 8.54 9.087 0 1.142-10.198 1.712-30.592 1.712C.96 12.116.515 9.887.45 7.816.354 4.71.354 1.343 2.022.524z" mask="url(#BC)" class="I U"/></g><path d="M238.096 366.066c-7.312 22.565-77.122 18.308-81.792 16.096-2.664-1.263.11-12.142 1.578-12.673 3.414-1.234 51.02-5.477 41.88-3.424s-50.03-3.676-48.73-24.925c.86-14.027 2.44-17.804 11.667-15.522 4.752 1.174 16.24 6.242 20.842 7.56 29.99 8.585 61.206 12.363 54.556 32.888" class="H"/><g transform="translate(151 325)"><mask id="BD" class="B"><use xlink:href="#Y"/></mask><path mask="url(#BD)" d="M-3.864 64.1h96.876V-4.16H-3.864z" class="H"/></g><g transform="translate(130 363)"><mask id="BE" class="B"><use xlink:href="#Z"/></mask><path mask="url(#BE)" d="M-3.843 27.872H30.13V-3.69H-3.843z" class="E"/></g><path d="M163 249.225c9.16-5.227 19.647 7.644 22.106 12.866s9.438 5.28 6.532 28.938c-1.938 15.77-1.21 24.298 2.18 25.58 6.096-.852 7.683 2.754 4.76 10.817-4.385 12.095-10.153 11.95-21.19 13.294s-19.056-2.296-23.578-7.507 5.677-15.74 0-25.69c-2.192-3.844-3.812-27.426-3.812-35.13s3.837-17.94 13-23.168" class="D"/><g transform="translate(150 247)"><mask id="BF" class="B"><use xlink:href="#a"/></mask><path mask="url(#BF)" d="M-4.524 98.18h59.32V-7.22h-59.32z" class="D"/><mask id="BG" class="B"><use xlink:href="#b"/></mask><path mask="url(#BG)" d="M-1.182 95.67h52.637V-3.875H-1.182z" class="D"/><mask id="BH" class="B"><use xlink:href="#c"/></mask><g class="D"><path mask="url(#BH)" d="M-4.052 98.172H54.11V-3.912H-4.052z"/><path d="M13.075 1.504C22.2-3.763 32.646 9.207 35.096 14.47s9.402 5.32 6.507 29.162c-1.93 15.893-1.206 24.486 2.173 25.778 6.073-.858 7.653 2.775 4.742 10.9C44.15 92.498 38.404 92.353 27.4 93.707S8.428 91.393 3.923 86.142s5.655-15.863 0-25.89C1.74 56.38.125 32.614.125 24.85s3.823-18.08 12.95-23.347" mask="url(#BH)"/></g></g><g transform="translate(160 231)"><mask id="BI" class="B"><use xlink:href="#d"/></mask><path mask="url(#BI)" d="M-3.67 33.067h43.342v-37.18H-3.67z" class="E"/></g><g transform="translate(164 217)"><mask id="BJ" class="B"><use xlink:href="#e"/></mask><path mask="url(#BJ)" d="M-3.7 41h48.56V-3.88H-3.7z" class="C"/></g><g transform="translate(141 187)"><mask id="BK" class="B"><use xlink:href="#f"/></mask><path mask="url(#BK)" d="M-4.057 70.878h87.823V-3.667H-4.057z" class="E"/></g><path d="M221.228 287L216 282.993l7.415-6.25 1.403-6.047.877-1.076c1.26.268 2.17.193 2.73-.224.943-.703 2.262-2.672 3.304-2.365.16.047 1.442.453 1.542.812.15.533-.893 1.09-.675 1.234 1.8 1.192 3.058 3.69 2.04 5.458-1.18 2.047-3.53 4.062-7.05 6.046l-6.357 6.42z" class="C"/><g transform="translate(215 266)"><mask id="BL" class="B"><use xlink:href="#g"/></mask><path mask="url(#BL)" d="M-3.663 25.814h27.767V-4.003H-3.663z" class="C"/></g><g transform="translate(157 248)"><mask id="BM" class="B"><use xlink:href="#h"/></mask><path mask="url(#BM)" d="M-3.75 67.872h76.92V-4.1H-3.75z" class="C"/></g><path d="M167.788 248.24c3.765-.848 14.462 1.555 15.66 12.95s.826 22.506 5 26.753 7.423.57 30.72-8.362c2.95-.174 4.723 1.22 5.32 4.178s.598 4.354 0 4.184c-19.48 18.057-33.498 25.63-42.053 22.72-12.83-4.366-27.604-32.802-25.86-45.4s7.448-16.173 11.213-17.022" class="G"/><path d="M427.444 301.253c5.603 8.334 32.823 13.1 81.66 14.3h23.556l-14.98-31.9-43.218-19.63c-36.95 16.48-52.62 28.887-47.018 37.22" class="H"/><g transform="translate(426 265)"><mask id="BN" class="B"><use xlink:href="#i"/></mask><path mask="url(#BN)" d="M-4.093 55.713H110.85V-4.16H-4.093z" class="H"/></g><path d="M428.202 302.16c5.59 8.386 32.753 13.183 81.485 14.39h23.506l-14.95-32.1-43.125-19.754c-36.87 16.583-52.51 29.068-46.917 37.453z" class="I T"/><path d="M456.7 103.242c-2.056 3.854-3.184 6.544-3.384 8.072-.32 2.443 1.065 4.422 1.233 5.904.22 1.945-1.3 2.064-.636 3.86.298.807 2.96 3.413 3.292 4.2 3.234 7.64 7.875 14.022 9.412 13.818 1.13-.15 3.81-1.195 8.044-3.132 4.486 2.255 4.483 6.704-.01 13.346-6.737 9.962-7.635 16.74.878 15.754 5.676-.657 14.727-6.366 27.154-17.13-4.502-2.042-7.52-4.384-9.06-7.023s-1.824-5.976-.862-10.01l-2.833-11.683-6.173-8.703-23.155-7.33-3.903.06z" class="C"/><path d="M490.52 90.75c6.1-14.878 13.98-21.616 23.608-20.214 14.442 2.103 16.898 24.022 22.335 27.443s25.828 12.658 33.1 20.863 1.342 20.43 11.162 23.616 39.79 18.684 11.25 52.885c-17.82 21.354-62.45 23.566-62.47-.056-.024-27.012-15.28-14.753-23.4-27.033s2.044-18.287-.023-25.862-8.94-1.856-15.535-11.57c-7.062-10.404-3.765-15.387-1.897-24.135 1.245-5.832 1.865-11.144 1.86-15.936" class="F"/><g transform="translate(485 70)"><mask id="BO" class="B"><use xlink:href="#j"/></mask><path mask="url(#BO)" d="M142.44 26.743L8.388-9.22-26.814 122.322l134.053 35.964z" class="F"/></g><path d="M473.188 134.87c4.612 2.254 4.613 6.692.002 13.316-6.916 9.936-7.835 16.697.915 15.72 5.833-.65 15.13-6.34 27.895-17.07-4.63-2.04-7.733-4.38-9.316-7.015s-1.88-5.965-.894-10L473.19 125c.916 1.722 1.22 3.464.915 5.225-.508 2.912-6.645 5.826-7.097 6.96-.135.34 1.926-.433 6.182-2.315" class="K"/><g transform="translate(493 87)"><mask id="BP" class="B"><use xlink:href="#k"/></mask><path fill="#e65725" mask="url(#BP)" d="M21.41-.458L-.6-6.315-6.844 16.83l22.01 5.857z"/></g><g transform="translate(427 80)"><mask id="BQ" class="B"><use xlink:href="#l"/></mask><path mask="url(#BQ)" d="M87.44 2.9L6.64-19.063-9.07 40.377l80.8 21.953z" class="E"/></g><path d="M461.542 372l1.458 9.3c-1.775 2.473-3.966 3.7-6.574 3.7s-4.93-.623-6.965-1.87L448 372.975l13.542-.975z" class="C"/><g transform="translate(447 371)"><mask id="BR" class="B"><use xlink:href="#m"/></mask><path mask="url(#BR)" d="M-4.033 17.846h24.275V-4.388H-4.033z" class="C"/></g><g transform="translate(492 371)"><mask id="BS" class="B"><use xlink:href="#n"/></mask><path mask="url(#BS)" d="M-4.17 17.846h24.275V-4.388H-4.17z" class="C"/></g><path d="M507.24 371.998l1.472 9.303c-1.79 2.476-4.003 3.715-6.636 3.715s-4.977-.624-7.03-1.873l-1.475-10.17 13.67-.976z" class="C"/><path d="M508.76 380.025c1.117 0 1.117 3.84 1.166 6.76.018 1.064-.172 2.685-.568 4.86-.162.893-.878 1.547-1.726 1.578-17.93.66-28.732.643-28.765-.053-1.432-4.75-.652-5.264 7.48-8.99 3.305-1.515 6.338-2.238 8.393-3.482.703-.425 2.177 3.015 7.037 3.015s5.87-3.69 6.985-3.69" class="F"/><g transform="translate(478 380)"><mask id="BT" class="B"><use xlink:href="#o"/></mask><path mask="url(#BT)" d="M-3.863 17.92h39.938V-4.084H-3.863z" class="F"/></g><path d="M461.82 380c1.13 0 1.13 3.928 1.18 6.918.018 1.09-.174 2.747-.575 4.974-.164.914-.888 1.583-1.745 1.614-18.133.676-29.06.657-29.093-.054-1.45-4.86-.66-5.386 7.564-9.2 3.342-1.55 6.4-2.3 8.49-3.563.7-.435 2.2 3.084 7.116 3.084S460.7 380 461.82 380" class="F"/><g transform="translate(431 380)"><mask id="BU" class="B"><use xlink:href="#p"/></mask><path mask="url(#BU)" d="M-3.783 17.92h40.488V-4.084H-3.783z" class="F"/></g><path d="M512.926 222c-.452 10.098-.452 15.732 0 16.902.678 1.755-3.295 23.655-11.918 65.7.74 41.024 6.886 63.56 6.15 67.608-1.106 6.07-13.96 6.07-15.52 1.683-1.04-2.926-5.343-26.693-12.91-71.303l-1.328-34.988-22.203 37.464c1.556 43.51 7.455 66.54 5.404 69.09-1.83 2.272-13.877 3.875-14.6.001-7.333-30.015-11-53.197-11-69.548s7.553-43.887 22.657-82.61h55.27z" class="O"/><g transform="translate(435 221)"><mask id="BV" class="B"><use xlink:href="#q"/></mask><path mask="url(#BV)" d="M-3.95 158.918h86.7V-3.86h-86.7z" class="O"/></g><path d="M501.453 370.59L492.6 307.03a28.43 28.43 0 0 1 .077-8.36l8.777-55.547v127.47z" class="I T"/><path d="M455.36 304.5l-.18-.053 15.22-43.024 6.94 5.702-21.98 37.375" class="F"/><g transform="translate(456 261)"><mask id="BW" class="B"><use xlink:href="#r"/></mask><path mask="url(#BW)" d="M-3.86 46.876h29.575V-4.087H-3.86z" class="F"/></g><path d="M473.972 148.056c-3.044 4.863-5.155 8.128-1.446 9.932s12.114-2.525 25.217-12.987c15.837 6.03 17.463 10.822 20.707 14.37s-8.72 69.827-13.506 74.212c-6.947 6.364-17.443 8.573-30.17 6.857-9.034-1.22-15.375-9.564-14.162-18.64.03-.22.064-.44.1-.662 1.534-8.78 2.3-14.215 2.3-16.306.001-4.42-2.337-15.204-7.014-32.356l10.3-21.425 7.67-2.996z" fill="#f7caa5"/><g transform="translate(456 145)"><mask id="BX" class="B"><use xlink:href="#s"/></mask><path mask="url(#BX)" d="M-4.13 100.957h72.277V-4.178H-4.13z" class="J"/></g><g transform="translate(496 145)"><mask id="BY" class="B"><use xlink:href="#t"/></mask><use xlink:href="#AX" mask="url(#BY)" class="I W"/></g><path d="M502.642 163.653c-7.333 27.685-8.594 49.613-3.783 65.783 7.217 24.255-4.55 52.443-1.79 65.83 13.755 1.423 25.765 8.335 36.032 20.736 4.34-5.52 6.285-17.64 5.834-36.363-.675-28.084-7.45-29.647-8.494-42.43-.697-8.523-.697-19.13 0-31.823l-9.624-47.977c-4.6-3.762-8.162-6.412-10.715-7.95s-5.85-3.024-9.892-4.458l2.43 18.653z" class="D"/><g transform="translate(496 145)"><mask id="BZ" class="B"><use xlink:href="#y" href="#t"/></mask><g class="D"><path mask="url(#BZ)" d="M-1.93 172.492h45.6V.04h-45.6z"/><path d="M6.64 19.19c-7.253 27.76-8.5 49.748-3.742 65.962 7.14 24.32-4.5 52.585-1.77 66.007 13.606 1.427 25.485 8.357 35.64 20.792 4.293-5.535 6.216-17.69 5.77-36.462-.668-28.16-7.368-29.727-8.402-42.546-.69-8.546-.69-19.183 0-31.91l-9.52-48.107c-4.54-3.772-8.074-6.43-10.6-7.97S8.23 1.924 4.234.486L6.64 19.19z" mask="url(#BZ)"/></g><mask id="Ba" class="B"><use xlink:href="#u"/></mask><path mask="url(#Ba)" d="M-1.93 172.492h45.6V.04h-45.6z" class="D"/><mask id="Bb" class="B"><use xlink:href="#v"/></mask><use xlink:href="#AX" mask="url(#Bb)" class="D"/></g><g transform="translate(488 245)"><mask id="Bc" class="B"><use xlink:href="#w"/></mask><path mask="url(#Bc)" d="M-4.016 23.82h28.958V-4.175H-4.016z" class="C"/></g><path d="M508.5 250.153l-6.384 6.688c-1.916 3.648-3.907 6.108-5.973 7.38-1.783 1.098-4.403-.092-5.696-1.88-.263-.363-2.004-.4-2.138-.81-.354-1.048 1.327-2.51 2.317-3.442 1.474-1.39-.36-1.16.353-2.66.475-1 2.82-1.897 7.035-2.69l6.17-7.758 4.316 5.17z" class="C"/><path d="M511.206 183.14c-3.608-4.777-3.608-12.623 0-23.54 1.28-3.87 6.668-4.926 14.365 0 9.226 5.905 20.67 34.143 14.095 52.554-12.062 33.768-22.99 34.47-29.738 38.71-4.5 2.828-7.085.975-7.756-5.558 12.682-18.166 18.53-30.05 17.54-35.653s-3.824-14.44-8.506-26.513" class="D"/><g transform="translate(503 156)"><mask id="Bd" class="B"><use xlink:href="#x"/></mask><path d="M8.93 27.08c-3.524-4.766-3.524-12.596 0-23.49 1.25-3.86 6.512-4.915 14.027 0 9.01 5.892 20.186 34.07 13.764 52.44C24.94 89.726 14.27 90.425 7.68 94.657 3.287 97.48.762 95.63.107 89.112 12.49 70.985 18.2 59.127 17.235 53.536S13.5 39.126 8.93 27.08" mask="url(#Bd)" class="D"/></g><path d="M510.933 183.89c-3.568-4.784-3.568-12.642 0-23.576 1.264-3.875 6.594-4.934 14.204 0 9.122 5.914 20.44 34.195 13.938 52.633-11.927 33.82-22.732 34.52-29.406 38.77-4.45 2.832-7.006.977-7.67-5.566 12.54-18.193 18.322-30.095 17.344-35.707s-3.782-14.463-8.41-26.553" class="G"/><g transform="translate(503 156)"><mask id="Be" class="B"><use xlink:href="#AD" href="#x"/></mask><path d="M8.93 27.08c-3.524-4.766-3.524-12.596 0-23.49 1.25-3.86 6.512-4.915 14.027 0 9.008 5.892 20.186 34.07 13.764 52.44C24.94 89.726 14.27 90.425 7.68 94.657 3.287 97.48.762 95.63.107 89.112 12.49 70.985 18.2 59.127 17.235 53.536S13.5 39.126 8.93 27.08" mask="url(#Be)" class="G"/></g><g transform="translate(378 118)"><mask id="Bf" class="B"><use xlink:href="#y"/></mask><path mask="url(#Bf)" d="M-3.766 27.84h29.7V-3.8h-29.7z" class="C"/></g><path d="M393.64 141l-6.516-6.275c-3.61-1.938-6.018-3.908-7.228-5.908-1.043-1.727.246-4.17 2.09-5.335.375-.237-4.37-5.354-3.963-5.468 1.068-.3 7.334 4.81 8.24 5.78 1.348 1.444 1.182-.302 2.668.424 1 .485 1.813 2.737 2.467 6.758l7.602 6.108-5.36 3.917z" class="C"/><g transform="translate(390 132)"><mask id="Bg" class="B"><use xlink:href="#z"/></mask><use xlink:href="#AY" mask="url(#Bg)" class="I W"/></g><path d="M470.74 150.675l-7.164 19.576c-1.886 5.785-2.618 10.556-2.196 14.314 1.266 11.268 4.787 14.96 1.736 41.913-1.192 10.537-7.89 25.372-9.18 37.122-2.013 18.305 2.937 24.637 1.697 27.665-1.697 4.143-19.808.335-28.872 9.736-2.92-5.593 8.17-25.313 8.17-28.325s.378-25.634 9.69-42.227c6.21-11.062 8.58-27.245 7.117-48.547-15.605-2.978-27.017-6.862-34.24-11.65S401.1 155.13 390 139.255c1.658-4.17 3.558-6.255 5.703-6.255 3.216 0 25.007 19.632 41.855 22.012 7.063 1 12.734-3.144 18.073-4.337 8.494-1.898 14.68-1.826 15.71-2.176 1.117-.38 1.67-.096 1.66.85l-2.26 1.325z" class="D"/><g transform="translate(390 132)"><mask id="Bh" class="B"><use xlink:href="#AG" href="#z"/></mask><g class="D"><path mask="url(#Bh)" d="M-.274 169.172h83.777V-.27H-.274z"/><path d="M80.506 18.118c-3.503 9.204-5.88 15.734-7.13 19.592-1.878 5.8-2.606 10.565-2.186 14.325 1.26 11.277 4.766 14.97 1.73 41.947-1.187 10.546-7.853 25.393-9.14 37.153-2.004 18.32 2.923 24.657 1.69 27.687-1.69 4.146-19.718.336-28.74 9.743-2.906-5.597 8.133-25.333 8.133-28.348s.376-25.655 9.647-42.262c6.18-11.07 8.542-27.267 7.085-48.586-15.534-2.98-26.895-6.867-34.084-11.66S11.194 22.576.134 6.69C1.785 2.515 3.676.428 5.81.428c3.2 0 24.894 19.648 41.665 22.03 7.03 1 12.676-3.147 17.99-4.34 8.455-1.9 14.612-1.828 15.637-2.177 1.112-.38 1.664-.096 1.653.852l-2.25 1.326z" mask="url(#Bh)"/></g><mask id="Bi" class="B"><use xlink:href="#AA"/></mask><path mask="url(#Bi)" d="M-.274 169.172h83.777V-.27H-.274z" class="D"/><mask id="Bj" class="B"><use xlink:href="#AB"/></mask><use xlink:href="#AY" mask="url(#Bj)" class="D"/></g><path d="M305.7 204.96c-1.434 4.616-2.59 7.67-3.46 9.164-1.31 2.24 1.02 7.877 6.728 7.877 3.804 0 10.026-1.722 18.665-5.168-1.89-2.04-3.242-4.322-4.06-6.846s-.82-5.57 0-9.137c4.376-10.192 6.106-16.39 5.192-18.59s-5.828-5.955-14.74-11.258c-9.3 3.813-13.952 7.156-13.952 10.028v7.66c-2.713-1.168-4.07-.253-4.07 2.744s1.754 5.046 5.26 6.148l4.44 7.378z" class="K"/><g transform="translate(295 171)"><mask id="Bk" class="B"><use xlink:href="#AC"/></mask><path mask="url(#Bk)" d="M-3.926 54.748H38.04V-4.046H-3.926z" class="K"/></g><g transform="translate(293 155)"><mask id="Bl" class="B"><use xlink:href="#AD"/></mask><path mask="url(#Bl)" d="M-4.056 54.96h47.938V-4.104H-4.056z" class="E"/></g><g transform="translate(368 346)"><mask id="Bm" class="B"><use xlink:href="#AE"/></mask><path mask="url(#Bm)" d="M-4.067 19.88H13.87V-4.1H-4.067z" class="C"/></g><path d="M367.056 352c1.598-.24 2.1 3.934 4.604 4.717s5.198-2.03 5.727-1.497c1.55 1.56 4.116 2.882 6.73 4.963 6.43 5.118 7.007 5.745 4.514 9.597-.315.93-8.858-1.218-25.63-6.445-.02-2.157.23-4.088.75-5.793.78-2.557 1.708-5.302 3.306-5.542" class="F"/><g transform="translate(362 352)"><mask id="Bn" class="B"><use xlink:href="#AF"/></mask><path mask="url(#Bn)" d="M-3.683 21.867h34.538V-3.6H-3.683z" class="F"/></g><g transform="translate(326 342)"><mask id="Bo" class="B"><use xlink:href="#AG"/></mask><path mask="url(#Bo)" d="M-4.245 15.913h18.508V-4.043H-4.245z" class="C"/></g><path d="M334.318 350.04c1.725.162 2.415 1.03 3.127 3.618.474 1.725.645 3.695.5 5.912-7.385 2.068-11.794 2.816-13.23 2.242-5.78-2.3-.707-10.186.15-11.003.604-.575 2.078-1.67 4.854-2.608s2.86 1.675 4.587 1.838" class="F"/><g transform="translate(322 347)"><mask id="Bp" class="B"><use xlink:href="#AH"/></mask><path mask="url(#Bp)" d="M-3.908 19.115h23.77V-3.883h-23.77z" class="F"/></g><path d="M359.337 289.053c18.007-8.07 30.924-8.07 38.75 0 11.74 12.107-15.677 55.445-17.54 60.918s-7.052 1.96-9.015 1.438c-1.31-.35-2.496-1.438-3.562-3.267l8.492-34.523-21.346-2.888L349 297.41l10.337-8.356z" class="H"/><g transform="translate(349 282)"><mask id="Bq" class="B"><use xlink:href="#AI"/></mask><path mask="url(#Bq)" d="M-3.998 74.755h59.8v-78.45h-59.8z" class="H"/></g><path d="M318.26 289.31c20.107-9.31 31.968-11.64 35.586-6.983 5.425 6.983 10.073 29.937-17.076 63.894-1.957 1.372-3.696 1.95-5.215 1.734s-2.786-1.59-3.8-4.118l7.5-30.33-21.188-2.845-6.07-13.122 10.26-8.23z" class="L"/><g transform="translate(308 279)"><mask id="Br" class="B"><use xlink:href="#AJ"/></mask><path mask="url(#Br)" d="M-3.634 72.8h58.31V-3.693h-58.31z" class="L"/></g><path d="M302.9 215.654c8.616 3.928 13.858 4.9 15.727 2.946s2.692-3.417 2.47-4.356c16.648 1.4 26.79 5.9 30.426 13.53 5.454 11.428 19.872 49.533 26.157 41.91 4.2-5.083 7.113-9.287 8.768-12.613-2.756-2.547-4.133-4.097-4.133-4.65 0-.83 2.753-.874 4.133-.437s1.122-9.572 1.99-10.23c.58-.44 1.316 1.912 2.207 7.05 1.322-5.53 2.218-8.183 2.688-7.96s.47 3.298 0 9.23c2.332-2.75 3.676-3.91 4.032-3.484s-.333 2.37-2.07 5.832c2.145-.782 3.217-.928 3.217-.437s-1.072 1.482-3.217 2.97l-1.963 3.64c-4.77 18.47-11.7 28.272-20.79 29.41s-12.71 1.137-10.862 0c2.22 3.04 3.028 5.58 2.42 7.623-.91 3.063-7.024 18.338-13.396 20.913-4.248 1.717-16.367-2.64-36.358-13.07l-33.78-31.064-3.33-34.052c-31.55-17.828-48.673-41.2-51.37-70.144l-1.354-4.32c-3.14-3.397-4.802-5.33-4.99-5.796s.818-.178 3.016.867c-1.113-3.147-1.525-4.887-1.234-5.22s1.36.654 3.208 2.957c.136-4.014.43-6.103.88-6.27s1.13 1.567 2.033 5.2c.422-3.203.852-4.62 1.29-4.257s.836 2.895 1.193 7.59c1.738-1.51 2.706-1.994 2.905-1.456s-.314 2.412-1.538 5.624c13.012 21.574 23.98 34.242 32.902 38.004s22.168 7.637 39.737 11.625l-1.02 2.9z" class="C"/><path d="M311.57 222.172c5.34 1.506 10.562-.923 15.663-7.287 12.558.974 20.656 5.27 24.29 12.888 3.196 6.696 9.47 22.55 15.38 33 2.784 4.922-2.342 10.45-15.38 16.583 3.877 5.85 7.787 9.648 11.728 11.4 1.338 1.253 1.338 5.24.852 6.877-.91 3.063-7.024 18.337-13.397 20.913-4.247 1.717-16.367-2.64-36.358-13.07l-33.78-31.064-4.226-33.68c-10.787-4.063-16.485-7.334-17.094-9.81-4.572-18.596 5.114-28.965 12.95-25.66 8.922 3.762 19.602 6.547 32.037 8.356-.453 5.537 1.99 9.058 7.333 10.564" class="G"/><g transform="translate(257 202)"><mask id="Bs" class="B"><use xlink:href="#AK"/></mask><path mask="url(#Bs)" d="M-3.995 119.077h117.923V-3.686H-3.995z" class="G"/></g><path d="M293.175 268.09c-.695-2.607.844-5.287 3.44-5.985s5.26.85 5.957 3.456a4.9 4.9 0 0 1-2.387 5.566c-1.33.19-2.626.303-3.872.328-1.485-.508-2.7-1.727-3.136-3.364m-22.052-40.91c-2.594.7-5.26-.85-5.956-3.456s.844-5.287 3.44-5.986 5.26.85 5.956 3.456-.844 5.287-3.44 5.986m22.29 19.78c-2.594.698-5.26-.85-5.956-3.456a4.89 4.89 0 0 1 3.439-5.986c2.594-.7 5.26.85 5.957 3.456s-.845 5.287-3.44 5.986m-1.19-23.35c-2.594.7-5.26-.85-5.956-3.456s.844-5.287 3.44-5.986 5.26.85 5.956 3.456-.844 5.287-3.44 5.985m50.217 85.027c-.695-2.607.844-5.287 3.438-5.986s5.26.85 5.957 3.456a4.9 4.9 0 0 1-2.387 5.566c-1.33.19-2.626.303-3.872.328-1.485-.508-2.7-1.727-3.136-3.364m-22.052-40.91c-2.595.7-5.262-.85-5.957-3.456s.845-5.288 3.44-5.986 5.262.85 5.957 3.456-.845 5.287-3.44 5.986m22.288 19.78c-2.594.698-5.26-.85-5.956-3.456s.844-5.287 3.44-5.986 5.26.85 5.957 3.456-.844 5.287-3.44 5.986m-1.19-23.35c-2.595.698-5.262-.85-5.957-3.456s.845-5.287 3.44-5.985 5.262.85 5.957 3.456-.845 5.287-3.44 5.986m-21.098-19.81c-2.595.693-5.262-.842-5.957-3.428s.845-5.244 3.44-5.937 5.262.842 5.957 3.428-.845 5.244-3.44 5.937m21.098-3.54c-2.595.693-5.262-.84-5.957-3.428s.845-5.244 3.44-5.937 5.262.84 5.957 3.427-.845 5.244-3.44 5.937" fill="#ca3b27"/><g transform="translate(265 213)"><mask id="Bt" class="B"><use xlink:href="#AL"/></mask><path fill="#ca3b27" mask="url(#Bt)" d="M-3.708 102.9h95.332V-3.877H-3.708z"/></g><g transform="translate(341 326)"><mask id="Bu" class="B"><use xlink:href="#AM"/></mask><path mask="url(#Bu)" d="M-3.278 26.895H9.27V-3.92H-3.278z" class="C"/></g><g transform="translate(308 374)"><mask id="Bv" class="B"><use xlink:href="#AN"/></mask><path mask="url(#Bv)" d="M-3.84 12.77h17.718V-4.21H-3.84z" class="E"/></g><g transform="translate(368 374)"><mask id="Bw" class="B"><use xlink:href="#AO"/></mask><path mask="url(#Bw)" d="M-3.918 12.77h16.943V-4.21H-3.918z" class="E"/></g><g transform="translate(340 379)"><mask id="Bx" class="B"><use xlink:href="#AP"/></mask><path mask="url(#Bx)" d="M-3.977 13.002h16.942v-16.98H-3.977z" class="E"/></g><path d="M339.132 354.408l-.324-3.487c-.007-.07-.01-.14-.008-.212a1.87 1.87 0 0 1 1.909-1.832l8.145.17a1.87 1.87 0 0 1 1.722 2.01l-.23 2.995 25.798 17.727c1.218 1.006 1.39 2.81.386 4.028-1.153 1.398-3.138 1.777-4.724.902l-22.258-12.277-1.218 15.84c-.136 1.77-1.59 3.15-3.363 3.197a3.34 3.34 0 0 1-3.413-3.032l-1.528-16.443-23.052 12.715c-1.587.876-3.572.496-4.724-.902-1.005-1.22-.832-3.022.386-4.028l.202-.152 26.103-17.924.194.704z" class="E"/><use xlink:href="#AZ" class="H"/><use xlink:href="#AZ" class="E"/><path d="M358.445 308.065c7.63-2.096 17.947-4.404 23.173 0s2.823 11.48-.673 15.46c-2.33 2.654-12.672 5.205-31.022 7.652l-1.63-13.426c4.43-1.89 7.813-5.12 10.152-9.687" class="L"/><g transform="translate(348 304)"><mask id="By" class="B"><use xlink:href="#AQ"/></mask><path mask="url(#By)" d="M-3.967 31.46H39.76V-3.817H-3.967z" class="L"/></g><g transform="translate(270 242)"><mask id="Bz" class="B"><use xlink:href="#AR"/></mask><path d="M.37.52c3.42 27.387 6.392 45.406 8.91 54.06 3.82 13.122 8.69 18.647 13.944 23.9S48.13 92.922 63.83 93.735c13.895.718 33.298-3.37 40.476-7.863s10.9-14.128 2.775-16.523-34.275 7.47-36.74 6.393C56.63 69.752 60.81 28.207 54.2 23.8c-6.282-4.188-19.68 1.19-35.818-5.98C13.65 15.72 7.648 9.954.37.52" mask="url(#Bz)" class="C"/></g><path d="M270.026 242.394c3.448 27.4 6.44 45.427 8.98 54.084 3.85 13.128 8.756 18.656 14.052 23.92s25.097 14.438 40.918 15.25c14 .72 33.555-3.37 40.79-7.867s10.975-14.134 2.797-16.53-34.54 7.472-37.024 6.395c-13.817-5.99-9.605-47.556-16.267-51.963-6.33-4.2-19.833 1.2-36.095-5.982-4.767-2.103-10.817-7.87-18.15-17.308" class="F"/><path d="M84.703 379.878c46.623 0 84.418 3.054 84.418 6.82s-37.795 6.82-84.418 6.82-84.418-3.053-84.418-6.82 37.796-6.82 84.418-6.82" class="J"/><path d="M70.396 229.088C62.67 227.7 60.4 245.285 57.44 247.814c-2.953 2.506-9.02 1.8-10.155 8.765s4.523 8.345 3.575 14.138-13.314 1.473-14.788 10.622 7.448 14.598 6.55 20.107-6.303 6.23-8.28 18.425 7.113 17.404 21.432 22.605 24.532 3.81 26.774-9.3-13.38-17.18-13.285-24.703c.088-7.498 11.005-8.478 12.433-16.898s-13.463-12.263-12.34-18.993 13.72-6.984 14.9-13.972-1.466-8.834-6.337-12.745c-4.884-3.868.203-15.368-7.524-16.767" class="H"/><path d="M56.156 336.014c.28.18.6.058.733-.274s-.004-.75-.286-.93c-6.77-4.318-9.507-9.935-8.338-17.038.058-.358-.14-.728-.443-.827s-.597.1-.656.467c-1.272 7.74 1.772 13.982 9 18.603m4.338-6.132c-.3-.133-.453-.518-.344-.86s.44-.5.74-.376c4.434 1.972 8.406.382 12.044-4.917a.52.52 0 0 1 .815-.107c.252.23.293.654.094.945-3.93 5.73-8.414 7.52-13.348 5.313" fill="#99bae1"/><g class="G"><path d="M60.02 306.58c.314.063.577-.186.587-.558s-.237-.722-.55-.786c-5.088-1.02-8.5-5.135-10.292-12.455-.1-.365-.4-.613-.7-.557s-.473.397-.383.76c1.935 7.854 5.737 12.457 11.35 13.594m.748-40.528c.218.03.4-.146.405-.393s-.165-.47-.383-.5c-2.627-.36-4.38-2.302-5.314-5.92-.062-.24-.282-.397-.5-.347s-.328.282-.266.523c1.026 3.97 3.056 6.222 6.048 6.636m1.567-4.42c-.2-.072-.323-.317-.25-.548s.303-.36.514-.3c2.546.86 4.792-.163 6.82-3.158.135-.2.4-.25.568-.1s.213.414.077.615c-2.227 3.293-4.828 4.476-7.728 3.492m-1.985 35.927c-.304-.12-.46-.5-.352-.83s.443-.52.747-.402c4.496 1.757 8.5.025 12.168-5.347.2-.294.568-.357.823-.14s.3.632.1.926c-3.954 5.8-8.483 7.76-13.485 5.794"/><path d="M51.648 360.2c-.08.48.18 1 .583 1.16s1.34.113 1.42-.37c-.093-3.162.29-7.343 1.153-12.544 1.292-7.802 7.392-19.457 8.06-28.377.662-8.9-4.338-27.526-4.184-40.973.11-10.885 4.686-19.586 6.755-25.616 2.075-6.05 2.802-13.656 2.664-13.683-.166-.033-.946 7.76-3.086 13.59-2.134 5.81-6.013 13.182-7.105 22.214-2.04 16.842 4.65 34.115 2.807 45.154s-6.124 16.834-8.206 26.37c-1.386 6.35-1.672 10.705-.86 13.072"/></g><path d="M15.787 236.217c7.475-2.274 12.27 15.434 15.6 17.765s9.358 1.155 11.542 8.264-3.38 8.8-1.58 14.654 13.857 1.005 16.753 10.43-5.585 15.034-3.866 20.627 7.485 6.4 11.32 18.89S60.44 344.067 45.9 348.5s-25.482 2.757-29.316-9.723 11.924-16.436 10.888-23.768-12.414-8.036-14.903-16.135 12.218-12.572 10.185-19.2-14.808-6.015-16.882-12.765.34-8.805 4.704-13.124-2.263-15.292 5.21-17.566" class="D"/><g fill="#f58522"><path d="M44.677 342.145c-.275.168-.637.034-.8-.296s-.1-.735.185-.902c6.595-4.013 8.738-9.504 6.55-16.627-.1-.36.048-.725.352-.818s.642.122.752.48c2.4 7.776.007 13.88-7.03 18.16m-8.033-28.885c-.32.073-.616-.165-.665-.532s.17-.724.5-.797c5.16-1.182 8.24-5.412 9.3-12.852.052-.372.352-.636.67-.592s.533.38.48.753c-1.128 7.988-4.57 12.715-10.265 14.02M30.5 272.764c-.218.05-.42-.112-.454-.36s.115-.488.332-.538c2.623-.6 4.18-2.7 4.7-6.467.035-.25.24-.43.457-.4s.364.258.33.5c-.583 4.127-2.387 6.582-5.375 7.255m-1.986-4.42c-2.854 1.105-5.73.074-8.533-3.024-.17-.188-.176-.46-.013-.605s.433-.112.603.077c2.552 2.82 5.034 3.7 7.54 2.74.208-.08.466.037.578.26s.034.47-.174.552"/><use xlink:href="#Aa"/><use xlink:href="#Aa" x="4.02" y="31.858"/><path d="M52.527 366.05c.146.475-.07.96-.48 1.087s-1.423.012-1.57-.464c-.293-3.07-1.225-7.17-2.794-12.3-2.355-7.692-10.26-19.287-12.083-28.02s.916-27.222-1.067-40.668c-1.614-10.942-7.465-19.43-10.388-25.344s-4.706-13.513-4.57-13.554c.16-.048 2.024 7.734 4.983 13.428s7.92 12.885 10.285 21.93c4.406 16.836-.244 34.047 3.094 44.9s8.598 16.696 12.025 26.155c2.285 6.305 3.14 10.585 2.567 12.838m50.36-104.34c-6.9-3.652-13.757 10.484-17.263 11.73s-9.147-1.13-12.148 4.485 2.135 8.333-.336 12.956-13.454-2.28-17.433 5.166 3.468 14.192 1.107 18.6-8 3.813-13.28 13.67 2.75 15.967 16.174 23.07 24.16 8.152 29.428-1.706-9.388-16.836-7.464-22.904 12.957-4.1 16.377-10.5-10.16-13.582-7.366-18.8 15.004-1.8 17.853-7.143.787-7.647-2.862-12.35 4.113-12.633-2.8-16.284"/></g><g class="J"><path d="M61.693 346.207a.582.582 0 1 0 .753-.887c-5.835-4.947-7.2-10.154-4.194-15.78.15-.284.046-.633-.236-.783a.58.58 0 0 0-.784.243c-3.283 6.142-1.764 11.93 4.46 17.208m11.05-23.443a.581.581 0 1 0 .418-1.085c-4.854-1.868-7.1-5.94-6.76-12.358a.581.581 0 1 0-1.161-.06c-.363 6.892 2.147 11.44 7.504 13.503m11.187-33.212c.204.08.434-.023.513-.225a.39.39 0 0 0-.227-.507c-2.47-.94-3.608-2.983-3.438-6.225.012-.217-.157-.4-.376-.412s-.405.154-.417.37c-.187 3.56 1.133 5.926 3.945 6.998m2.923-3.11c2.466 1.72 5.175 1.487 8.037-.66.174-.13.208-.377.076-.552s-.38-.2-.554-.08c-2.606 1.954-4.945 2.155-7.1.646-.18-.125-.426-.082-.55.096s-.08.424.1.55M75.8 315.678c4.328 2.987 9.1 2.538 14.212-1.287.257-.193.3-.555.118-.808a.58.58 0 0 0-.813-.11c-4.722 3.54-8.96 3.938-12.846 1.256-.262-.18-.625-.116-.8.147a.57.57 0 0 0 .14.802m-7.92 26.476c4.328 2.987 9.1 2.538 14.212-1.287.257-.193.3-.555.118-.808a.58.58 0 0 0-.813-.11c-4.722 3.54-8.96 3.938-12.846 1.255-.262-.18-.625-.115-.8.147a.57.57 0 0 0 .14.802"/><path d="M51.115 364.976a.77.77 0 0 0 .325 1.044c.38.2 1.367.332 1.568-.042.67-2.575 2.085-5.888 4.244-9.94 3.24-6.078 12.3-14.252 15.17-21.345s2.566-23.61 6.176-34.72c2.937-9.04 9.64-15.008 13.2-19.43s6.237-10.55 6.113-10.615c-.15-.078-2.927 6.19-6.494 10.413s-9.248 9.28-12.67 16.518c-6.37 13.474-4.076 29.325-8.662 37.907S59.703 347.168 55.2 354.522c-2.996 4.902-4.36 8.387-4.094 10.454"/></g><g class="O"><path d="M28.188 357.47h46.68l-10.374 29.122H38.56z"/><path d="M29.642 356.562H72.48c1.32 0 2.388 1.063 2.388 2.375v4.35c0 1.312-1.07 2.375-2.388 2.375H29.642c-1.32 0-2.388-1.064-2.388-2.375v-4.35c0-1.312 1.07-2.375 2.388-2.375"/></g><path d="M424.62 224.282h1.388v-5.187c0-1.563 1.243-2.83 2.777-2.83s2.777 1.266 2.777 2.83v8.016c0 1.563-1.243 2.83-2.777 2.83a2.72 2.72 0 0 1-.463-.039c-.15.026-.305.04-.463.04h-3.24v7.544h-9.255V217.21c0-2.604 2.072-4.715 4.627-4.715s4.627 2.112 4.627 4.715v7.073z" class="G"/><g transform="translate(415 212)"><mask id="CA" class="B"><use xlink:href="#AS"/></mask><path fill="#e65725" mask="url(#CA)" d="M-3.875 28.846h23.91v-36.67h-23.91z"/></g><g transform="translate(408 234)"><mask id="CB" class="B"><use xlink:href="#AT"/></mask><path d="M1.232.14H22.57c.502 0 .908.424.908.947v2.84c0 .524-.406.947-.908.947H1.232c-.5 0-.908-.423-.908-.947v-2.84C.325.563.73.14 1.232.14" mask="url(#CB)" class="C"/></g></g></svg>