<svg xmlns="http://www.w3.org/2000/svg" xmlns:xlink="http://www.w3.org/1999/xlink" width="529" height="509"><defs><path id="A" d="M.18.044h467.708v116.893H.18z"/><path id="B" d="M0 .16h122.863v174.507H0z"/><path id="C" d="M.046.326h134.68V200.3H.046z"/></defs><g fill="none" fill-rule="evenodd"><g transform="translate(61)"><mask id="D" fill="#fff"><use xlink:href="#A"/></mask><path d="M1.875 116.308C4.138 105.2 12.15 96.47 21.29 90.333c12.456-8.366 27.3-12.78 41.998-14.996 20.07-3.027 40.457-1.143 60.632-.47l65.472 1.837 196.2 3.896c19.033-.147 38.9-1.695 56.305-10.095 12.405-5.987 26.124-16.956 25.99-32.156-.134-15.182-13.62-26.75-25.905-33.258-3.732-1.977-7.624-3.62-11.612-4.995-1.06-.365-1.515 1.32-.462 1.684 14.536 5 31.926 15.365 35.655 31.63 3.71 16.188-10.674 28.645-23.566 35.107-17.59 8.817-37.945 10.244-57.285 10.343-21.285.11-42.6-.813-63.88-1.248l-129.12-2.6-65.01-1.8c-19.818-.65-39.896-2.56-59.654-.136-14.547 1.784-29.17 5.588-42 12.882-9.49 5.395-18.415 13.062-22.803 23.326A33.83 33.83 0 0 0 .2 115.844c-.224 1.097 1.45 1.566 1.675.464" fill="#231f20" mask="url(#D)"/></g><path d="M61.98 287h-.002C28.293 286.992.99 259.594 1 225.805l.013-50.642C1.02 141.376 28.334 113.993 62.02 114h.002c33.686.008 60.988 27.406 60.98 61.195l-.013 50.642c-.008 33.787-27.322 61.17-61.006 61.163" fill="#fefefe"/><g transform="translate(0 114)"><mask id="E" fill="#fff"><use xlink:href="#B"/></mask><path d="M61.398 172.905c-4.717.15-9.582-.58-14.154-1.706a58.88 58.88 0 0 1-13.135-4.947c-8.184-4.263-15.38-10.438-20.826-17.937a60.77 60.77 0 0 1-10.777-25.848c-.783-4.786-.778-9.58-.777-14.408l.01-37.726c.001-3.586-.092-7.19.055-10.775.39-9.562 3.073-18.976 7.783-27.284 4.573-8.066 10.997-15.036 18.652-20.206 7.775-5.25 16.765-8.643 26.063-9.744 9.517-1.127 19.236.037 28.21 3.44 8.654 3.28 16.492 8.657 22.766 15.5 6.304 6.875 10.978 15.227 13.536 24.23 1.73 6.09 2.305 12.287 2.304 18.595l-.012 48.34c-.004 8.227-1.573 16.413-4.802 23.98-3.653 8.562-9.272 16.205-16.312 22.24a59.46 59.46 0 0 1-24.654 12.612 59.73 59.73 0 0 1-13.927 1.645c-1.11.002-1.114 1.745 0 1.743 9.74-.017 19.392-2.338 28.06-6.827 8.335-4.315 15.615-10.583 21.22-18.15 5.707-7.703 9.6-16.77 11.22-26.247.864-5.028.923-10.052.924-15.128l.01-38.388c.001-3.872.122-7.778-.117-11.645-.598-9.683-3.454-19.17-8.334-27.533-4.767-8.17-11.4-15.187-19.242-20.403-8.02-5.335-17.25-8.676-26.79-9.772C58.7-.552 48.78.674 39.7 4.153a61.73 61.73 0 0 0-23.169 15.689c-6.455 6.98-11.284 15.448-13.982 24.6C.675 50.8.014 57.31.012 63.916L0 112.51c.003 8.778 1.8 17.467 5.346 25.485C9.16 146.624 15 154.345 22.2 160.37c7.316 6.115 16 10.507 25.262 12.67 4.504 1.053 9.302 1.753 13.937 1.606 1.11-.036 1.114-1.78 0-1.743" fill="#231f20" mask="url(#E)"/></g><path fill="#fefefe" d="M2 167l120 1"/><path d="M1.84 167.794L122.16 169c1.12.01 1.12-1.78 0-1.792L2.045 166.004c-.068.001-.136-.001-.204-.002-1.12-.01-1.12 1.78 0 1.792" fill="#231f20"/><path fill="#fefefe" d="M62 115l-1 52"/><path d="M61.408 114.835l-.04 5.108-.355 46.22c-.01 1.114 1.57 1.115 1.578 0l.395-51.33c.008-1.113-1.57-1.114-1.578 0" fill="#231f20"/><path d="M52.933 334.58C27.47 320.88 11.756 292.64 4.628 264.52c-2.633-10.386-3.884-21.418-.882-31.76.3-1.036.773-2.025 1.448-2.865 4.268-5.317 11.29-.804 14.102 4.353 2.53 4.64 7.856 17.068 11.158 21.188 4.495 5.6 13.684 7.515 18.352 2.825 4.157-4.176 5.94-16.903-.5-29-9.285-22.104-26.015-33.872-29.5-52.878-1.908-10.405-.383-24.99 10.067-26.302 7.054-.885 12.698 5.554 16.65 11.49 11.8 17.728 34.405 46.606 41.27 66.806 1.403 4.128 7.392 3.434 7.83-.905 1.387-13.777-31.336-48.89-13.085-54.694a.17.17 0 0 1 .051-.008c1.566.001 2.985.903 4.204 1.89 10.934 8.868 28.048 38.196 35.71 49.395 2.98 4.355 9.743 2.608 10.228-2.655l-12.085-24.733a28.36 28.36 0 0 1-2.15-7.413c-.656-4.413.006-9.16 1.517-10.252 6.154-4.44 11.215 4.712 14.384 11.29 0 0 14.68 36.247 18.84 30.58s-9.502-36.99 3.563-31.917 19.597 35.046 19.597 46.756c0 0 3.927 33.404-.502 63.97-3.8 26.228-24.278 47.108-50.44 50.525-18.33 2.393-42.555-.042-71.52-15.627" fill="#fefefe"/><path d="M53.316 333.933c-18.12-9.797-31.074-26.843-39.52-45.37-4.412-9.68-7.883-20.02-9.836-30.495-1.15-6.16-1.635-12.52-.827-18.756.197-1.525.48-3.04.842-4.536.33-1.37.664-2.77 1.463-3.952 1.3-1.93 3.425-2.856 5.694-2.31 4.222 1.017 6.692 4.814 8.498 8.46l5.695 11.663c1.73 3.37 3.505 7.058 6.497 9.494 3.32 2.703 7.778 4.175 12.045 3.488 9.06-1.46 10.152-12.728 9.21-20.09-.73-5.7-3.052-10.72-5.466-15.85-2.268-4.82-5.007-9.397-7.978-13.81-5.278-7.844-11.45-15.175-15.806-23.612-3.954-7.658-5.928-16.532-4.578-25.138.57-3.638 1.78-7.51 4.588-10.045 3.23-2.918 7.93-2.903 11.596-.837 4.293 2.42 7.235 6.62 9.928 10.628l7.49 10.8 17.296 25.17c5.218 8.045 10.3 16.328 14.06 25.18.39.915.757 1.84 1.106 2.77.347.925.592 1.945 1.092 2.8.854 1.463 2.427 2.346 4.107 2.375 1.632.027 3.232-.765 4.158-2.12.773-1.13.924-2.52.856-3.856-.13-2.54-.945-5.02-1.87-7.367-1.184-3.002-2.622-5.898-4.11-8.757-3.233-6.205-6.8-12.25-9.647-18.655-1.175-2.652-2.24-5.41-2.784-8.27-.383-2-.523-4.304.43-6.185a5.74 5.74 0 0 1 1.837-2.11c.45-.315.94-.582 1.44-.798.243-.105.522-.244.783-.292.664-.123 1.49.273 2.067.588 1.515.824 2.826 2.124 4.044 3.334 1.257 1.25 2.446 2.57 3.596 3.918 5.734 6.724 10.68 14.13 15.528 21.512l13.012 20.143c.942 1.412 1.85 2.842 3.422 3.618 1.557.77 3.406.9 5.048.317 1.657-.587 3.05-1.792 3.773-3.412.414-.925.76-1.997.31-2.943l-10.5-21.483c-.78-1.6-1.606-3.17-2.202-4.85-1.017-2.87-1.6-5.91-1.55-8.96.03-1.798.04-4.905 1.783-5.985 4.014-2.482 7.477 2.04 9.41 5.08 2.425 3.81 4.02 7.886 5.814 11.998 2.386 5.466 4.888 10.903 7.765 16.128 1.285 2.332 2.64 4.652 4.28 6.752.93 1.192 2.254 2.875 3.903 2.98 1.708.107 2.5-1.678 2.742-3.106.416-2.472.03-5.06-.33-7.516-.86-5.857-2.573-11.745-2.576-17.697-.001-1.567.12-3.963 1.496-4.6.6-.277 1.526-.198 2.348.037 1.35.386 2.602 1.086 3.727 1.92 2.713 2.007 4.756 4.865 6.434 7.76 2 3.45 3.54 7.153 4.825 10.925 2.42 7.1 4.12 14.617 4.72 22.116.126 1.58.122 3.158.285 4.734.245 2.36.444 4.725.618 7.092.698 9.45.986 18.94.816 28.415-.106 5.97-.4 11.936-.95 17.88-.5 5.43-1.096 10.897-2.502 16.177-4.717 17.718-17.723 32.757-34.76 39.506-8.063 3.194-16.69 4.27-25.313 4.315-9.38.05-18.723-1.265-27.792-3.64-11.01-2.884-21.56-7.302-31.583-12.68-.986-.53-1.865.977-.877 1.507 10.426 5.594 21.432 10.18 32.907 13.1 9.086 2.306 18.465 3.562 27.844 3.465 8.693-.1 17.416-1.216 25.53-4.476 8.463-3.4 16.1-8.753 22.19-15.566 6.107-6.83 10.645-15.025 13.2-23.842 1.474-5.107 2.14-10.385 2.687-15.662.624-6.037.973-12.102 1.124-18.17.242-9.8-.018-19.615-.71-29.392l-.66-7.76c-.155-1.518-.168-3.03-.278-4.55-.543-7.52-2.184-15.052-4.54-22.2-2.3-6.953-5.428-14.633-11.076-19.545-1.95-1.696-4.652-3.46-7.346-3.386-2.026.056-3.304 1.496-3.776 3.384-.607 2.434-.302 5.096.01 7.548.407 3.177 1.02 6.322 1.588 9.472.508 2.824 1.048 5.68 1.14 8.557.03.985.03 1.998-.224 2.95-.11.414-.17.593-.397.933-.086.128.003.026-.18.2.117-.11-.245.098-.035.035-.268.08.074.038-.178.037-.178-.001.054.02-.001.01-.07-.014-.142-.028-.2-.05-.18-.06.004.03-.234-.1-.15-.082-.294-.174-.433-.274-.534-.385-1.24-1.18-1.74-1.81-1.632-2.044-2.947-4.363-4.206-6.65-2.925-5.31-5.465-10.84-7.884-16.4-1.848-4.246-3.506-8.495-6.16-12.44-2.064-3.068-5.338-6.877-9.486-5.797-1.905.496-3.196 1.65-3.806 3.512-.815 2.488-.815 5.335-.517 7.91.686 5.904 3.507 10.9 6.062 16.128l7.718 15.792c.174.356.638.965.668 1.367.001.012.016.023.017.036-.032-.338-.136-.05-.2.042-.23.383-.264.938-.492 1.35-.435.787-1.083 1.41-1.87 1.84-1.488.812-3.357.785-4.8-.116-1.36-.85-2.18-2.493-3.045-3.805l-13.448-20.8c-4.84-7.308-9.8-14.655-15.61-21.23-1.145-1.296-2.332-2.56-3.597-3.738-1.488-1.387-3.165-2.916-5.19-3.387-2.413-.56-5.157 1.41-6.43 3.383-2.76 4.28-.63 10.293 1.084 14.54 2.626 6.503 6.182 12.586 9.47 18.76 1.577 2.96 3.13 5.942 4.46 9.023 1.03 2.382 2.01 4.917 2.334 7.5.145 1.158.23 2.526-.386 3.564-.798 1.345-2.59 1.865-4 1.26-1.74-.74-2.058-2.97-2.677-4.552-.8-2.018-1.665-4.002-2.597-5.957-4.303-9.023-9.696-17.512-15.23-25.8-5.597-8.4-11.48-16.58-17.256-24.846-2.52-3.607-4.86-7.38-7.536-10.87-2.918-3.805-6.717-7.717-11.594-8.71-3.88-.79-7.96.447-10.623 3.412-2.575 2.866-3.772 6.745-4.305 10.498-1.23 8.674.58 17.493 4.462 25.277 4.267 8.556 10.49 15.95 15.83 23.823 3.007 4.433 5.79 9.023 8.104 13.862 2.56 5.357 5.03 10.692 5.584 16.687.394 4.267.13 9.064-1.952 12.907-1.967 3.633-6.027 4.858-9.935 4.155-4.225-.76-7.638-3.283-9.886-6.897-2.294-3.687-4.14-7.663-6.018-11.572-1.67-3.473-3.122-7.402-5.672-10.338-2.674-3.078-7.272-5.812-11.313-3.697-2.264 1.186-3.482 3.488-4.127 5.87-.8 2.954-1.267 6-1.466 9.054-.407 6.253.346 12.544 1.654 18.654 2.215 10.35 5.742 20.503 10.25 30.065 4.4 9.352 9.935 18.216 16.725 26.015 6.442 7.398 14.07 13.766 22.7 18.43.985.532 1.863-.974.877-1.507" fill="#231f20"/><g transform="translate(28 338)"><mask id="F" fill="#fff"><use xlink:href="#C"/></mask><path fill="#231f20" mask="url(#F)" d="M134.724 170.954H.046L26.563.326h94.904z"/></g></g></svg>