<svg xmlns="http://www.w3.org/2000/svg" xmlns:xlink="http://www.w3.org/1999/xlink" width="668" height="419"><g fill-rule="evenodd"><path d="M414.23 25h147.54c17.8 0 32.23 14.93 32.23 33.344v309.312C594 386.07 579.57 401 561.77 401H414.23c-17.8 0-32.23-14.93-32.23-33.344V58.344C382 39.928 396.43 25 414.23 25" fill="#4c4c4c"/><path fill="#fff" d="M390 353h199V73H390z"/><path d="M489 363c7.18 0 13 5.82 13 13s-5.82 13-13 13-13-5.82-13-13 5.82-13 13-13" fill="#efeeee"/><path d="M431.732 48H543.27c1.508 0 2.73 1.12 2.73 2.5s-1.223 2.5-2.73 2.5H431.732c-1.508 0-2.73-1.12-2.73-2.5s1.223-2.5 2.73-2.5" fill="#e0e0e0"/><path d="M399.235 99h176.53c3.443 0 6.235 2.857 6.235 6.382v68.237c0 3.524-2.792 6.38-6.235 6.38h-176.53c-3.443 0-6.235-2.857-6.235-6.38V105.38c0-3.525 2.792-6.382 6.235-6.382" fill="#e6e6e6"/><path d="M528.54 109l-48.407 32.53-40.013-14.113L393 163.6v11.293c0 3.378 2.657 6.117 5.936 6.117h177.128c3.278 0 5.936-2.74 5.936-6.117v-36.435L528.54 109z" fill="#c9c9c9"/><path d="M422.424 188h74.153c2.443 0 4.424 2.238 4.424 5s-1.98 5-4.424 5h-74.153c-2.443 0-4.424-2.238-4.424-5s1.98-5 4.424-5m-1 13h131.17c2.438 0 4.414 2.24 4.414 5s-1.976 5-4.414 5h-131.17c-2.438 0-4.414-2.238-4.414-5s1.976-5 4.414-5" fill="#e4e4e4"/><path d="M404 188c5.523 0 10 4.7 10 10.5s-4.477 10.5-10 10.5-10-4.7-10-10.5 4.477-10.5 10-10.5" fill="#e0f5ff"/><path d="M399.235 225h176.53c3.443 0 6.235 2.857 6.235 6.382v68.236c0 3.525-2.792 6.382-6.235 6.382h-176.53c-3.443 0-6.235-2.858-6.235-6.382V231.38c0-3.525 2.792-6.382 6.235-6.382" fill="#e7e5e5"/><path d="M446.458 235l48.4 32.53 38.617-18.007L582 289.6v11.293c0 3.378-2.658 6.117-5.936 6.117H398.936c-3.278 0-5.936-2.738-5.936-6.116v-36.435L446.458 235z" fill="#c9c9c9"/><path d="M422.424 314h74.153c2.443 0 4.424 2.238 4.424 5s-1.98 5-4.424 5h-74.153c-2.443 0-4.424-2.24-4.424-5s1.98-5 4.424-5m-1 13h131.17c2.438 0 4.414 2.238 4.414 5s-1.976 5-4.414 5h-131.17c-2.438 0-4.414-2.238-4.414-5s1.976-5 4.414-5M404 315c5.523 0 10 4.7 10 10.5s-4.477 10.5-10 10.5-10-4.7-10-10.5 4.477-10.5 10-10.5" fill="#e4e4e4"/><path d="M491 25.764L518 26V13.022C518 5.83 512.32 0 505.312 0H491v25.764z" fill="#d3d3d3"/><path d="M462.458 313H344V43.068C344 19.283 362.597 0 385.538 0H504s-12.087.483-12.087 26.358V269.93C491.91 293.717 485.4 313 462.458 313" fill="#f5f5f5"/><path d="M465 312H328.073c-17.8 0-19.072-15.213-19.072-33.98h143.005C452.007 311.09 465 312 465 312" fill="#d3d3d3"/><g fill="#e2e2e2"><path d="M355.914 129h120.172c2.714 0 4.914 2.223 4.914 4.965v45.07c0 2.742-2.2 4.965-4.914 4.965H355.914c-2.714 0-4.914-2.223-4.914-4.965v-45.07c0-2.743 2.2-4.965 4.914-4.965"/><use xlink:href="#B"/></g><path d="M394.462 200l-15.88 21.686-13.126-9.408L350 236.392v7.53c0 2.25.872 4.078 1.948 4.078h58.105c1.075 0 1.947-1.826 1.947-4.078v-24.29L394.462 200z" fill="#fff"/><use xlink:href="#B" x="70" fill="#e2e2e2"/><path d="M464.463 200l-15.88 21.686-13.126-9.408L420 236.392v7.53c0 2.25.872 4.078 1.948 4.078h58.105c1.076 0 1.947-1.826 1.947-4.078v-24.29L464.463 200z" fill="#fff"/><g fill="#e2e2e2"><path d="M391.05 42h51.817c1.707-.02 3.1 1.085 3.133 2.466s-1.342 2.515-3.05 2.534h-51.9c-1.707-.02-3.073-1.153-3.05-2.534.023-1.354 1.375-2.448 3.05-2.466m-21.03 9h90.96c1.7.02 3.043 1.153 3.02 2.534-.022 1.354-1.36 2.448-3.02 2.466h-90.96c-1.7-.02-3.042-1.153-3.02-2.534.023-1.354 1.362-2.448 3.02-2.466"/><use xlink:href="#C"/><use xlink:href="#C" y="15"/><path d="M355.037 100h118.926c1.7.02 3.06 1.153 3.037 2.534-.023 1.354-1.37 2.448-3.037 2.466H355.037c-1.7-.02-3.06-1.153-3.037-2.534.023-1.354 1.37-2.448 3.037-2.466m.973 11h93.982c1.684.02 3.032 1.153 3 2.534-.023 1.354-1.356 2.448-3 2.466H356c-1.684-.02-3.03-1.153-3-2.534.023-1.354 1.357-2.448 3-2.466m-.973 144h118.926c1.7.02 3.06 1.153 3.037 2.534-.023 1.354-1.37 2.448-3.037 2.466H355.037c-1.7-.02-3.06-1.153-3.037-2.534.023-1.355 1.37-2.448 3.037-2.466m.973 10h93.982c1.684.02 3.032 1.153 3 2.534-.023 1.354-1.356 2.448-3 2.466H356c-1.684-.02-3.03-1.153-3-2.534.023-1.354 1.357-2.447 3-2.466m2.176-192h12.63c2.864 0 5.186 2.515 5.186 5.617v11.765c0 3.102-2.322 5.617-5.186 5.617h-12.63c-2.864 0-5.186-2.515-5.186-5.617V78.617c0-3.103 2.322-5.617 5.186-5.617"/></g><path fill="#fff" d="M403 172v-31l30 14.9z"/><path d="M334 396c184.463 0 334 5.15 334 11.5S518.463 419 334 419 0 413.85 0 407.5 149.537 396 334 396" fill="#fac9ad"/><path d="M332.034 135.237l-.01.01c-.01.01-.02.03-.03.04-.113.192-.246.363-.38.514-.133.182-.288.343-.43.494l-.452.433c-.76.675-1.542 1.158-1.994 1.692-.565.654-.493 1.914-.216 3.142a19 19 0 0 0 1.079 3.254s-10.308 10.657-14.717 1.4l-2.857-5.35c-.01-.01-.02-.01-.02-.01-2.63-4.12-4.696-4.955-9.23-8.652-6.033-4.916-4.296-11.967 1.418-17.255 2.796-2.588 6.783-3.908 10.627-3.958 4.04-.07 7.924 1.25 10.123 3.958l.688.907c1.418 1.894 4.676 6.466 6.3 10.606.36.897.637 1.783.802 2.61.596 2.982.123 4.855-.7 6.154" fill="#f27460"/><path d="M320.708 122.138s4.355 6.23 2.595 6.677c-1.75.448-6.804-.26-7.158 3.906-.355 4.156 5.68 3.406 1.698 6.73-3.813 3.188-7.335 2.5-7.637 2.448-.01-.01-.02-.01-.02-.01-2.667-4.26-4.762-5.124-9.357-8.947-6.116-5.084-4.355-12.375 1.438-17.844 2.834-2.677 6.877-4.04 10.774-4.094 4.095-.073 8.033 1.292 10.263 4.094l.698.938c-.104 1.03-.396 2.135-1 3.24-.5.98-1.25 1.948-2.303 2.865" fill="#190e0d"/><path d="M393.1 117.072s3.262-11.407-2.632-10.37c0 0-2.238-5.03-4.46-1.614 0 0-2.63-7.47-5-7.073s.04 3.44 1.618 8.686l2.782 9.08 3.9 3.217 3.812-1.928zM287.684 236s-9.772 6.445-9.684 11.47 10.58 1.573 13.696-2.02c0 0 3.233 3.058 6.013 2.02s.313-3.33-.392-5.708.585-4.252 1.1-5.15c0 0-7.634-5.467-10.742-.612" fill="#f27460"/><path d="M322.378 381.185s-7.378 15.693-4.42 17S329.546 404.427 330 407h-35l4.302-24.956c7.77-6.32 15.497-9.27 23.077-.858" fill="#3e130d"/><path d="M358 278.627s-1.954 15.038-7.838 38.95c-1.382 5.615-6.882 15.328-8.448 21.23-5.318 20.037-12.447 39.97-21.204 49.003 0 0-20.12.424-21.433 0s14.463-58.857 16.687-87.154l5.334-73.297s9.844-17.57 18.894-1.768S358 278.627 358 278.627" fill="#c85628"/><path d="M381 359v23.657L389.515 408H427s-1.834-4.476-8.304-6.375-8.755-4.39-10.692-10.047-3.143-10.633-3.143-10.633L381 359z" fill="#3e130d"/><path d="M327 224.736l29.403 90.824c8.556 24.24 26.73 69.816 27.598 72.286s18.9.28 23.94-.217c5.034-.498-.25-24.47-4.252-39.344L368.977 223.14s-37.25-21.592-41.976 1.596" fill="#e86a3c"/><path d="M392.016 155.56c-4.642 23.982-7.62 20.53-40.26 12.895l9.657 30.68c2.988 9.776 5.635 18.927 6.152 22.224 1.303 8.226-3.08 6.812-15.81 5.668s-21.98 2.007-27.74 4.17c-5.75 2.163-5.645 2.122-6.824-11.73-1.117-13.31-7.196-30.908-9.325-37.51 0 0-4.074 15.298-7 32.26-1.334 7.738-2.44 15.828-2.802 22.973 0 0-5.542 4.71-13.99-1.05 0 0-1.23-31.677 6.865-61.815 7.98-29.67 26.19-31.854 48.552-28.776a42.08 42.08 0 0 1 1.044.145c22.84 3.287 32.713 10.067 36.063 2.725s6.72-25.646 7.547-32.582c0 0 .62-.156 1.572-.333 2.367-.426 6.813-1.01 8.788.333 0 0 2.16 15.755-2.482 39.727" fill="#fbcaae"/><path fill="#2d327e" d="M38 320h4v-89h-4z"/><path d="M92 342H81.975s-10.724 5.554-10.97 7.593 8.878 28.593 10.97 23.838 1.785-12.42 1.785-12.42l4.133-2.88L92 342zm21.05 29.202l-7.92 3.63-5.95 19.67c-.652 2.154.53 4.435 2.663 5.138 7.612 2.667 24.2 8.383 27.088 8.357 3.757-.035-3.4-7.416-5.83-10.723-4.062-5.527-.466-15.92-.466-15.92L119.975 371l-6.925.202z" fill="#e86a3c"/><path d="M89.623 287.267L100.686 282s59.574 21.45 61.132 33.807-6.714 18.733-31.403 27.685S87.927 358 87.927 358s-5.595-8.907-5.927-16.375l27.365-16.79c4.918-3.47-19.742-37.57-19.742-37.57" fill="#190e0d"/><path d="M63.454 273.017l-3.848 5.173s-7.147 29.7 27.63 39.56 39.853 12.15 33.79 20.547c-8.745 12.114-16.42 41.334-16.42 41.334s3.438 5.532 20.193 8.37c0 0 26.916-44.992 30.016-61.527s-33.834-34.14-52.972-44.22-38.4-9.236-38.4-9.236" fill="#3e130d"/><path d="M148.422 260.686s2.104-1.8 11.336.432 11.89 7 11.115 7.65-19.86-.177-21.802-.884-.65-7.198-.65-7.198" fill="#fbcaae"/><path d="M117.2 221l3.8 2.16-.987 40.168c-.125 3.03-16.013-5.187-16.013-5.187L117.2 221z" fill="#b64526"/><path d="M114.64 245.915v.01c-.02.06-.052.112-.083.174-2.116 4.33-4.044 8.863-5.71 13.182-2.96 7.648-5.148 14.622-6.305 18.502l-.917 3.217c-9.327-.54-42.625-4.044-42.625-4.044 1.522-32.756 10.818-43.426 22-58.773 11.172-15.336 29.347-14.162 29.347-14.162h11.214s-.552 2.9-.427 7.433c.042 1.614.167 3.44.427 5.412 1.02 7.495.823 13.223-6.92 29.05" fill="#c85628"/><path d="M154.995 263.63c.062 2.552-.468 5.526-2.4 6.59-3.233 1.776-42.572 5.247-50.138 0s-14.915-34.16-15.455-46.132c-.55-11.972 18.77-17.323 22.7-5.35 0 0 2.15 17.137 4.968 28.045v.01c1.257 4.855 2.64 8.48 4.022 8.8 4.5 1.033 34.766 2.634 35.608 4.152.343.62.655 2.15.686 3.884" fill="#e86a3c"/><path d="M152.98 187.407c.125 3.117-.364 6.422-1.464 9.726-3.355 10.027-10.646 16.5-17.958 14.662-.706-.166-1.412-.426-2.12-.76-1.714-.8-3.76-.384-5.006 1.05l-.79.83c-1.527 1.62-3.085 3.346-3.47 4-.312.54-2.12-1.382-4.186-3.907-3.178-3.876-7-9.165-7-9.165s5.432-1.84 6.96-7.46c.322-1.206.478-2.577.353-4.146-.685-8.895.956-21.718 16.327-22.217 6.553-.208 11.414 2.193 14.478 6.09 2.4 3.045 3.708 6.993 3.864 11.306" fill="#fbcaae"/><path d="M151 188.25c-.84 1.225-2.377 1.308-3.997.906-2.864-.7-6.01-2.873-6.01-2.873s-4.785 7.847-6.705 4.974c-2.003-2.997-6.207-9.536-8.927-4.974-2.72 4.572 1.12 8.527 1.12 8.527-3.207 4.026-7.41 3.532-10.483 2.327.32-1.195.477-2.554.353-4.11-.685-8.815.955-21.523 16.317-22.018 6.55-.206 11.407 2.173 14.47 6.035 2.398 3.017 3.706 6.93 3.86 11.204" fill="#190e0d"/><g fill="#f58522"><path d="M137 274h111v-3H137z"/><path d="M238 407h2V273h-2zm-95 0h2V273h-2z"/></g><path d="M214.186 217.004c.43.1.48.252.57.503l10.925 39.564c1.623 6.052-3.162 12.88-9.897 12.93H193.6c-.746-.062-.85-1.317 0-1.387h22.18c5.418-.04 10.067-5.552 8.557-11.18l-10.923-39.56c-.124-.654.1-.912.772-.87M188 270v2h-29.824c-1.464-.1-1.668-1.9 0-2H188z" fill="#828383"/><path d="M233.207 174c2.273.464-.866 4.556-2.808 7.98-13.398 23.62-21.768 50.173-26.05 76.987 0 0-.583 1.312-1.6.98-.887-.3-.813-1.5-.64-2.582 4.58-27.8 13.35-55.2 27.665-79.216 1.01-1.692 1.78-4.22 3.432-4.146" fill="#190e0d"/><path d="M101 320c0-1.856-.782-3.637-2.175-4.95s-3.28-2.05-5.25-2.05H45.427c-1.97 0-3.86.737-5.25 2.05S38 318.143 38 320s.782 3.638 2.175 4.95 3.28 2.05 5.25 2.05h48.148c1.97 0 3.858-.738 5.25-2.05S101 321.856 101 320zm-51.07-42.103a7.26 7.26 0 0 0 4.72-3.002 7.5 7.5 0 0 0 1.251-5.519l-6.453-39.2c-.32-1.936-1.38-3.663-2.95-4.803s-3.522-1.597-5.424-1.273-3.6 1.404-4.72 3.002-1.57 3.583-1.25 5.52l6.453 39.2a7.42 7.42 0 0 0 2.951 4.802 7.17 7.17 0 0 0 5.424 1.273z" fill="#f58522"/><g fill="#190e0d"><path d="M96 391a8 8 0 1 1 0 16 8 8 0 1 1 0-16"/><path d="M89.77 378.066c3.785.075 7.158 3.36 7.23 7.402v14.18s-.33 2.4-2.04 3.124c-1.983.84-4.477-.734-4.568-3.124v-14.073c0-.4-.324-.732-.696-.744-15.055-.297-30.117 0-45.176 0-.395 0-.724.322-.726.743v10.215s-1.69 4.637-4.804 3.013c-1.074-.56-1.755-1.75-1.803-3.013 0-5.814-1.198-12.522 2.475-15.844 1.3-1.176 3.005-1.845 4.76-1.878H89.77"/><path d="M63 390h9v-67h-9zm-23 1a8 8 0 1 1 0 16 8 8 0 1 1 0-16"/></g><path d="M628 367l-2.8 20.484-2.244 16.365c-.323 2.38-2.285 4.15-4.6 4.15h-33.733c-2.315 0-4.275-1.772-4.6-4.15L575 367h53z" fill="#3e130d"/><path d="M640.615 268.72c6.232 3.14 7.293 12.906 0 12.772l-1.093-.02c-2.207-.052-4.508-.134-6.62-.082-4.645.103-8.397.834-8.334 3.862.02.845.4 1.298 1.03 1.525 2.68 1.04 9.795-1.69 11.718 7.59.084.37.147.773.2 1.184 1.45 10.012-6.074 14.12-16.184 19.817l-.568.33c-2.953 1.658-6.106 3.47-9.31 5.613-14.48 9.682-8.407 39.613-8.407 39.613s-1.145.855-1.818-3.14c-.673-4.007-1.997-20.507-1.703-26.234.168-3.347-2.228-6.9-4.36-12.236-.673-1.68-1.314-3.543-1.85-5.634-.672-2.626-1.156-5.624-1.293-9.084-.514-13.554 5.54-20.527 11.57-23.41.2-.093.4-.175.6-.268a20.07 20.07 0 0 1 1.23-.474c6.58-2.287 5.244-5.016 2.953-8.642-2.302-3.626-.862-7.117 3.08-8.95 3.94-1.844 8.43-3.296 13.105-11.196 4.687-7.9 15.858-10.28 23.047-4.306 7.178 5.984-3.625 9.435-8.933 11.907-5.317 2.482-4.31 6.334 1.934 9.466" fill="#f58522"/><path d="M638.888 247.007l.11.112v.16c-.046.07-.055.086-.23.166-1.32.61-2.527 1.43-3.7 2.29-5.838 4.28-10.506 10.03-14.528 16.148-2.893 4.4-5.424 9.045-7.532 13.9-4.594 10.563-7.7 21.76-9.803 33.082-2.123 11.37-3.233 22.95-2.612 34.436.224 4.13.69 8.26 1.49 12.304l.032.162-.03.157c-.056.057-.057.057-.13.09h-.08c-.073-.03-.075-.03-.13-.088l-.03-.075c-2.046-10.236-2.052-20.825-1.105-31.308.986-10.914 3.062-21.758 6.116-32.3 2.56-8.834 5.75-17.493 10.315-25.436 3.784-6.582 8.216-12.822 13.723-17.992 2.258-2.12 4.676-4.113 7.405-5.523.182-.094.365-.185.553-.266 0 0 .076-.022.166-.004" fill="#fff"/><path d="M547.786 265.304c-1.726-1.53-6.665-6.767-7.02-16.88-.43-12.224 9.9-7.26 7.642 17.085 5.673 1.91 11.05 4.707 15.892 7.965 6.102 4.107 11.663 9 16.58 14.355.156-33.7 13.566-39.252 11.797-25.294-1.68 13.185-10.67 24.178-11.7 25.397 2.792 3.05 5.376 6.248 7.73 9.534 5.94 8.304 10.634 17.42 14.174 27.002-.03-3.82.422-16.747 7.68-23.15 8.575-7.566 16.395-8.13 12.337 4.593-3.717 11.662-17.417 18.45-19.676 19.5 3.266 9.057 5.502 18.512 6.8 28.074.408 3.053.748 6.122.837 9.2 0 0 .06.027-.074.237l-.207.09-.208-.08s-.09-.402-.11-.83c-.385-8.22-1.86-16.378-3.917-24.38-1.067-4.156-2.325-8.265-3.792-12.296-1.88 1.99-10.62 10.723-18.484 10.372-8.864-.396-13.522-3.73-1.622-9.336 10.042-4.73 17.713-2.5 19.868-1.687-4.902-13.257-12.004-25.667-21.586-36.2-.207.618-3.28 9.317-11.39 12.937-8.412 3.754-6.813-4.413-1.5-8.424 5.073-3.84 12.27-4.496 12.87-4.545-1.222-1.345-2.488-2.66-3.792-3.942-7.597-7.453-16.232-13.865-26.533-17.785a62.3 62.3 0 0 0-1.725-.629c.37 2.07 1.828 12.258-4.547 16.442-6.998 4.59-3.518-12.254 4.08-16.602-6.857-2.32-14.225-3.426-21.357-2.135-.556.1-1.104.21-1.644.37l-.237-.016c-.015-.012-.03-.026-.045-.038-1.333 1.585-9.93 11.49-20.43 16.188-11.392 5.093-5.106-18.72 20.32-16.43.074-.244.208-.247.208-.247 2.458-.745 5.146-.892 7.8-.898h.17c5.05.02 10.05.937 14.84 2.493" fill="#c85628"/><path fill="#9d2d21" d="M569 370h63v-12h-63z"/></g><defs ><path id="B" d="M353.365 192h55.27c1.86 0 3.365 1.548 3.365 3.458v48.084c0 1.9-1.506 3.458-3.365 3.458h-55.27c-1.86 0-3.365-1.548-3.365-3.458v-48.084c0-1.9 1.506-3.458 3.365-3.458"/><path id="C" d="M383.02 73h90.96c1.69.02 3.043 1.153 3.02 2.534-.022 1.354-1.36 2.448-3.02 2.466h-90.96c-1.69-.02-3.043-1.153-3.02-2.534.023-1.354 1.36-2.448 3.02-2.466"/></defs></svg>