<?xml version="1.0" encoding="UTF-8"?>
<svg width="84px" height="68px" viewBox="0 0 84 68" version="1.1" xmlns="http://www.w3.org/2000/svg" xmlns:xlink="http://www.w3.org/1999/xlink">
    <!-- Generator: Sketch 62 (91390) - https://sketch.com -->
    <title>Group 29</title>
    <desc>Created with Sketch.</desc>
    <defs>
        <polygon id="path-1" points="0.00014159292 0.316460177 83.472708 0.316460177 83.472708 57.648 0.00014159292 57.648"></polygon>
        <polygon id="path-3" points="0 79.2920354 83.4732743 79.2920354 83.4732743 0.316460177 0 0.316460177"></polygon>
    </defs>
    <g id="Page-1" stroke="none" stroke-width="1" fill="none" fill-rule="evenodd">
        <g id="03-Services---Creative-Services-LP" transform="translate(-179.000000, -2317.000000)">
            <g id="HIW" transform="translate(0.000000, 1374.000000)">
                <g id="Steps" transform="translate(179.000000, 614.000000)">
                    <g id="2" transform="translate(0.000000, 329.000000)">
                        <g id="Group-30">
                            <g id="Group-29" transform="translate(0.000000, 0.391504)">
                                <g id="Group-5">
                                    <mask id="mask-2" fill="white">
                                        <use xlink:href="#path-1"></use>
                                    </mask>
                                    <g id="Clip-4"></g>
                                    <path d="M2.43129204,55.2168496 L81.0415575,55.2168496 L81.0415575,4.39136283 C81.0415575,3.95454867 80.8695221,3.54038938 80.5587257,3.22746903 C80.2493451,2.91879646 79.8358938,2.74746903 79.3976637,2.74746903 L4.07660177,2.74746903 C3.63837168,2.74746903 3.22421239,2.91879646 2.91129204,3.23100885 C2.60332743,3.54038938 2.43129204,3.95454867 2.43129204,4.39136283 L2.43129204,55.2168496 Z M83.472708,57.648 L0.00014159292,57.648 L0.00014159292,4.39136283 C0.00014159292,3.30676106 0.423504425,2.28375221 1.19235398,1.5120708 C1.96757522,0.740389381 2.99058407,0.316318584 4.07660177,0.316318584 L79.3976637,0.316318584 C80.4858053,0.316318584 81.5095221,0.740389381 82.2790796,1.51065487 C83.0500531,2.28375221 83.472708,3.30676106 83.472708,4.39136283 L83.472708,57.648 Z" id="Fill-3" fill="#333333" mask="url(#mask-2)"></path>
                                </g>
                                <mask id="mask-4" fill="white">
                                    <use xlink:href="#path-3"></use>
                                </mask>
                                <g id="Clip-7"></g>
                                <path d="M7.67575221,49.9723894 L75.7982301,49.9723894 L75.7982301,7.99079646 L7.67575221,7.99079646 L7.67575221,49.9723894 Z M5.24460177,52.4035398 L78.2293805,52.4035398 L78.2293805,5.55964602 L5.24460177,5.55964602 L5.24460177,52.4035398 Z" id="Fill-6" fill="#333333" mask="url(#mask-4)"></path>
                                <path d="M2.43129204,57.6480708 L2.43129204,63.1057699 C2.43129204,63.5461239 2.6019115,63.9588673 2.912,64.2682478 C3.22279646,64.5790442 3.63624779,64.7496637 4.07660177,64.7496637 L79.3976637,64.7496637 C79.8380177,64.7496637 80.2507611,64.5804602 80.5580177,64.2703717 C80.8709381,63.9588673 81.0415575,63.5461239 81.0415575,63.1057699 L81.0415575,57.6480708 L2.43129204,57.6480708 Z M79.3976637,67.1808142 L4.07660177,67.1808142 C2.98704425,67.1808142 1.96261947,66.7574513 1.19376991,65.9878938 C0.424212389,65.2197522 0.00014159292,64.1967434 0.00014159292,63.1057699 L0.00014159292,55.2169204 L83.472708,55.2169204 L83.472708,63.1057699 C83.472708,64.1967434 83.0486372,65.2197522 82.2783717,65.9893097 C81.5137699,66.7567434 80.4893451,67.1808142 79.3976637,67.1808142 L79.3976637,67.1808142 Z" id="Fill-8" fill="#333333" mask="url(#mask-4)"></path>
                                <path d="M26.7433628,33.1688496 L45.9235398,33.1688496 L45.9235398,13.9886726 L26.7433628,13.9886726 L26.7433628,33.1688496 Z M24.3122124,35.6 L48.3546903,35.6 L48.3546903,11.5575221 L24.3122124,11.5575221 L24.3122124,35.6 Z" id="Fill-9" fill="#F36F21" mask="url(#mask-4)"></path>
                                <polygon id="Fill-10" fill="#333333" mask="url(#mask-4)" points="56.7292035 46.4056637 59.160354 46.4056637 59.160354 43.9745133 56.7292035 43.9745133"></polygon>
                                <path d="M40.2895575,46.4056637 L43.0293805,46.4056637 L43.0293805,43.9745133 L40.2895575,43.9745133 L40.2895575,46.4056637 Z M45.7692035,46.4056637 L48.5090265,46.4056637 L48.5090265,43.9745133 L45.7692035,43.9745133 L45.7692035,46.4056637 Z M51.2495575,46.4056637 L53.9893805,46.4056637 L53.9893805,43.9745133 L51.2495575,43.9745133 L51.2495575,46.4056637 Z" id="Fill-11" fill="#333333" mask="url(#mask-4)"></path>
                                <polygon id="Fill-12" fill="#333333" mask="url(#mask-4)" points="35.1178761 46.4056637 37.5497345 46.4056637 37.5497345 43.9745133 35.1178761 43.9745133"></polygon>
                                <path d="M35.1178761,30.2746903 L37.5497345,30.2746903 L37.5497345,27.5348673 L35.1178761,27.5348673 L35.1178761,30.2746903 Z M35.1178761,35.7550442 L37.5497345,35.7550442 L37.5497345,33.0152212 L35.1178761,33.0152212 L35.1178761,35.7550442 Z M35.1178761,41.2346903 L37.5497345,41.2346903 L37.5497345,38.4948673 L35.1178761,38.4948673 L35.1178761,41.2346903 Z" id="Fill-13" fill="#333333" mask="url(#mask-4)"></path>
                                <polygon id="Fill-14" fill="#333333" mask="url(#mask-4)" points="35.1178761 24.7950442 37.5497345 24.7950442 37.5497345 22.3638938 35.1178761 22.3638938"></polygon>
                                <path d="M40.2895575,24.7950442 L43.0293805,24.7950442 L43.0293805,22.3638938 L40.2895575,22.3638938 L40.2895575,24.7950442 Z M45.7692035,24.7950442 L48.5090265,24.7950442 L48.5090265,22.3638938 L45.7692035,22.3638938 L45.7692035,24.7950442 Z M51.2488496,24.7950442 L53.9886726,24.7950442 L53.9886726,22.3638938 L51.2488496,22.3638938 L51.2488496,24.7950442 Z" id="Fill-15" fill="#333333" mask="url(#mask-4)"></path>
                                <polygon id="Fill-16" fill="#333333" mask="url(#mask-4)" points="56.7292035 24.7950442 59.160354 24.7950442 59.160354 22.3638938 56.7292035 22.3638938"></polygon>
                                <path d="M56.7292035,30.2746903 L59.160354,30.2746903 L59.160354,27.5348673 L56.7292035,27.5348673 L56.7292035,30.2746903 Z M56.7292035,35.7543363 L59.160354,35.7543363 L59.160354,33.0145133 L56.7292035,33.0145133 L56.7292035,35.7543363 Z M56.7292035,41.2346903 L59.160354,41.2346903 L59.160354,38.4948673 L56.7292035,38.4948673 L56.7292035,41.2346903 Z" id="Fill-17" fill="#333333" mask="url(#mask-4)"></path>
                                <path d="M49.3616283,36.6068673 L49.8395044,38.391646 L51.1456991,37.0854513 L49.3616283,36.6068673 Z M48.5807434,43.0889912 L45.9237522,33.1689912 L55.8423363,35.8266903 L48.5807434,43.0889912 Z" id="Fill-18" fill="#333333" mask="url(#mask-4)"></path>
                                <polygon id="Fill-19" fill="#333333" mask="url(#mask-4)" points="52.819823 41.7855575 50.4927434 39.4577699 52.2123894 37.7388319 54.539469 40.0666195"></polygon>
                                <path d="M14.7787611,16.420531 L17.2099115,16.420531 L17.2099115,13.9893805 L14.7787611,13.9893805 L14.7787611,16.420531 Z M12.3476106,18.8516814 L19.6410619,18.8516814 L19.6410619,11.5575221 L12.3476106,11.5575221 L12.3476106,18.8516814 Z" id="Fill-20" fill="#E8E6E6" mask="url(#mask-4)"></path>
                                <path d="M14.7780531,25.6049558 L17.2092035,25.6049558 L17.2092035,23.1738053 L14.7780531,23.1738053 L14.7780531,25.6049558 Z M12.3469027,28.0361062 L19.6410619,28.0361062 L19.6410619,20.7426549 L12.3469027,20.7426549 L12.3469027,28.0361062 Z" id="Fill-21" fill="#E8E6E6" mask="url(#mask-4)"></path>
                                <path d="M14.7787611,34.7900885 L17.2099115,34.7900885 L17.2099115,32.3589381 L14.7787611,32.3589381 L14.7787611,34.7900885 Z M12.3476106,37.2212389 L19.6410619,37.2212389 L19.6410619,29.9270796 L12.3476106,29.9270796 L12.3476106,37.2212389 Z" id="Fill-22" fill="#E8E6E6" mask="url(#mask-4)"></path>
                                <path d="M14.7787611,43.9745133 L17.2099115,43.9745133 L17.2099115,41.5433628 L14.7787611,41.5433628 L14.7787611,43.9745133 Z M12.3476106,46.4056637 L19.6410619,46.4056637 L19.6410619,39.1122124 L12.3476106,39.1122124 L12.3476106,46.4056637 Z" id="Fill-23" fill="#E8E6E6" mask="url(#mask-4)"></path>
                                <polygon id="Fill-24" fill="#E8E6E6" mask="url(#mask-4)" points="63.8329204 32.3589381 71.1263717 32.3589381 71.1263717 29.9270796 63.8329204 29.9270796"></polygon>
                                <polygon id="Fill-25" fill="#E8E6E6" mask="url(#mask-4)" points="63.8329204 37.2212389 71.1263717 37.2212389 71.1263717 34.7900885 63.8329204 34.7900885"></polygon>
                                <polygon id="Fill-26" fill="#E8E6E6" mask="url(#mask-4)" points="63.8329204 41.5433628 71.1263717 41.5433628 71.1263717 39.1122124 63.8329204 39.1122124"></polygon>
                                <polygon id="Fill-27" fill="#E8E6E6" mask="url(#mask-4)" points="63.8329204 46.4056637 71.1263717 46.4056637 71.1263717 43.9745133 63.8329204 43.9745133"></polygon>
                                <path d="M66.2640708,25.6049558 L68.6952212,25.6049558 L68.6952212,13.9886726 L66.2640708,13.9886726 L66.2640708,25.6049558 Z M63.8329204,28.0361062 L71.1263717,28.0361062 L71.1263717,11.5575221 L63.8329204,11.5575221 L63.8329204,28.0361062 Z" id="Fill-28" fill="#F36F21" mask="url(#mask-4)"></path>
                            </g>
                        </g>
                    </g>
                </g>
            </g>
        </g>
    </g>
</svg>