<?xml version="1.0" encoding="UTF-8"?>
<svg width="76px" height="80px" viewBox="0 0 76 80" version="1.1" xmlns="http://www.w3.org/2000/svg" xmlns:xlink="http://www.w3.org/1999/xlink">
    <!-- Generator: Sketch 62 (91390) - https://sketch.com -->
    <title>Group 34</title>
    <desc>Created with Sketch.</desc>
    <g id="Page-1" stroke="none" stroke-width="1" fill="none" fill-rule="evenodd">
        <g id="03-Services---Creative-Services-LP" transform="translate(-184.000000, -1988.000000)">
            <g id="HIW" transform="translate(0.000000, 1374.000000)">
                <g id="Steps" transform="translate(179.000000, 614.000000)">
                    <g id="1">
                        <g id="Group-34" transform="translate(5.000000, 0.000000)">
                            <polygon id="Fill-1" fill="#333333" points="50.3134426 57.1298361 52.5652459 57.1298361 52.5652459 19.4537705 50.3134426 19.4537705"></polygon>
                            <polygon id="Fill-2" fill="#333333" points="0 19.4544918 0 71.0774426 7.35540984 71.0774426 7.35540984 68.8249836 2.25180328 68.8249836 2.25180328 19.4544918"></polygon>
                            <polygon id="Fill-3" fill="#E8E6E6" points="26.2819672 6.56459016 47.1265574 6.56459016 47.1265574 4.31278689 26.2819672 4.31278689"></polygon>
                            <polygon id="Fill-4" fill="#E8E6E6" points="26.282623 10.8767213 36.704918 10.8767213 36.704918 8.62491803 26.282623 8.62491803"></polygon>
                            <polygon id="Fill-5" fill="#E8E6E6" points="16.5488525 40.5436066 35.3986885 40.5436066 35.3986885 38.2918033 16.5488525 38.2918033"></polygon>
                            <polygon id="Fill-6" fill="#E8E6E6" points="16.5495082 44.8563934 26.9718033 44.8563934 26.9718033 42.6045902 16.5495082 42.6045902"></polygon>
                            <polygon id="Fill-7" fill="#E8E6E6" points="16.5495082 49.3986885 32.9659016 49.3986885 32.9659016 47.1468852 16.5495082 47.1468852"></polygon>
                            <polygon id="Fill-8" fill="#E8E6E6" points="16.5495082 53.7108197 26.9718033 53.7108197 26.9718033 51.4590164 16.5495082 51.4590164"></polygon>
                            <polygon id="Fill-9" fill="#E8E6E6" points="16.5488525 58.2537705 37.3934426 58.2537705 37.3934426 56.0019672 16.5488525 56.0019672"></polygon>
                            <polygon id="Fill-10" fill="#E8E6E6" points="16.5495082 62.5659016 26.9718033 62.5659016 26.9718033 60.3140984 16.5495082 60.3140984"></polygon>
                            <path d="M6.56459016,12.9377049 L12.9377049,12.9377049 L12.9377049,6.56459016 L6.56459016,6.56459016 L6.56459016,12.9377049 Z M4.31278689,15.1895082 L15.1895082,15.1895082 L15.1895082,4.31278689 L4.31278689,4.31278689 L4.31278689,15.1895082 Z" id="Fill-11" fill="#F36F21"></path>
                            <polygon id="Fill-12" fill="#F36F21" points="8.62491803 10.877377 10.8767213 10.877377 10.8767213 8.62557377 8.62491803 8.62557377"></polygon>
                            <path d="M0,19.5016393 L52.5652459,19.5016393 L52.5652459,-0.000655737705 L0,-0.000655737705 L0,19.5016393 Z M2.25180328,17.2504918 L50.3127869,17.2504918 L50.3127869,2.25180328 L2.25180328,2.25180328 L2.25180328,17.2504918 Z" id="Fill-13" fill="#333333"></path>
                            <polygon id="Fill-14" fill="#333333" points="12.1468852 71.077377 36.5272131 71.077377 36.5272131 68.8255738 12.1468852 68.8255738"></polygon>
                            <path d="M18.5442623,33.5508197 L35.3993443,33.5508197 L35.3993443,25.0209836 L18.5442623,25.0209836 L18.5442623,33.5508197 Z M16.2918033,35.802623 L37.6504918,35.802623 L37.6504918,22.7691803 L16.2918033,22.7691803 L16.2918033,35.802623 Z" id="Fill-15" fill="#333333"></path>
                            <polygon id="Fill-16" fill="#F36F21" points="21.7304918 30.4118033 32.212459 30.4118033 32.212459 28.16 21.7304918 28.16"></polygon>
                            <polygon id="Fill-17" fill="#E8E6E6" points="55.6918033 71.077377 70.5462295 71.077377 70.5462295 68.8255738 55.6918033 68.8255738"></polygon>
                            <polygon id="Fill-18" fill="#E8E6E6" points="55.6918033 66.7645902 63.1193443 66.7645902 63.1193443 64.5127869 55.6918033 64.5127869"></polygon>
                            <path d="M35.3993443,79.8170492 L75.984918,79.8170492 L75.984918,56.0019672 L35.3993443,56.0019672 L35.3993443,79.8170492 Z M37.6504918,77.5652459 L73.732459,77.5652459 L73.732459,58.2537705 L37.6504918,58.2537705 L37.6504918,77.5652459 Z" id="Fill-19" fill="#333333"></path>
                            <polygon id="Fill-20" fill="#E8E6E6" points="40.837377 62.5665574 70.5462295 62.5665574 70.5462295 60.3140984 40.837377 60.3140984"></polygon>
                            <path d="M43.0419672,73.1377049 L49.415082,73.1377049 L49.415082,66.7639344 L43.0419672,66.7639344 L43.0419672,73.1377049 Z M40.7895082,75.3901639 L51.6662295,75.3901639 L51.6662295,64.5127869 L40.7895082,64.5127869 L40.7895082,75.3901639 Z" id="Fill-21" fill="#F36F21"></path>
                            <polygon id="Fill-22" fill="#F36F21" points="45.1022951 71.077377 47.3540984 71.077377 47.3540984 68.8255738 45.1022951 68.8255738"></polygon>
                            <polygon id="Fill-23" fill="#F36F21" points="6.2295082 73.9436066 8.48131148 73.9436066 8.48131148 33.412459 6.2295082 33.412459"></polygon>
                            <polygon id="Fill-24" fill="#F36F21" points="11.0209836 73.9436066 13.2727869 73.9436066 13.2727869 33.412459 11.0209836 33.412459"></polygon>
                            <g id="Group-33" transform="translate(5.901639, 24.735082)">
                                <path d="M2.5797377,50.3348852 L2.5797377,51.5598033 C2.5797377,51.8988197 2.71154098,52.2181639 2.95154098,52.4588197 C3.43022951,52.9368525 4.26695082,52.9375082 4.7482623,52.4575082 C4.98695082,52.2181639 5.11940984,51.8988197 5.11940984,51.5598033 L5.11940984,50.3348852 L2.5797377,50.3348852 Z M3.8492459,55.0817705 C2.90891803,55.0817705 2.02498361,54.7158689 1.35940984,54.0509508 C0.693836066,53.3847213 0.327934426,52.5001311 0.327934426,51.5598033 L0.327934426,48.083082 L7.37121311,48.083082 L7.37121311,51.5598033 C7.37121311,52.5001311 7.00531148,53.3840656 6.34039344,54.0502951 C5.6735082,54.7158689 4.78957377,55.0817705 3.8492459,55.0817705 L3.8492459,55.0817705 Z" id="Fill-25" fill="#333333"></path>
                                <path d="M3.62190164,6.54681967 L4.07567213,6.54681967 L3.84944262,6.02354098 L3.62190164,6.54681967 Z M7.50780328,8.79927869 L0.19042623,8.79927869 L3.84944262,0.365180328 L7.50780328,8.79927869 Z" id="Fill-27" fill="#333333"></path>
                                <path d="M36.3825574,16.9784262 C33.3864918,16.9784262 30.9491148,19.4158033 30.9491148,22.4118689 C30.9491148,25.4079344 33.3864918,27.8453115 36.3825574,27.8453115 C39.378623,27.8453115 41.816,25.4079344 41.816,22.4118689 C41.816,19.4158033 39.378623,16.9784262 36.3825574,16.9784262 M36.3825574,29.2977705 C32.5858361,29.2977705 29.4973115,26.2085902 29.4973115,22.4118689 C29.4973115,18.6151475 32.5858361,15.526623 36.3825574,15.526623 C40.1792787,15.526623 43.2678033,18.6151475 43.2678033,22.4118689 C43.2678033,26.2085902 40.1792787,29.2977705 36.3825574,29.2977705" id="Fill-29" fill="#E8E6E6"></path>
                                <path d="M36.3825574,20.820918 C35.5051803,20.820918 34.7917377,21.5343607 34.7917377,22.4117377 C34.7917377,23.2897705 35.5051803,24.0032131 36.3825574,24.0032131 C37.2599344,24.0032131 37.9740328,23.2897705 37.9740328,22.4117377 C37.9740328,21.5343607 37.2599344,20.820918 36.3825574,20.820918 M36.3825574,25.4550164 C34.7045246,25.4550164 33.3392787,24.0897705 33.3392787,22.4117377 C33.3392787,20.7343607 34.7045246,19.3691148 36.3825574,19.3691148 C38.0605902,19.3691148 39.4258361,20.7343607 39.4258361,22.4117377 C39.4258361,24.0897705 38.0605902,25.4550164 36.3825574,25.4550164" id="Fill-31" fill="#F36F21"></path>
                            </g>
                        </g>
                    </g>
                </g>
            </g>
        </g>
    </g>
</svg>