<?xml version="1.0" encoding="UTF-8"?>
<svg width="59px" height="62px" viewBox="0 0 59 62" version="1.1" xmlns="http://www.w3.org/2000/svg" xmlns:xlink="http://www.w3.org/1999/xlink">
    <!-- Generator: Sketch 62 (91390) - https://sketch.com -->
    <title>Icon</title>
    <desc>Created with Sketch.</desc>
    <defs>
        <path d="M46.6203387,8.05527342 C32.7846218,-5.94287901 20.999575,0.423302016 18.9489049,11.0878962 C16.8982348,21.7524904 -2.15127202,23.8818449 0.200762019,36.4783084 C2.55279606,49.0747718 28.1727162,41.5956217 28.1727162,53.0111667 C28.1727162,64.4267117 57.7945484,64.0330722 57.7945484,49.0747718 C57.7945484,34.1164715 60.4560557,22.0534258 46.6203387,8.05527342 Z" id="path-1"></path>
        <polygon id="path-3" points="0 48 48 48 48 0 0 0"></polygon>
    </defs>
    <g id="Page-1" stroke="none" stroke-width="1" fill="none" fill-rule="evenodd">
        <g id="03-Services---Creative-Services-LP" transform="translate(-225.000000, -1020.000000)">
            <g id="VP-1" transform="translate(-1.000000, 66.000000)">
                <g id="Key-Offerings" transform="translate(215.000000, 803.000000)">
                    <g id="Offering-1" transform="translate(10.000000, 151.000000)">
                        <g id="Icon" transform="translate(1.000000, 0.000000)">
                            <mask id="mask-2" fill="white">
                                <use xlink:href="#path-1"></use>
                            </mask>
                            <use id="bgicon" fill="#ECEDEE" xlink:href="#path-1"></use>
                            <g id="Group-28" transform="translate(10.000000, 13.000000)">
                                <polygon id="Fill-1" stroke="#F36F21" stroke-width="0.25" fill="#F36F21" points="23.2835821 14.3283582 24.7164179 14.3283582 24.7164179 12.8955224 23.2835821 12.8955224"></polygon>
                                <polygon id="Fill-2" stroke="#F36F21" stroke-width="0.25" fill="#F36F21" points="17.9104478 14.7568813 19.2729694 13.9701493 20.0597015 15.3326709 18.6971799 16.119403"></polygon>
                                <polygon id="Fill-3" stroke="#F36F21" stroke-width="0.25" fill="#F36F21" points="13.9701493 19.2727173 14.756884 17.9104478 16.119403 18.6974319 15.3326683 20.0597015"></polygon>
                                <polygon id="Fill-4" stroke="#F36F21" stroke-width="0.25" fill="#F36F21" points="12.8955224 24.7164179 14.3283582 24.7164179 14.3283582 23.2835821 12.8955224 23.2835821"></polygon>
                                <polygon id="Fill-5" stroke="#F36F21" stroke-width="0.25" fill="#F36F21" points="33.6716418 24.7164179 35.1044776 24.7164179 35.1044776 23.2835821 33.6716418 23.2835821"></polygon>
                                <polygon id="Fill-6" stroke="#F36F21" stroke-width="0.25" fill="#F36F21" points="31.880597 18.6971825 33.243116 17.9104478 34.0298507 19.2729668 32.6673317 20.0597015"></polygon>
                                <polygon id="Fill-7" stroke="#F36F21" stroke-width="0.25" fill="#F36F21" points="27.9402985 15.3326709 28.7266372 13.9701493 30.0895522 14.756488 29.3028201 16.119403"></polygon>
                                <g id="Group-27">
                                    <path d="M24,24.7983368 C23.5591185,24.7983368 23.2016632,24.4408815 23.2016632,24 C23.2016632,23.5591185 23.5591185,23.2016632 24,23.2016632 C24.4408815,23.2016632 24.7983368,23.5591185 24.7983368,24 C24.7983368,24.4408815 24.4408815,24.7983368 24,24.7983368 L24,24.7983368 Z M28.2255967,18.6455551 L25.0259626,21.8442911 C24.7063285,21.6884158 24.3555593,21.6065863 24,21.6049896 C22.6773555,21.6049896 21.6049896,22.6773555 21.6049896,24 C21.6049896,25.3226445 22.6773555,26.3950104 24,26.3950104 C25.3226445,26.3950104 26.3950104,25.3226445 26.3950104,24 C26.3934137,23.6444407 26.3115842,23.2936715 26.1557089,22.9740374 L29.3552432,19.7744033 L28.2255967,18.6455551 Z" id="Fill-8" stroke="#F36F21" stroke-width="0.25" fill="#F36F21"></path>
                                    <path d="M25.3682395,19.408785 L25.8250877,17.8783734 C23.892015,17.3018744 21.7998736,17.6726021 20.1829422,18.8782902 C18.5656116,20.0839784 17.6128965,21.9827227 17.6132955,24.00002 L19.2099692,24.00002 C19.2095701,22.4871717 19.9240815,21.0631385 21.1368549,20.1588225 C22.3499277,19.2548058 23.9185597,18.9764857 25.3682395,19.408785" id="Fill-10" stroke="#F36F21" stroke-width="0.25" fill="#F36F21"></path>
                                    <path d="M43.95842,0.0498960499 L4.04158004,0.0498960499 C1.83797089,0.0525904366 0.0525904366,1.83797089 0.0498960499,4.04158004 L0.0498960499,34.3783784 C0.0525904366,36.5819875 1.83797089,38.367368 4.04158004,38.3700624 L17.5073264,38.3700624 L16.9085738,43.1600832 L15.2182952,43.1600832 C13.8956507,43.1600832 12.8232848,44.2324491 12.8232848,45.5550936 C12.8232848,46.877738 13.8956507,47.950104 15.2182952,47.950104 L32.7817048,47.950104 C34.1043493,47.950104 35.1767152,46.877738 35.1767152,45.5550936 C35.1767152,44.2324491 34.1043493,43.1600832 32.7817048,43.1600832 L31.091526,43.1600832 L30.4927734,38.3700624 L43.95842,38.3700624 C46.1620291,38.367368 47.9474096,36.5819875 47.950104,34.3783784 L47.950104,4.04158004 C47.9474096,1.83797089 46.1620291,0.0525904366 43.95842,0.0498960499 Z" id="Stroke-12" stroke="#000000" stroke-width="2"></path>
                                    <path d="M12.9468574,30.3866944 C9.83773472,25.0189771 11.0344416,18.1929979 15.7846453,14.20321 C20.5349489,10.2135218 27.4650112,10.2135218 32.2153148,14.20321 C36.9655185,18.1929979 38.1623252,25.0189771 35.0531027,30.3866944 L12.9468574,30.3866944 Z" id="Stroke-16" stroke="#F36F21" stroke-width="2"></path>
                                    <line x1="0.0498960499" y1="30.3867983" x2="47.950104" y2="30.3867983" id="Stroke-18" stroke="#000000" stroke-width="2"></line>
                                    <line x1="4.83991684" y1="38.3701663" x2="43.1600832" y2="38.3701663" id="Stroke-20" stroke="#000000" stroke-width="2"></line>
                                    <mask id="mask-4" fill="white">
                                        <use xlink:href="#path-3"></use>
                                    </mask>
                                    <g id="Clip-23"></g>
                                    <polygon id="Fill-22" stroke="#231F20" fill="#000000" mask="url(#mask-4)" points="41.5634096 35.1767152 43.1600832 35.1767152 43.1600832 33.5800416 41.5634096 33.5800416"></polygon>
                                    <polygon id="Fill-24" stroke="#231F20" stroke-width="0.5" fill="#000000" mask="url(#mask-4)" points="4 4.5966736 5.5966736 4.5966736 5.5966736 3 4 3"></polygon>
                                    <polygon id="Fill-25" stroke="#231F20" stroke-width="0.5" fill="#000000" mask="url(#mask-4)" points="7.19334719 4.5966736 8.79002079 4.5966736 8.79002079 3 7.19334719 3"></polygon>
                                    <polygon id="Fill-26" stroke="#231F20" stroke-width="0.5" fill="#000000" mask="url(#mask-4)" points="10.3866944 4.5966736 11.983368 4.5966736 11.983368 3 10.3866944 3"></polygon>
                                    <line x1="47.950104" y1="7.43669439" x2="0.0498960499" y2="7.43669439" id="Stroke-14" stroke="#000000" stroke-width="2" mask="url(#mask-4)"></line>
                                </g>
                            </g>
                        </g>
                    </g>
                </g>
            </g>
        </g>
    </g>
</svg>