<svg xmlns="http://www.w3.org/2000/svg" xmlns:xlink="http://www.w3.org/1999/xlink" width="76" height="80"><style><![CDATA[.B{stroke-linejoin:round}.C{stroke-width:3}.D{stroke-linecap:round}]]></style><defs><path d="M60.652 10.747c-18-17.78-33.332-9.694-36 3.852S-2.8 30.85.26 46.85s36.39 6.5 36.39 21 38.537 14 38.537-5 3.463-34.322-14.537-52.103z" id="A"/></defs><g fill="none" fill-rule="evenodd"><use fill="#ecedee" xlink:href="#A"/><g stroke="#333" class="B C"><path d="M10 78h44V22H10zm56-28l-3 8-3-8V25a3 3 0 1 1 6 0v25z"/><path d="M60 30.387h6" class="D"/></g><g stroke="#f36f21" class="B C"><path d="M20 72v-5c0-4.97 4.03-9 9-9s9-4.03 9-9v-7" class="D"/><path d="M32 48l6-6 6 6" class="D"/><path d="M42 32c0 2.208-1.792 4-4 4s-4-1.792-4-4 1.792-4 4-4 4 1.792 4 4z"/></g><g stroke="#333" class="D B C"><path d="M34 64l8 8"/><path d="M42 64l-8 8M18 44l8 8"/><path d="M26 44l-8 8"/></g></g></svg>