<?xml version="1.0" encoding="UTF-8"?>
<svg width="59px" height="61px" viewBox="0 0 59 61" version="1.1" xmlns="http://www.w3.org/2000/svg" xmlns:xlink="http://www.w3.org/1999/xlink">
    <!-- Generator: Sketch 62 (91390) - https://sketch.com -->
    <title>Icon</title>
    <desc>Created with Sketch.</desc>
    <defs>
        <path d="M47.4241377,8.05527342 C33.3498739,-5.94287901 21.3616366,0.423302016 19.2756101,11.0878962 C17.1895837,21.7524904 -2.18836291,23.8818449 0.204223433,36.4783084 C2.59680978,49.0747718 28.6584527,41.5956217 28.6584527,53.0111667 C28.6584527,64.4267117 58.7910062,64.0330722 58.7910062,49.0747718 C58.7910062,34.1164715 61.4984014,22.0534258 47.4241377,8.05527342 Z" id="path-1"></path>
    </defs>
    <g id="Page-1" stroke="none" stroke-width="1" fill="none" fill-rule="evenodd">
        <g id="03-Services---Creative-Services-LP" transform="translate(-492.000000, -1020.000000)">
            <g id="VP-1" transform="translate(-1.000000, 66.000000)">
                <g id="Key-Offerings" transform="translate(215.000000, 803.000000)">
                    <g id="Offering-1-Copy" transform="translate(277.000000, 151.000000)">
                        <g id="Icon" transform="translate(1.000000, 0.000000)">
                            <mask id="mask-2" fill="white">
                                <use xlink:href="#path-1"></use>
                            </mask>
                            <use id="bgicon" fill="#ECEDEE" xlink:href="#path-1"></use>
                            <g id="Group-7" transform="translate(6.726882, 8.000000)">
                                <path d="M13.7895914,6.96888889 C14.6719914,6.96888889 15.3895914,7.67054222 15.3895914,8.53333333 L16.9895914,8.53333333 C16.9895914,7.07918222 15.9655914,5.86517333 14.5895914,5.51552 L14.5895914,3.84 L12.9895914,3.84 L12.9895914,5.40444444 L10.5895914,5.40444444 L10.5895914,8.53333333 C10.5895914,10.2589156 12.0247914,11.6622222 13.7895914,11.6622222 C14.6719914,11.6622222 15.3895914,12.3638756 15.3895914,13.2266667 L15.3895914,14.7911111 L13.7895914,14.7911111 C12.9071914,14.7911111 12.1895914,14.0894578 12.1895914,13.2266667 L10.5895914,13.2266667 C10.5895914,14.6808178 11.6135914,15.8948267 12.9895914,16.24448 L12.9895914,17.92 L14.5895914,17.92 L14.5895914,16.3555556 L16.9895914,16.3555556 L16.9895914,13.2266667 C16.9895914,11.5010844 15.5543914,10.0977778 13.7895914,10.0977778 C12.9071914,10.0977778 12.1895914,9.39612444 12.1895914,8.53333333 L12.1895914,6.96888889 L13.7895914,6.96888889 Z" id="Fill-1" stroke="#F36F21" stroke-width="0.5" fill="#F36F21"></path>
                                <path d="M15.6476559,45.7268966 L13.232172,45.7268966 L13.232172,40.0110345 L14.9906443,40.0110345 C15.3239811,40.959051 16.2096585,41.6441379 17.2579785,41.6441379 L21.0462624,41.6441379 C20.3514082,44.0015228 18.1959914,45.7268966 15.6476559,45.7268966 L15.6476559,45.7268966 Z M1.95991398,39.1944828 C1.95991398,35.5926731 4.84963785,32.662069 8.4012043,32.662069 L11.6218495,32.662069 L11.6218495,45.7268966 L8.4012043,45.7268966 C4.84963785,45.7268966 1.95991398,42.7962924 1.95991398,39.1944828 L1.95991398,39.1944828 Z M21.2837849,40.0110345 L17.2579785,40.0110345 C16.8143346,40.0110345 16.4528172,39.6452193 16.4528172,39.1944828 C16.4528172,38.7437462 16.8143346,38.377931 17.2579785,38.377931 L21.2837849,38.377931 L21.2837849,40.0110345 Z M21.0462624,36.7448276 L17.2579785,36.7448276 C16.2096585,36.7448276 15.3239811,37.4299145 14.9906443,38.377931 L13.232172,38.377931 L13.232172,32.662069 L15.6476559,32.662069 C18.1959914,32.662069 20.3514082,34.3866262 21.0462624,36.7448276 L21.0462624,36.7448276 Z M37.3870108,23.68 L42.2179785,23.68 L42.2179785,13.0648276 L37.3870108,13.0648276 L37.3870108,23.68 Z M35.5327243,22.0468966 L33.7251372,23.2684579 C33.3281927,23.53792 32.8652249,23.68 32.386154,23.68 L21.2837849,23.68 C20.8401411,23.68 20.4786237,23.3141848 20.4786237,22.8634483 C20.4786237,22.4127117 20.8401411,22.0468966 21.2837849,22.0468966 L23.6992688,22.0468966 L23.6992688,20.4137931 L21.2837849,20.4137931 C20.8401411,20.4137931 20.4786237,20.0479779 20.4786237,19.5972414 C20.4786237,19.1465048 20.8401411,18.7806897 21.2837849,18.7806897 L23.6992688,18.7806897 L23.6992688,17.1475862 L21.2837849,17.1475862 C20.8401411,17.1475862 20.4786237,16.781771 20.4786237,16.3310345 C20.4786237,15.8802979 20.8401411,15.5144828 21.2837849,15.5144828 L23.6992688,15.5144828 L23.6992688,13.8813793 L21.2837849,13.8813793 C20.8401411,13.8813793 20.4786237,13.5155641 20.4786237,13.0648276 C20.4786237,12.614091 20.8401411,12.2482759 21.2837849,12.2482759 L25.3095914,12.2482759 C26.6413282,12.2482759 27.7250753,11.1491972 27.7250753,9.79862069 L27.7250753,6.73001931 C27.7250753,5.76730483 28.0946443,4.86256552 28.7653437,4.18237793 C28.9585824,3.98477241 29.3353978,4.1456331 29.3353978,4.42081103 L29.3353978,9.69981793 C29.3353978,11.0356966 29.8482856,12.2907366 30.779052,13.2338538 C31.7106237,14.1777876 32.9481566,14.697931 34.2637901,14.697931 L35.7766882,14.697931 L35.7766882,22.0468966 L35.5327243,22.0468966 Z M5.18055914,10.6151724 C5.18055914,5.66278621 9.15403011,1.63310345 14.0373333,1.63310345 C18.9206366,1.63310345 22.8941075,5.66278621 22.8941075,10.6151724 L21.2837849,10.6151724 C19.9520482,10.6151724 18.8683011,11.714251 18.8683011,13.0648276 C18.8683011,13.694389 19.1106546,14.2635255 19.4963269,14.697931 C19.1098495,15.1323366 18.8683011,15.7014731 18.8683011,16.3310345 C18.8683011,16.8813903 19.0542933,17.3835697 19.357034,17.7934786 C17.8288378,18.960331 15.9713308,19.5972414 14.0373333,19.5972414 C9.15403011,19.5972414 5.18055914,15.5675586 5.18055914,10.6151724 L5.18055914,10.6151724 Z M38.9973333,30.2124138 L47.0489462,30.2124138 C48.825132,30.2124138 50.2695914,28.74752 50.2695914,26.9462069 L50.2695914,20.4137931 C50.2695914,18.61248 48.825132,17.1475862 47.0489462,17.1475862 L43.8283011,17.1475862 L43.8283011,11.4317241 L35.7766882,11.4317241 L35.7766882,13.0648276 L34.2637901,13.0648276 C33.3909953,13.0648276 32.535914,12.7055448 31.9175501,12.0792497 C31.2911346,11.4439724 30.9457204,10.5988414 30.9457204,9.69981793 L30.9457204,4.42081103 C30.9457204,3.33398069 30.0737308,2.44965517 29.0019604,2.44965517 C28.4907837,2.44965517 27.9899733,2.66032552 27.6276508,3.02695724 C26.6517953,4.01661793 26.1147527,5.33126621 26.1147527,6.73001931 L26.1147527,9.79862069 C26.1147527,10.2493572 25.7532353,10.6151724 25.3095914,10.6151724 L24.5044301,10.6151724 C24.5044301,4.76212966 19.8087295,0 14.0373333,0 C8.2659372,0 3.57023656,4.76212966 3.57023656,10.6151724 C3.57023656,16.4682152 8.2659372,21.2303448 14.0373333,21.2303448 C15.7547424,21.2303448 17.4198159,20.8008386 18.9085591,20.0047007 C18.9866598,20.4725848 19.1951966,20.8922924 19.4963269,21.2303448 C19.1098495,21.6647503 18.8683011,22.2338869 18.8683011,22.8634483 C18.8683011,24.2140248 19.9520482,25.3131034 21.2837849,25.3131034 L32.386154,25.3131034 C33.1840688,25.3131034 33.9562185,25.0763034 34.6188662,24.6272 L35.7766882,23.8449434 L35.7766882,25.3131034 L43.8283011,25.3131034 L43.8283011,18.7806897 L47.0489462,18.7806897 C47.9370391,18.7806897 48.6592688,19.5131366 48.6592688,20.4137931 L48.6592688,26.9462069 C48.6592688,27.8468634 47.9370391,28.5793103 47.0489462,28.5793103 L38.9973333,28.5793103 C37.2211475,28.5793103 35.7766882,30.0442041 35.7766882,31.8455172 C35.7766882,33.6468303 37.2211475,35.1117241 38.9973333,35.1117241 L47.0489462,35.1117241 C47.9370391,35.1117241 48.6592688,35.844171 48.6592688,36.7448276 C48.6592688,37.6454841 47.9370391,38.377931 47.0489462,38.377931 L22.8941075,38.377931 C22.8941075,34.3253848 19.6428662,31.0289655 15.6476559,31.0289655 L8.4012043,31.0289655 C3.96154495,31.0289655 0.349591398,34.6920166 0.349591398,39.1944828 C0.349591398,43.696949 3.96154495,47.36 8.4012043,47.36 L15.6476559,47.36 C19.6428662,47.36 22.8941075,44.0635807 22.8941075,40.0110345 L47.0489462,40.0110345 C48.8250314,40.0110345 50.2695914,38.5461407 50.2695914,36.7448276 C50.2695914,34.9435145 48.8250314,33.4786207 47.0489462,33.4786207 L38.9973333,33.4786207 C38.1092404,33.4786207 37.3870108,32.7461738 37.3870108,31.8455172 C37.3870108,30.9448607 38.1092404,30.2124138 38.9973333,30.2124138 L38.9973333,30.2124138 Z" id="Fill-3" fill="#000000"></path>
                                <path d="M15.6476559,45.7268966 L13.232172,45.7268966 L13.232172,40.0110345 L14.9906443,40.0110345 C15.3239811,40.959051 16.2096585,41.6441379 17.2579785,41.6441379 L21.0462624,41.6441379 C20.3514082,44.0015228 18.1959914,45.7268966 15.6476559,45.7268966 Z M1.95991398,39.1944828 C1.95991398,35.5926731 4.84963785,32.662069 8.4012043,32.662069 L11.6218495,32.662069 L11.6218495,45.7268966 L8.4012043,45.7268966 C4.84963785,45.7268966 1.95991398,42.7962924 1.95991398,39.1944828 Z M21.2837849,40.0110345 L17.2579785,40.0110345 C16.8143346,40.0110345 16.4528172,39.6452193 16.4528172,39.1944828 C16.4528172,38.7437462 16.8143346,38.377931 17.2579785,38.377931 L21.2837849,38.377931 L21.2837849,40.0110345 Z M21.0462624,36.7448276 L17.2579785,36.7448276 C16.2096585,36.7448276 15.3239811,37.4299145 14.9906443,38.377931 L13.232172,38.377931 L13.232172,32.662069 L15.6476559,32.662069 C18.1959914,32.662069 20.3514082,34.3866262 21.0462624,36.7448276 Z M37.3870108,23.68 L42.2179785,23.68 L42.2179785,13.0648276 L37.3870108,13.0648276 L37.3870108,23.68 Z M35.5327243,22.0468966 L33.7251372,23.2684579 C33.3281927,23.53792 32.8652249,23.68 32.386154,23.68 L21.2837849,23.68 C20.8401411,23.68 20.4786237,23.3141848 20.4786237,22.8634483 C20.4786237,22.4127117 20.8401411,22.0468966 21.2837849,22.0468966 L23.6992688,22.0468966 L23.6992688,20.4137931 L21.2837849,20.4137931 C20.8401411,20.4137931 20.4786237,20.0479779 20.4786237,19.5972414 C20.4786237,19.1465048 20.8401411,18.7806897 21.2837849,18.7806897 L23.6992688,18.7806897 L23.6992688,17.1475862 L21.2837849,17.1475862 C20.8401411,17.1475862 20.4786237,16.781771 20.4786237,16.3310345 C20.4786237,15.8802979 20.8401411,15.5144828 21.2837849,15.5144828 L23.6992688,15.5144828 L23.6992688,13.8813793 L21.2837849,13.8813793 C20.8401411,13.8813793 20.4786237,13.5155641 20.4786237,13.0648276 C20.4786237,12.614091 20.8401411,12.2482759 21.2837849,12.2482759 L25.3095914,12.2482759 C26.6413282,12.2482759 27.7250753,11.1491972 27.7250753,9.79862069 L27.7250753,6.73001931 C27.7250753,5.76730483 28.0946443,4.86256552 28.7653437,4.18237793 C28.9585824,3.98477241 29.3353978,4.1456331 29.3353978,4.42081103 L29.3353978,9.69981793 C29.3353978,11.0356966 29.8482856,12.2907366 30.779052,13.2338538 C31.7106237,14.1777876 32.9481566,14.697931 34.2637901,14.697931 L35.7766882,14.697931 L35.7766882,22.0468966 L35.5327243,22.0468966 Z M5.18055914,10.6151724 C5.18055914,5.66278621 9.15403011,1.63310345 14.0373333,1.63310345 C18.9206366,1.63310345 22.8941075,5.66278621 22.8941075,10.6151724 L21.2837849,10.6151724 C19.9520482,10.6151724 18.8683011,11.714251 18.8683011,13.0648276 C18.8683011,13.694389 19.1106546,14.2635255 19.4963269,14.697931 C19.1098495,15.1323366 18.8683011,15.7014731 18.8683011,16.3310345 C18.8683011,16.8813903 19.0542933,17.3835697 19.357034,17.7934786 C17.8288378,18.960331 15.9713308,19.5972414 14.0373333,19.5972414 C9.15403011,19.5972414 5.18055914,15.5675586 5.18055914,10.6151724 Z M38.9973333,30.2124138 L47.0489462,30.2124138 C48.825132,30.2124138 50.2695914,28.74752 50.2695914,26.9462069 L50.2695914,20.4137931 C50.2695914,18.61248 48.825132,17.1475862 47.0489462,17.1475862 L43.8283011,17.1475862 L43.8283011,11.4317241 L35.7766882,11.4317241 L35.7766882,13.0648276 L34.2637901,13.0648276 C33.3909953,13.0648276 32.535914,12.7055448 31.9175501,12.0792497 C31.2911346,11.4439724 30.9457204,10.5988414 30.9457204,9.69981793 L30.9457204,4.42081103 C30.9457204,3.33398069 30.0737308,2.44965517 29.0019604,2.44965517 C28.4907837,2.44965517 27.9899733,2.66032552 27.6276508,3.02695724 C26.6517953,4.01661793 26.1147527,5.33126621 26.1147527,6.73001931 L26.1147527,9.79862069 C26.1147527,10.2493572 25.7532353,10.6151724 25.3095914,10.6151724 L24.5044301,10.6151724 C24.5044301,4.76212966 19.8087295,0 14.0373333,0 C8.2659372,0 3.57023656,4.76212966 3.57023656,10.6151724 C3.57023656,16.4682152 8.2659372,21.2303448 14.0373333,21.2303448 C15.7547424,21.2303448 17.4198159,20.8008386 18.9085591,20.0047007 C18.9866598,20.4725848 19.1951966,20.8922924 19.4963269,21.2303448 C19.1098495,21.6647503 18.8683011,22.2338869 18.8683011,22.8634483 C18.8683011,24.2140248 19.9520482,25.3131034 21.2837849,25.3131034 L32.386154,25.3131034 C33.1840688,25.3131034 33.9562185,25.0763034 34.6188662,24.6272 L35.7766882,23.8449434 L35.7766882,25.3131034 L43.8283011,25.3131034 L43.8283011,18.7806897 L47.0489462,18.7806897 C47.9370391,18.7806897 48.6592688,19.5131366 48.6592688,20.4137931 L48.6592688,26.9462069 C48.6592688,27.8468634 47.9370391,28.5793103 47.0489462,28.5793103 L38.9973333,28.5793103 C37.2211475,28.5793103 35.7766882,30.0442041 35.7766882,31.8455172 C35.7766882,33.6468303 37.2211475,35.1117241 38.9973333,35.1117241 L47.0489462,35.1117241 C47.9370391,35.1117241 48.6592688,35.844171 48.6592688,36.7448276 C48.6592688,37.6454841 47.9370391,38.377931 47.0489462,38.377931 L22.8941075,38.377931 C22.8941075,34.3253848 19.6428662,31.0289655 15.6476559,31.0289655 L8.4012043,31.0289655 C3.96154495,31.0289655 0.349591398,34.6920166 0.349591398,39.1944828 C0.349591398,43.696949 3.96154495,47.36 8.4012043,47.36 L15.6476559,47.36 C19.6428662,47.36 22.8941075,44.0635807 22.8941075,40.0110345 L47.0489462,40.0110345 C48.8250314,40.0110345 50.2695914,38.5461407 50.2695914,36.7448276 C50.2695914,34.9435145 48.8250314,33.4786207 47.0489462,33.4786207 L38.9973333,33.4786207 C38.1092404,33.4786207 37.3870108,32.7461738 37.3870108,31.8455172 C37.3870108,30.9448607 38.1092404,30.2124138 38.9973333,30.2124138 Z" id="Stroke-5" stroke="#000000" stroke-width="0.5"></path>
                            </g>
                        </g>
                    </g>
                </g>
            </g>
        </g>
    </g>
</svg>