<?xml version="1.0" encoding="UTF-8"?>
<svg width="61px" height="64px" viewBox="0 0 61 64" version="1.1" xmlns="http://www.w3.org/2000/svg" xmlns:xlink="http://www.w3.org/1999/xlink">
    <!-- Generator: Sketch 62 (91390) - https://sketch.com -->
    <title>Icon</title>
    <desc>Created with Sketch.</desc>
    <defs>
        <path d="M47.6203387,8.05527342 C33.7846218,-5.94287901 21.999575,0.423302016 19.9489049,11.0878962 C17.8982348,21.7524904 -1.15127202,23.8818449 1.20076202,36.4783084 C3.55279606,49.0747718 29.1727162,41.5956217 29.1727162,53.0111667 C29.1727162,64.4267117 58.7945484,64.0330722 58.7945484,49.0747718 C58.7945484,34.1164715 61.4560557,22.0534258 47.6203387,8.05527342 Z" id="path-1"></path>
    </defs>
    <g id="Page-1" stroke="none" stroke-width="1" fill="none" fill-rule="evenodd">
        <g id="03-Services---Creative-Services-LP" transform="translate(-1021.000000, -1020.000000)">
            <g id="VP-1" transform="translate(-1.000000, 66.000000)">
                <g id="Key-Offerings" transform="translate(215.000000, 803.000000)">
                    <g id="Offering-1-Copy-3" transform="translate(809.000000, 151.000000)">
                        <g id="Icon">
                            <mask id="mask-2" fill="white">
                                <use xlink:href="#path-1"></use>
                            </mask>
                            <use id="bgicon" fill="#ECEDEE" xlink:href="#path-1"></use>
                            <g id="Group-23" mask="url(#mask-2)" stroke-linecap="round" stroke-linejoin="round">
                                <g transform="translate(0.000000, 16.000000)">
                                    <g id="Group-2">
                                        <path d="M3.31034483,1.0658141e-14 L44.6896552,1.0658141e-14 C46.5177931,1.0658141e-14 48,1.4822069 48,3.31034483 L48,34.7586207 C48,36.5867586 46.5177931,38.0689655 44.6896552,38.0689655 L3.31034483,38.0689655 C1.4822069,38.0689655 0,36.5867586 0,34.7586207 L0,3.31034483 C0,1.4822069 1.4822069,1.0658141e-14 3.31034483,1.0658141e-14 Z" id="Stroke-1" stroke="#000000" stroke-width="2.25"></path>
                                        <line x1="0" y1="28.137931" x2="48" y2="28.137931" id="Stroke-3" stroke="#000000" stroke-width="2.25"></line>
                                        <path d="M24,31.4482759 C24.9136552,31.4482759 25.6551724,32.1897931 25.6551724,33.1034483 C25.6551724,34.0171034 24.9136552,34.7586207 24,34.7586207 C23.0863448,34.7586207 22.3448276,34.0171034 22.3448276,33.1034483 C22.3448276,32.1897931 23.0863448,31.4482759 24,31.4482759 Z" id="Stroke-5" stroke="#000000" stroke-width="2.25"></path>
                                        <path d="M18.2068966,38.0689655 C18.2068966,38.0689655 18.6206897,40.137931 15.7241379,43.0344828 L13.2413793,43.0344828 L12.4137931,45.5172414 L13.2413793,46.3448276 L34.7586207,46.3448276 L35.5862069,45.5172414 L34.7586207,43.0344828 L32.2758621,43.0344828 C29.3793103,40.137931 29.7931034,38.0689655 29.7931034,38.0689655" id="Stroke-7" stroke="#000000" stroke-width="2.25"></path>
                                        <line x1="15.7241379" y1="43.0344828" x2="32.2758621" y2="43.0344828" id="Stroke-9" stroke="#000000" stroke-width="2.25"></line>
                                    </g>
                                    <g id="Group-3" transform="translate(9.931034, 3.310345)">
                                        <path d="M14.0689655,-8.34887715e-14 L25.6551724,4.96551724 C25.6551724,4.96551724 28.137931,5.79310345 28.137931,6.62068966 C28.137931,7.44827586 25.6551724,8.27586207 25.6551724,8.27586207 L14.0689655,13.2413793 L2.48275862,8.27586207 C2.48275862,8.27586207 -4.36983782e-13,7.44827586 -4.36983782e-13,6.62068966 C-4.36983782e-13,5.79310345 2.48275862,4.96551724 2.48275862,4.96551724 L14.0689655,-8.34887715e-14 Z" id="Stroke-11" stroke="#F36F21" stroke-width="2"></path>
                                        <path d="M24.8275862,12.8861793 L25.6551724,13.2412138 C25.6551724,13.2412138 28.137931,14.0688 28.137931,14.8963862 C28.137931,15.7239724 25.6551724,16.5515586 25.6551724,16.5515586 L14.0689655,21.5170759 L2.48275862,16.5515586 C2.48275862,16.5515586 -4.36983782e-13,15.7239724 -4.36983782e-13,14.8963862 C-4.36983782e-13,14.0688 2.48275862,13.2412138 2.48275862,13.2412138 L3.31034483,12.8861793" id="Stroke-13" stroke="#F36F21" stroke-width="2"></path>
                                        <path d="M24.8275862,8.74824828 L25.6551724,9.10328276 C25.6551724,9.10328276 28.137931,9.93086897 28.137931,10.7584552 C28.137931,11.5860414 25.6551724,12.4136276 25.6551724,12.4136276 L14.0689655,17.3791448 L2.48275862,12.4136276 C2.48275862,12.4136276 -4.36983782e-13,11.5860414 -4.36983782e-13,10.7584552 C-4.36983782e-13,9.93086897 2.48275862,9.10328276 2.48275862,9.10328276 L3.31034483,8.74824828" id="Stroke-15" stroke="#F36F21" stroke-width="2"></path>
                                        <line x1="2.48275862" y1="8.27586207" x2="17.3793103" y2="1.65517241" id="Stroke-17" stroke="#F36F21" stroke-width="2"></line>
                                        <line x1="6.62068966" y1="9.93103448" x2="21.5172414" y2="3.31034483" id="Stroke-19" stroke="#F36F21" stroke-width="2"></line>
                                        <line x1="10.7586207" y1="11.5862069" x2="24.8275862" y2="4.96551724" id="Stroke-21" stroke="#F36F21" stroke-width="2"></line>
                                    </g>
                                </g>
                            </g>
                        </g>
                    </g>
                </g>
            </g>
        </g>
    </g>
</svg>