<?xml version="1.0" encoding="UTF-8"?>
<svg width="109px" height="80px" viewBox="0 0 109 80" version="1.1" xmlns="http://www.w3.org/2000/svg" xmlns:xlink="http://www.w3.org/1999/xlink">
    <!-- Generator: Sketch 62 (91390) - https://sketch.com -->
    <title>Group 31</title>
    <desc>Created with Sketch.</desc>
    <defs>
        <polygon id="path-1" points="0 79.3588444 108.196444 79.3588444 108.196444 -0.000266666667 0 -0.000266666667"></polygon>
    </defs>
    <g id="Page-1" stroke="none" stroke-width="1" fill="none" fill-rule="evenodd">
        <g id="03-Services---Creative-Services-LP" transform="translate(-1065.000000, -2317.000000)">
            <g id="HIW" transform="translate(0.000000, 1374.000000)">
                <g id="Steps" transform="translate(179.000000, 614.000000)">
                    <g id="4" transform="translate(886.000000, 329.000000)">
                        <g id="Group-31">
                            <path d="M97.3736,71.9325333 L10.8233778,71.9325333 L10.8233778,22.8534222 C10.8233778,21.7040889 11.2722667,20.6223111 12.0864889,19.8080889 C12.8776,19.0080889 13.9896,18.5449778 15.1318222,18.5449778 L27.0891556,18.5449778 L27.0891556,21.5974222 L15.1318222,21.5974222 C14.7949333,21.5974222 14.4820444,21.7272 14.2509333,21.9609778 C14.0064889,22.2045333 13.8758222,22.5192 13.8758222,22.8534222 L13.8758222,68.8792 L94.3211556,68.8792 L94.3211556,22.8534222 C94.3211556,22.5183111 94.1896,22.2018667 93.9513778,21.9600889 C93.7193778,21.7307556 93.4002667,21.5974222 93.0651556,21.5974222 L81.1069333,21.5974222 L81.1069333,18.5449778 L93.0651556,18.5449778 C94.2091556,18.5449778 95.2909333,18.9912 96.1104889,19.8027556 C96.9291556,20.6312 97.3736,21.7103111 97.3736,22.8534222 L97.3736,71.9325333 Z" id="Fill-1" fill="#333333"></path>
                            <polygon id="Fill-3" fill="#333333" points="91.9031111 71.9325333 16.2933333 71.9325333 16.2933333 24.0160889 27.0888889 24.0160889 27.0888889 27.0676444 19.3466667 27.0676444 19.3466667 68.8792 88.8506667 68.8792 88.8506667 27.0676444 81.1066667 27.0676444 81.1066667 24.0160889 91.9031111 24.0160889"></polygon>
                            <path d="M3.05244444,71.9316444 L3.05244444,74.1192 C3.05244444,74.7032 3.28,75.2516444 3.69333333,75.6658667 C4.10666667,76.0783111 4.656,76.3067556 5.24,76.3067556 L102.957333,76.3067556 C103.541333,76.3067556 104.090667,76.0792 104.503111,75.6658667 C104.917333,75.2525333 105.144,74.7032 105.144,74.1192 L105.144,71.9316444 L3.05244444,71.9316444 Z M102.957333,79.3583111 L5.24,79.3583111 C3.84,79.3583111 2.52444444,78.8134222 1.53511111,77.8240889 C0.544888889,76.8347556 0,75.5183111 0,74.1192 L0,68.8783111 L108.196444,68.8783111 L108.196444,74.1192 C108.196444,75.5192 107.651556,76.8356444 106.661333,77.8249778 C105.673778,78.8134222 104.357333,79.3583111 102.957333,79.3583111 L102.957333,79.3583111 Z" id="Fill-5" fill="#333333"></path>
                            <mask id="mask-2" fill="white">
                                <use xlink:href="#path-1"></use>
                            </mask>
                            <g id="Clip-8"></g>
                            <path d="M28.6151111,68.8788444 L79.5804444,68.8788444 L79.5804444,8.61573333 L28.6151111,8.61573333 L28.6151111,68.8788444 Z M25.5626667,71.9312889 L82.6337778,71.9312889 L82.6337778,5.56328889 L25.5626667,5.56328889 L25.5626667,71.9312889 Z" id="Fill-7" fill="#333333" mask="url(#mask-2)"></path>
                            <path d="M28.6151111,5.56328889 L79.5804444,5.56328889 L79.5804444,3.05217778 L28.6151111,3.05217778 L28.6151111,5.56328889 Z M25.5626667,8.61573333 L82.6337778,8.61573333 L82.6337778,0.000622222222 L25.5626667,0.000622222222 L25.5626667,8.61573333 Z" id="Fill-9" fill="#F36F21" mask="url(#mask-2)"></path>
                            <path d="M36.1537778,35.8521778 L72.0435556,35.8521778 L72.0435556,21.5970667 L36.1537778,21.5970667 L36.1537778,35.8521778 Z M33.1013333,38.9046222 L75.096,38.9046222 L75.096,18.5437333 L33.1013333,18.5437333 L33.1013333,38.9046222 Z" id="Fill-10" fill="#E8E6E6" mask="url(#mask-2)"></path>
                            <path d="M36.1537778,50.9952889 L41.7555556,50.9952889 L41.7555556,45.3944 L36.1537778,45.3944 L36.1537778,50.9952889 Z M33.1013333,54.0477333 L44.808,54.0477333 L44.808,42.3410667 L33.1013333,42.3410667 L33.1013333,54.0477333 Z" id="Fill-11" fill="#F36F21" mask="url(#mask-2)"></path>
                            <path d="M51.2977778,50.9952889 L56.8995556,50.9952889 L56.8995556,45.3944 L51.2977778,45.3944 L51.2977778,50.9952889 Z M48.2453333,54.0477333 L59.952,54.0477333 L59.952,42.3410667 L48.2453333,42.3410667 L48.2453333,54.0477333 Z" id="Fill-12" fill="#F36F21" mask="url(#mask-2)"></path>
                            <path d="M66.4426667,50.9952889 L72.0435556,50.9952889 L72.0435556,45.3944 L66.4426667,45.3944 L66.4426667,50.9952889 Z M63.3902222,54.0477333 L75.096,54.0477333 L75.096,42.3410667 L63.3902222,42.3410667 L63.3902222,54.0477333 Z" id="Fill-13" fill="#F36F21" mask="url(#mask-2)"></path>
                            <polygon id="Fill-14" fill="#333333" mask="url(#mask-2)" points="35.2648889 66.1019556 42.6444444 66.1019556 42.6444444 63.0495111 35.2648889 63.0495111"></polygon>
                            <polygon id="Fill-15" fill="#333333" mask="url(#mask-2)" points="33.1013333 60.5384 44.808 60.5384 44.808 57.4859556 33.1013333 57.4859556"></polygon>
                            <polygon id="Fill-16" fill="#333333" mask="url(#mask-2)" points="50.4088889 66.1019556 57.7884444 66.1019556 57.7884444 63.0495111 50.4088889 63.0495111"></polygon>
                            <polygon id="Fill-17" fill="#333333" mask="url(#mask-2)" points="48.2453333 60.5384 59.952 60.5384 59.952 57.4859556 48.2453333 57.4859556"></polygon>
                            <polygon id="Fill-18" fill="#333333" mask="url(#mask-2)" points="65.5528889 66.1019556 72.9324444 66.1019556 72.9324444 63.0495111 65.5528889 63.0495111"></polygon>
                            <polygon id="Fill-19" fill="#333333" mask="url(#mask-2)" points="63.3902222 60.5384 75.096 60.5384 75.096 57.4859556 63.3902222 57.4859556"></polygon>
                            <polygon id="Fill-20" fill="#333333" mask="url(#mask-2)" points="33.1013333 15.1064 44.808 15.1064 44.808 12.0530667 33.1013333 12.0530667"></polygon>
                            <polygon id="Fill-21" fill="#333333" mask="url(#mask-2)" points="48.2453333 15.1064 59.952 15.1064 59.952 12.0530667 48.2453333 12.0530667"></polygon>
                            <polygon id="Fill-22" fill="#333333" mask="url(#mask-2)" points="63.3902222 15.1064 75.096 15.1064 75.096 12.0530667 63.3902222 12.0530667"></polygon>
                            <polygon id="Fill-23" fill="#E8E6E6" mask="url(#mask-2)" points="105.144 3.05217778 108.196444 3.05217778 108.196444 -0.000266666667 105.144 -0.000266666667"></polygon>
                            <path d="M6.14666667,3.05217778 L9.24,3.05217778 L9.24,-0.000266666667 L6.14666667,-0.000266666667 L6.14666667,3.05217778 Z M12.3342222,3.05217778 L15.4275556,3.05217778 L15.4275556,-0.000266666667 L12.3342222,-0.000266666667 L12.3342222,3.05217778 Z M18.5217778,3.05217778 L21.6151111,3.05217778 L21.6151111,-0.000266666667 L18.5217778,-0.000266666667 L18.5217778,3.05217778 Z M86.5831111,3.05217778 L89.6764444,3.05217778 L89.6764444,-0.000266666667 L86.5831111,-0.000266666667 L86.5831111,3.05217778 Z M92.7697778,3.05217778 L95.8631111,3.05217778 L95.8631111,-0.000266666667 L92.7697778,-0.000266666667 L92.7697778,3.05217778 Z M98.9573333,3.05217778 L102.050667,3.05217778 L102.050667,-0.000266666667 L98.9573333,-0.000266666667 L98.9573333,3.05217778 Z" id="Fill-24" fill="#E8E6E6" mask="url(#mask-2)"></path>
                            <polygon id="Fill-25" fill="#E8E6E6" mask="url(#mask-2)" points="0 3.05217778 3.05244444 3.05217778 3.05244444 -0.000266666667 0 -0.000266666667"></polygon>
                            <path d="M0,9.45662222 L3.05244444,9.45662222 L3.05244444,6.25395556 L0,6.25395556 L0,9.45662222 Z M0,15.8601778 L3.05244444,15.8601778 L3.05244444,12.6575111 L0,12.6575111 L0,15.8601778 Z M0,22.2637333 L3.05244444,22.2637333 L3.05244444,19.0610667 L0,19.0610667 L0,22.2637333 Z M0,28.6681778 L3.05244444,28.6681778 L3.05244444,25.4655111 L0,25.4655111 L0,28.6681778 Z M0,35.0726222 L3.05244444,35.0726222 L3.05244444,31.8699556 L0,31.8699556 L0,35.0726222 Z M0,41.4761778 L3.05244444,41.4761778 L3.05244444,38.2744 L0,38.2744 L0,41.4761778 Z M0,47.8797333 L3.05244444,47.8797333 L3.05244444,44.6779556 L0,44.6779556 L0,47.8797333 Z M0,54.2841778 L3.05244444,54.2841778 L3.05244444,51.0815111 L0,51.0815111 L0,54.2841778 Z" id="Fill-26" fill="#E8E6E6" mask="url(#mask-2)"></path>
                            <polygon id="Fill-27" fill="#E8E6E6" mask="url(#mask-2)" points="0 60.5384 3.05244444 60.5384 3.05244444 57.4859556 0 57.4859556"></polygon>
                            <path d="M6.14666667,60.5384 L9.24,60.5384 L9.24,57.4859556 L6.14666667,57.4859556 L6.14666667,60.5384 Z M98.9573333,60.5384 L102.050667,60.5384 L102.050667,57.4859556 L98.9573333,57.4859556 L98.9573333,60.5384 Z" id="Fill-28" fill="#E8E6E6" mask="url(#mask-2)"></path>
                            <polygon id="Fill-29" fill="#E8E6E6" mask="url(#mask-2)" points="105.144 60.5384 108.196444 60.5384 108.196444 57.4859556 105.144 57.4859556"></polygon>
                            <path d="M105.144,9.45662222 L108.196444,9.45662222 L108.196444,6.25395556 L105.144,6.25395556 L105.144,9.45662222 Z M105.144,15.8601778 L108.196444,15.8601778 L108.196444,12.6575111 L105.144,12.6575111 L105.144,15.8601778 Z M105.144,22.2637333 L108.196444,22.2637333 L108.196444,19.0610667 L105.144,19.0610667 L105.144,22.2637333 Z M105.144,28.6681778 L108.196444,28.6681778 L108.196444,25.4655111 L105.144,25.4655111 L105.144,28.6681778 Z M105.144,35.0726222 L108.196444,35.0726222 L108.196444,31.8699556 L105.144,31.8699556 L105.144,35.0726222 Z M105.144,41.4761778 L108.196444,41.4761778 L108.196444,38.2744 L105.144,38.2744 L105.144,41.4761778 Z M105.144,47.8797333 L108.196444,47.8797333 L108.196444,44.6779556 L105.144,44.6779556 L105.144,47.8797333 Z M105.144,54.2841778 L108.196444,54.2841778 L108.196444,51.0815111 L105.144,51.0815111 L105.144,54.2841778 Z" id="Fill-30" fill="#E8E6E6" mask="url(#mask-2)"></path>
                        </g>
                    </g>
                </g>
            </g>
        </g>
    </g>
</svg>