<?xml version="1.0" encoding="UTF-8"?>
<svg width="58px" height="61px" viewBox="0 0 58 61" version="1.1" xmlns="http://www.w3.org/2000/svg" xmlns:xlink="http://www.w3.org/1999/xlink">
    <!-- Generator: Sketch 62 (91390) - https://sketch.com -->
    <title>Icon</title>
    <desc>Created with Sketch.</desc>
    <defs>
        <path d="M46.6203387,8.05527342 C32.7846218,-5.94287901 20.999575,0.423302016 18.9489049,11.0878962 C16.8982348,21.7524904 -2.15127202,23.8818449 0.200762019,36.4783084 C2.55279606,49.0747718 28.1727162,41.5956217 28.1727162,53.0111667 C28.1727162,64.4267117 57.7945484,64.0330722 57.7945484,49.0747718 C57.7945484,34.1164715 60.4560557,22.0534258 46.6203387,8.05527342 Z" id="path-1"></path>
        <polygon id="path-3" points="0 48 48 48 48 0 0 0"></polygon>
    </defs>
    <g id="Page-1" stroke="none" stroke-width="1" fill="none" fill-rule="evenodd">
        <g id="03-Services---Creative-Services-LP" transform="translate(-758.000000, -1020.000000)">
            <g id="VP-1" transform="translate(-1.000000, 66.000000)">
                <g id="Key-Offerings" transform="translate(215.000000, 803.000000)">
                    <g id="Offering-1-Copy-2" transform="translate(543.000000, 151.000000)">
                        <g id="Icon" transform="translate(1.000000, 0.000000)">
                            <mask id="mask-2" fill="white">
                                <use xlink:href="#path-1"></use>
                            </mask>
                            <use id="bgicon" fill="#ECEDEE" xlink:href="#path-1"></use>
                            <g id="Group-28" mask="url(#mask-2)">
                                <g transform="translate(7.000000, 7.000000)">
                                    <path d="M18.122449,18.122449 C17.0409796,18.122449 16.1632653,17.2447347 16.1632653,16.1632653 C16.1632653,15.0817959 17.0409796,14.2040816 18.122449,14.2040816 C19.2039184,14.2040816 20.0816327,15.0817959 20.0816327,16.1632653 C20.0816327,17.2447347 19.2039184,18.122449 18.122449,18.122449 L18.122449,18.122449 Z" id="Fill-1" stroke="none" fill="#F36F21" fill-rule="evenodd"></path>
                                    <path d="M31.8367347,18.122449 C30.7552653,18.122449 29.877551,17.2447347 29.877551,16.1632653 C29.877551,15.0817959 30.7552653,14.2040816 31.8367347,14.2040816 C32.9182041,14.2040816 33.7959184,15.0817959 33.7959184,16.1632653 C33.7959184,17.2447347 32.9182041,18.122449 31.8367347,18.122449 L31.8367347,18.122449 Z" id="Fill-3" stroke="none" fill="#F36F21" fill-rule="evenodd"></path>
                                    <path d="M19.1020408,16.1632653 L17.1428571,16.1632653 C17.157551,12.7013878 19.4282449,9.65387755 22.7412245,8.6517551 L23.2995918,10.5286531 C20.8153469,11.2819592 19.1128163,13.5673469 19.1020408,16.1632653" id="Fill-5" stroke="none" fill="#F36F21" fill-rule="evenodd"></path>
                                    <path d="M32.8163265,16.1632653 L30.8571429,16.1632653 C30.8463673,13.5673469 29.1428571,11.2819592 26.6586122,10.5286531 L27.2169796,8.6517551 C30.5299592,9.65387755 32.8016327,12.7013878 32.8163265,16.1632653" id="Fill-7" stroke="none" fill="#F36F21" fill-rule="evenodd"></path>
                                    <mask id="mask-4" fill="white">
                                        <use xlink:href="#path-3"></use>
                                    </mask>
                                    <g id="Clip-10" stroke="none" fill="none"></g>
                                    <polygon id="Fill-9" stroke="none" fill="#F36F21" fill-rule="evenodd" mask="url(#mask-4)" points="26.9387755 10.2857143 34.7755102 10.2857143 34.7755102 8.32653061 26.9387755 8.32653061"></polygon>
                                    <polygon id="Fill-11" stroke="none" fill="#F36F21" fill-rule="evenodd" mask="url(#mask-4)" points="15.1836735 10.2857143 23.0204082 10.2857143 23.0204082 8.32653061 15.1836735 8.32653061"></polygon>
                                    <path d="M30.8571429,36.7346939 L28.8979592,36.7346939 L28.8979592,33.7959184 L21.0612245,33.7959184 L21.0612245,36.7346939 L19.1020408,36.7346939 L19.1020408,32.8163265 C19.1020408,32.2746122 19.540898,31.8367347 20.0816327,31.8367347 L29.877551,31.8367347 C30.4192653,31.8367347 30.8571429,32.2746122 30.8571429,32.8163265 L30.8571429,36.7346939 Z" id="Fill-12" stroke="none" fill="#F36F21" fill-rule="evenodd" mask="url(#mask-4)"></path>
                                    <path d="M28.8003918,33.254498 L27.0469224,32.3777633 L29.7613714,26.9390694 L24.9799837,17.3743347 L20.1976163,26.9390694 L22.9228408,32.3777633 L21.1683918,33.254498 L18.2296163,27.3769469 C18.0924735,27.1016816 18.0924735,26.7764571 18.2296163,26.5002122 L24.1071673,14.7460898 C24.3961469,14.2611918 25.0230857,14.1034776 25.5079837,14.3914776 C25.6529633,14.4786612 25.7744327,14.6001306 25.8616163,14.7460898 L31.7391673,26.5002122 C31.8772898,26.7764571 31.8772898,27.1016816 31.7391673,27.3769469 L28.8003918,33.254498 Z" id="Fill-13" stroke="none" fill="#F36F21" fill-rule="evenodd" mask="url(#mask-4)"></path>
                                    <polygon id="Fill-14" stroke="none" fill="#F36F21" fill-rule="evenodd" mask="url(#mask-4)" points="24 25.9591837 25.9591837 25.9591837 25.9591837 15.1836735 24 15.1836735"></polygon>
                                    <path d="M24,10.2857143 L25.9591837,10.2857143 L25.9591837,8.32653061 L24,8.32653061 L24,10.2857143 Z M26.9387755,12.244898 L23.0204082,12.244898 C22.4796735,12.244898 22.0408163,11.8060408 22.0408163,11.2653061 L22.0408163,7.34693878 C22.0408163,6.80620408 22.4796735,6.36734694 23.0204082,6.36734694 L26.9387755,6.36734694 C27.4804898,6.36734694 27.9183673,6.80620408 27.9183673,7.34693878 L27.9183673,11.2653061 C27.9183673,11.8060408 27.4804898,12.244898 26.9387755,12.244898 L26.9387755,12.244898 Z" id="Fill-15" stroke="none" fill="#F36F21" fill-rule="evenodd" mask="url(#mask-4)"></path>
                                    <path d="M2.44897959,43.5918367 L2.44897959,44.5714286 C2.44897959,45.1131429 2.88783673,45.5510204 3.42857143,45.5510204 L44.5714286,45.5510204 C45.1131429,45.5510204 45.5510204,45.1131429 45.5510204,44.5714286 L45.5510204,43.5918367 L2.44897959,43.5918367 Z M44.5714286,47.5102041 L3.42857143,47.5102041 C1.80538776,47.5102041 0.489795918,46.1946122 0.489795918,44.5714286 L0.489795918,42.6122449 C0.489795918,42.0705306 0.928653061,41.6326531 1.46938776,41.6326531 L46.5306122,41.6326531 C47.0723265,41.6326531 47.5102041,42.0705306 47.5102041,42.6122449 L47.5102041,44.5714286 C47.5102041,46.1946122 46.1946122,47.5102041 44.5714286,47.5102041 L44.5714286,47.5102041 Z" id="Fill-16" stroke="none" fill="#000000" fill-rule="evenodd" mask="url(#mask-4)"></path>
                                    <path d="M2.44897959,43.5918367 L2.44897959,44.5714286 C2.44897959,45.1131429 2.88783673,45.5510204 3.42857143,45.5510204 L44.5714286,45.5510204 C45.1131429,45.5510204 45.5510204,45.1131429 45.5510204,44.5714286 L45.5510204,43.5918367 L2.44897959,43.5918367 Z M44.5714286,47.5102041 L3.42857143,47.5102041 C1.80538776,47.5102041 0.489795918,46.1946122 0.489795918,44.5714286 L0.489795918,42.6122449 C0.489795918,42.0705306 0.928653061,41.6326531 1.46938776,41.6326531 L46.5306122,41.6326531 C47.0723265,41.6326531 47.5102041,42.0705306 47.5102041,42.6122449 L47.5102041,44.5714286 C47.5102041,46.1946122 46.1946122,47.5102041 44.5714286,47.5102041 Z" id="Stroke-17" stroke="#000000" stroke-width="0.5" fill="none" mask="url(#mask-4)"></path>
                                    <polygon id="Fill-18" stroke="none" fill="#000000" fill-rule="evenodd" mask="url(#mask-4)" points="19.1020408 44.5714286 28.8979592 44.5714286 28.8979592 42.6122449 19.1020408 42.6122449"></polygon>
                                    <polygon id="Stroke-19" stroke="#000000" stroke-width="0.5" fill="none" mask="url(#mask-4)" points="19.1020408 44.5714286 28.8979592 44.5714286 28.8979592 42.6122449 19.1020408 42.6122449"></polygon>
                                    <path d="M44.5714286,43.5918367 L3.42857143,43.5918367 C2.88783673,43.5918367 2.44897959,43.1539592 2.44897959,42.6122449 L2.44897959,17.1428571 C2.44897959,15.5196735 3.76457143,14.2040816 5.3877551,14.2040816 L12.244898,14.2040816 L12.244898,16.1632653 L5.3877551,16.1632653 C4.84702041,16.1632653 4.40816327,16.6021224 4.40816327,17.1428571 L4.40816327,41.6326531 L43.5918367,41.6326531 L43.5918367,17.1428571 C43.5918367,16.6021224 43.1539592,16.1632653 42.6122449,16.1632653 L37.7142857,16.1632653 L37.7142857,14.2040816 L42.6122449,14.2040816 C44.2354286,14.2040816 45.5510204,15.5196735 45.5510204,17.1428571 L45.5510204,42.6122449 C45.5510204,43.1539592 45.1131429,43.5918367 44.5714286,43.5918367" id="Fill-20" stroke="none" fill="#000000" fill-rule="evenodd" mask="url(#mask-4)"></path>
                                    <path d="M44.5714286,43.5918367 L3.42857143,43.5918367 C2.88783673,43.5918367 2.44897959,43.1539592 2.44897959,42.6122449 L2.44897959,17.1428571 C2.44897959,15.5196735 3.76457143,14.2040816 5.3877551,14.2040816 L12.244898,14.2040816 L12.244898,16.1632653 L5.3877551,16.1632653 C4.84702041,16.1632653 4.40816327,16.6021224 4.40816327,17.1428571 L4.40816327,41.6326531 L43.5918367,41.6326531 L43.5918367,17.1428571 C43.5918367,16.6021224 43.1539592,16.1632653 42.6122449,16.1632653 L37.7142857,16.1632653 L37.7142857,14.2040816 L42.6122449,14.2040816 C44.2354286,14.2040816 45.5510204,15.5196735 45.5510204,17.1428571 L45.5510204,42.6122449 C45.5510204,43.1539592 45.1131429,43.5918367 44.5714286,43.5918367 Z" id="Stroke-21" stroke="#000000" stroke-width="0.5" fill="none" mask="url(#mask-4)"></path>
                                    <path d="M13.2244898,36.7346939 L11.2653061,36.7346939 L11.2653061,4.40816327 C11.2653061,3.32669388 10.3875918,2.44897959 9.30612245,2.44897959 C8.22465306,2.44897959 7.34693878,3.32669388 7.34693878,4.40816327 L7.34693878,15.1836735 L5.3877551,15.1836735 L5.3877551,4.40816327 C5.3877551,2.2442449 7.14220408,0.489795918 9.30612245,0.489795918 C11.4700408,0.489795918 13.2244898,2.2442449 13.2244898,4.40816327 L13.2244898,36.7346939 Z" id="Fill-22" stroke="none" fill="#000000" fill-rule="evenodd" mask="url(#mask-4)"></path>
                                    <path d="M13.2244898,36.7346939 L11.2653061,36.7346939 L11.2653061,4.40816327 C11.2653061,3.32669388 10.3875918,2.44897959 9.30612245,2.44897959 C8.22465306,2.44897959 7.34693878,3.32669388 7.34693878,4.40816327 L7.34693878,15.1836735 L5.3877551,15.1836735 L5.3877551,4.40816327 C5.3877551,2.2442449 7.14220408,0.489795918 9.30612245,0.489795918 C11.4700408,0.489795918 13.2244898,2.2442449 13.2244898,4.40816327 L13.2244898,36.7346939 Z" id="Stroke-23" stroke="#000000" stroke-width="0.5" fill="none" mask="url(#mask-4)"></path>
                                    <path d="M38.6938776,36.7346939 L36.7346939,36.7346939 L36.7346939,4.40816327 C36.7346939,3.32669388 35.8569796,2.44897959 34.7755102,2.44897959 L9.30612245,2.44897959 L9.30612245,0.489795918 L34.7755102,0.489795918 C36.9394286,0.489795918 38.6938776,2.2442449 38.6938776,4.40816327 L38.6938776,36.7346939 Z" id="Fill-24" stroke="none" fill="#000000" fill-rule="evenodd" mask="url(#mask-4)"></path>
                                    <path d="M38.6938776,36.7346939 L36.7346939,36.7346939 L36.7346939,4.40816327 C36.7346939,3.32669388 35.8569796,2.44897959 34.7755102,2.44897959 L9.30612245,2.44897959 L9.30612245,0.489795918 L34.7755102,0.489795918 C36.9394286,0.489795918 38.6938776,2.2442449 38.6938776,4.40816327 L38.6938776,36.7346939 Z" id="Stroke-25" stroke="#000000" stroke-width="0.5" fill="none" mask="url(#mask-4)"></path>
                                    <polygon id="Fill-26" stroke="none" fill="#000000" fill-rule="evenodd" mask="url(#mask-4)" points="7.34693878 37.7142857 40.6530612 37.7142857 40.6530612 35.755102 7.34693878 35.755102"></polygon>
                                    <polygon id="Stroke-27" stroke="#000000" stroke-width="0.5" fill="none" mask="url(#mask-4)" points="7.34693878 37.7142857 40.6530612 37.7142857 40.6530612 35.755102 7.34693878 35.755102"></polygon>
                                </g>
                            </g>
                        </g>
                    </g>
                </g>
            </g>
        </g>
    </g>
</svg>