<svg xmlns="http://www.w3.org/2000/svg" width="18" height="18"><path d="M13.032-.001C15.772-.001 18 2.227 18 4.966v8.065C18 15.77 15.772 18 13.032 18H4.967C2.228 18 0 15.77 0 13.03V4.966C0 2.227 2.228-.001 4.967-.001zm0 1.597H4.967c-1.858 0-3.37 1.512-3.37 3.37v8.065c0 1.86 1.512 3.37 3.37 3.37h8.065c1.858 0 3.37-1.512 3.37-3.37V4.966c0-1.858-1.512-3.37-3.37-3.37zM9 4.36c2.558 0 4.638 2.08 4.638 4.638S11.557 13.637 9 13.637 4.362 11.557 4.362 9 6.442 4.36 9 4.36zm0 1.596c-1.677 0-3.04 1.365-3.04 3.04S7.323 12.04 9 12.04 12.04 10.676 12.04 9 10.677 5.958 9 5.958zm4.833-2.95c.31 0 .61.125.828.343s.343.52.343.828a1.18 1.18 0 0 1-.343.828c-.218.217-.52.343-.828.343a1.18 1.18 0 0 1-.827-.343 1.18 1.18 0 0 1-.344-.828c0-.31.125-.61.344-.828s.52-.343.827-.343z" fill="#fff" fill-rule="evenodd" opacity=".5"/></svg>