<svg xmlns="http://www.w3.org/2000/svg" xmlns:xlink="http://www.w3.org/1999/xlink" width="76" height="78"><defs><path d="M60.652 10.747c-18-17.78-33.332-9.694-36 3.852S-2.8 30.85.26 46.85s36.39 6.5 36.39 21 38.537 14 38.537-5 3.463-34.322-14.537-52.103z" id="A"/></defs><g fill="none" fill-rule="evenodd"><mask id="B" fill="#fff"><use xlink:href="#A"/></mask><use fill="#ecedee" xlink:href="#A"/><g mask="url(#B)" stroke-linejoin="round" stroke-width="3"><path d="M57 16c0 7.732-6.268 14-14 14s-14-6.268-14-14S35.268 2 43 2s14 6.268 14 14z" stroke="#333"/><g stroke-linecap="round"><path d="M46.836 11.788C46.412 10.516 45.212 9.6 43.8 9.6h-1.6a3.2 3.2 0 1 0 0 6.4h1.6a3.2 3.2 0 0 1 0 6.4h-1.6c-1.452 0-2.678-.968-3.07-2.294" stroke="#f36f21"/><g stroke="#008ad0"><path d="M43 23v2m0-17.96v2"/></g><path d="M36.488 48H43c2.208 0 4-1.792 4-4s-1.792-4-4-4H33s-6-4-10-4-8 4-8 4v18h32l24-14c0-2.854-2.904-4.8-5.54-3.692L47 48H31" stroke="#333"/></g></g></g></svg>