<?xml version="1.0" encoding="UTF-8"?>
<svg width="8px" height="14px" viewBox="0 0 8 14" version="1.1" xmlns="http://www.w3.org/2000/svg" xmlns:xlink="http://www.w3.org/1999/xlink">
    <!-- Generator: Sketch 63.1 (92452) - https://sketch.com -->
    <title> R</title>
    <desc>Created with Sketch.</desc>
    <defs>
        <path d="M370.999943,5.421224 C370.999943,5.80124 371.140699,6.158432 371.395448,6.426758 L375.740107,11.004194 L371.395701,15.580604 C371.140699,15.849362 371.000196,16.206122 371.000196,16.586876 C371.000196,16.967036 371.140699,17.324372 371.395701,17.593274 C371.922106,18.147386 372.778698,18.147386 373.305015,17.593274 L378.604452,12.009728 C378.859542,11.741402 378.999957,11.384498 378.999957,11.004338 C378.999957,10.624466 378.859542,10.266986 378.604452,9.997922 L373.305015,4.415384 C373.050002,4.146338 372.711147,3.998864 372.350226,3.998864 C371.989822,3.998864 371.650538,4.146626 371.395448,4.415384 C371.140699,4.68371 370.999943,5.040902 370.999943,5.421224 Z" id="path-1"></path>
    </defs>
    <g id="Desktop" stroke="none" stroke-width="1" fill="none" fill-rule="evenodd">
        <g id="05-Support-Tutorials-Page" transform="translate(-1107.000000, -693.000000)">
            <g id="Pagenation-Down" transform="translate(736.000000, 689.000000)">
                <g id="-R">
                    <use fill="#000000" xlink:href="#path-1"></use>
                    <use fill="#8799A3" xlink:href="#path-1"></use>
                </g>
            </g>
        </g>
    </g>
</svg>