<svg xmlns="http://www.w3.org/2000/svg" xmlns:xlink="http://www.w3.org/1999/xlink" width="76" height="78"><defs><path d="M60.652 10.747c-18-17.78-33.332-9.694-36 3.852S-2.8 30.85.26 46.85s36.39 6.5 36.39 21 38.537 14 38.537-5 3.463-34.322-14.537-52.103z" id="A"/></defs><g fill="none" fill-rule="evenodd"><use fill="#ecedee" xlink:href="#A"/><g stroke="#333" stroke-linejoin="round" stroke-width="3"><path d="M28.807 35.212l.483 1.93a15.45 15.45 0 0 0 11.241 11.241l1.93.483 11.96-11.96a38.61 38.61 0 0 0 11.152-23.812l.1-1.095-1.095.1c-9 .82-17.424 4.764-23.814 11.154l-11.96 11.96z"/><path d="M50.494 16.176c.54 1.93 1.757 4.248 4.258 6.747 2.418 2.42 4.665 3.638 6.562 4.204M37.8 39.874L23.913 53.762" stroke-linecap="round"/><path d="M36.898 27.122l-5.662-.682c-4.12-.496-8.238.927-11.173 3.862L11.057 39.3s10.924-2.732 17.75-4.098l8.1-8.1zm13.654 13.654l.684 5.662a13.53 13.53 0 0 1-3.862 11.173l-9.008 9.006s2.732-10.924 4.098-17.75l8.1-8.1zm-1.262-6.93a3.86 3.86 0 0 1-5.46 0c-1.507-1.508-1.508-3.953 0-5.463a3.86 3.86 0 0 1 5.46 0 3.87 3.87 0 0 1 0 5.463z"/></g><path d="M36.103 53.157S30.3 66.675 11 66.675c0-19.3 13.517-25.103 13.517-25.103" stroke="#f36f21" stroke-linecap="round" stroke-linejoin="round" stroke-width="3"/></g></svg>