<?xml version="1.0" encoding="UTF-8"?>
<svg width="82px" height="80px" viewBox="0 0 82 80" version="1.1" xmlns="http://www.w3.org/2000/svg" xmlns:xlink="http://www.w3.org/1999/xlink">
    <!-- Generator: Sketch 62 (91390) - https://sketch.com -->
    <title>Group 34</title>
    <desc>Created with Sketch.</desc>
    <defs>
        <polygon id="path-1" points="0.145586207 0.0354482759 9.83248276 0.0354482759 9.83248276 9.65517241 0.145586207 9.65517241"></polygon>
        <polygon id="path-3" points="0 79.3103448 81.6310345 79.3103448 81.6310345 0.627586207 0 0.627586207"></polygon>
    </defs>
    <g id="Page-1" stroke="none" stroke-width="1" fill="none" fill-rule="evenodd">
        <g id="03-Services---Creative-Services-LP" transform="translate(-1067.000000, -1988.000000)">
            <g id="HIW" transform="translate(0.000000, 1374.000000)">
                <g id="Steps" transform="translate(179.000000, 614.000000)">
                    <g id="3" transform="translate(888.000000, 0.000000)">
                        <g id="Group-34">
                            <polygon id="Fill-1" fill="#F36F21" points="0.145517241 70.9372414 2.5137931 70.9372414 2.5137931 13.9006897 0.145517241 13.9006897"></polygon>
                            <polygon id="Fill-2" fill="#F36F21" points="3.80482759 70.9372414 6.17310345 70.9372414 6.17310345 13.9013793 3.80482759 13.9013793"></polygon>
                            <polygon id="Fill-3" fill="#F36F21" points="7.46413793 70.9372414 9.83241379 70.9372414 9.83241379 13.9013793 7.46413793 13.9013793"></polygon>
                            <g id="Group-33" transform="translate(0.000000, 0.062069)">
                                <g id="Group-6" transform="translate(0.000000, 69.655172)">
                                    <mask id="mask-2" fill="white">
                                        <use xlink:href="#path-1"></use>
                                    </mask>
                                    <g id="Clip-5"></g>
                                    <path d="M2.51386207,2.40372414 L2.51386207,4.81131034 C2.51386207,5.472 2.7717931,6.09406897 3.23937931,6.56234483 C3.70627586,7.02924138 4.32834483,7.28717241 4.98903448,7.28717241 C5.64972414,7.28717241 6.2717931,7.02924138 6.73937931,6.56165517 C7.20696552,6.09406897 7.4642069,5.472 7.4642069,4.81131034 L7.4642069,2.40372414 L2.51386207,2.40372414 Z M4.98903448,9.65544828 C3.69593103,9.65544828 2.47937931,9.15131034 1.5642069,8.23682759 C0.648344828,7.32027586 0.145586207,6.10372414 0.145586207,4.81131034 L0.145586207,0.0354482759 L9.83248276,0.0354482759 L9.83248276,4.81131034 C9.83248276,6.10441379 9.32903448,7.32027586 8.41455172,8.23613793 C7.49868966,9.15131034 6.28282759,9.65544828 4.98903448,9.65544828 L4.98903448,9.65544828 Z" id="Fill-4" fill="#333333" mask="url(#mask-2)"></path>
                                </g>
                                <path d="M3.60896552,11.742069 L6.36827586,11.742069 L4.98896552,8.56206897 L3.60896552,11.742069 Z M9.97724138,14.1103448 L0,14.1103448 L4.98896552,2.61103448 L9.97724138,14.1103448 Z" id="Fill-7" fill="#333333"></path>
                                <polygon id="Fill-9" fill="#333333" points="72.6122069 69.1033103 70.243931 69.1033103 70.243931 6.77365517 47.4708276 6.77365517 47.4708276 4.40468966 72.6122069 4.40468966"></polygon>
                                <path d="M24.9865517,79.3084138 C19.3596552,79.3084138 14.7817241,74.7304828 14.7817241,69.1035862 L14.7817241,4.40496552 L39.9231034,4.40496552 L39.9231034,6.77324138 L17.15,6.77324138 L17.15,69.1035862 C17.15,73.4249655 20.6658621,76.9401379 24.9865517,76.9401379 L24.9865517,79.3084138 Z" id="Fill-11" fill="#333333"></path>
                                <path d="M43.6971724,2.99606897 C42.2688966,2.99606897 41.1075172,4.15813793 41.1075172,5.58641379 C41.1075172,7.01537931 42.2688966,8.17744828 43.6971724,8.17744828 C45.1247586,8.17744828 46.2868276,7.01537931 46.2868276,5.58641379 C46.2868276,4.15813793 45.1247586,2.99606897 43.6971724,2.99606897 M43.6971724,10.5457241 C40.9633793,10.5457241 38.7392414,8.32089655 38.7392414,5.58641379 C38.7392414,2.85262069 40.9633793,0.627793103 43.6971724,0.627793103 C46.4309655,0.627793103 48.6551034,2.85262069 48.6551034,5.58641379 C48.6551034,8.32089655 46.4309655,10.5457241 43.6971724,10.5457241" id="Fill-13" fill="#F36F21"></path>
                                <path d="M31.5177241,76.942069 L71.426,76.942069 C75.343931,76.942069 78.5997931,74.0510345 79.1728966,70.2896552 L35.1246207,70.2868966 C34.8156552,72.9517241 33.4763448,75.3062069 31.5177241,76.942069 M71.426,79.3103448 L24.9887586,79.3103448 L24.9887586,76.942069 C29.3094483,76.942069 32.8246207,73.4255172 32.8246207,69.1027586 L32.8246207,67.9186207 L81.6308276,67.9206897 L81.6308276,69.1055172 C81.6301379,74.7324138 77.0515172,79.3103448 71.426,79.3103448" id="Fill-15" fill="#333333"></path>
                                <mask id="mask-4" fill="white">
                                    <use xlink:href="#path-3"></use>
                                </mask>
                                <g id="Clip-18"></g>
                                <path d="M25.0882759,21.4696552 L27.4565517,21.4696552 L27.4565517,19.1013793 L25.0882759,19.1013793 L25.0882759,21.4696552 Z M22.72,23.837931 L29.8255172,23.837931 L29.8255172,16.7331034 L22.72,16.7331034 L22.72,23.837931 Z" id="Fill-17" fill="#F36F21" mask="url(#mask-4)"></path>
                                <polygon id="Fill-19" fill="#E8E6E6" mask="url(#mask-4)" points="32.1937931 19.1013793 63.4896552 19.1013793 63.4896552 16.7331034 32.1937931 16.7331034"></polygon>
                                <polygon id="Fill-20" fill="#E8E6E6" mask="url(#mask-4)" points="32.1937931 23.837931 47.8413793 23.837931 47.8413793 21.4696552 32.1937931 21.4696552"></polygon>
                                <path d="M25.0882759,30.9434483 L27.4565517,30.9434483 L27.4565517,28.5751724 L25.0882759,28.5751724 L25.0882759,30.9434483 Z M22.72,33.3117241 L29.8255172,33.3117241 L29.8255172,26.2062069 L22.72,26.2062069 L22.72,33.3117241 Z" id="Fill-21" fill="#F36F21" mask="url(#mask-4)"></path>
                                <polygon id="Fill-22" fill="#E8E6E6" mask="url(#mask-4)" points="32.1937931 28.5751724 63.4896552 28.5751724 63.4896552 26.2062069 32.1937931 26.2062069"></polygon>
                                <polygon id="Fill-23" fill="#E8E6E6" mask="url(#mask-4)" points="32.1937931 33.3117241 47.8413793 33.3117241 47.8413793 30.9434483 32.1937931 30.9434483"></polygon>
                                <path d="M25.0882759,40.4165517 L27.4565517,40.4165517 L27.4565517,38.0482759 L25.0882759,38.0482759 L25.0882759,40.4165517 Z M22.72,42.7848276 L29.8255172,42.7848276 L29.8255172,35.68 L22.72,35.68 L22.72,42.7848276 Z" id="Fill-24" fill="#F36F21" mask="url(#mask-4)"></path>
                                <polygon id="Fill-25" fill="#E8E6E6" mask="url(#mask-4)" points="32.1937931 38.0482759 63.4896552 38.0482759 63.4896552 35.68 32.1937931 35.68"></polygon>
                                <polygon id="Fill-26" fill="#E8E6E6" mask="url(#mask-4)" points="32.1937931 42.7848276 47.8413793 42.7848276 47.8413793 40.4165517 32.1937931 40.4165517"></polygon>
                                <path d="M25.0882759,49.8903448 L27.4565517,49.8903448 L27.4565517,47.522069 L25.0882759,47.522069 L25.0882759,49.8903448 Z M22.72,52.2586207 L29.8255172,52.2586207 L29.8255172,45.1531034 L22.72,45.1531034 L22.72,52.2586207 Z" id="Fill-27" fill="#F36F21" mask="url(#mask-4)"></path>
                                <polygon id="Fill-28" fill="#E8E6E6" mask="url(#mask-4)" points="32.1937931 47.522069 63.4896552 47.522069 63.4896552 45.1531034 32.1937931 45.1531034"></polygon>
                                <polygon id="Fill-29" fill="#E8E6E6" mask="url(#mask-4)" points="32.1937931 52.2586207 47.8413793 52.2586207 47.8413793 49.8903448 32.1937931 49.8903448"></polygon>
                                <path d="M25.0882759,59.3634483 L27.4565517,59.3634483 L27.4565517,56.9951724 L25.0882759,56.9951724 L25.0882759,59.3634483 Z M22.72,61.7317241 L29.8255172,61.7317241 L29.8255172,54.6268966 L22.72,54.6268966 L22.72,61.7317241 Z" id="Fill-30" fill="#F36F21" mask="url(#mask-4)"></path>
                                <polygon id="Fill-31" fill="#E8E6E6" mask="url(#mask-4)" points="32.1937931 56.9951724 63.4896552 56.9951724 63.4896552 54.6268966 32.1937931 54.6268966"></polygon>
                                <polygon id="Fill-32" fill="#E8E6E6" mask="url(#mask-4)" points="32.1937931 61.7317241 47.8413793 61.7317241 47.8413793 59.3634483 32.1937931 59.3634483"></polygon>
                            </g>
                        </g>
                    </g>
                </g>
            </g>
        </g>
    </g>
</svg>