<svg xmlns="http://www.w3.org/2000/svg" width="26" height="26" stroke="#fff" fill="none" stroke-linejoin="round" stroke-width="1.5"><path d="M18.143 4.43a3.43 3.43 0 0 0 3.429 3.429A3.43 3.43 0 0 0 25 4.429 3.43 3.43 0 0 0 21.571 1a3.43 3.43 0 0 0-3.429 3.429zm0 17.14A3.43 3.43 0 0 0 21.571 25 3.43 3.43 0 0 0 25 21.571a3.43 3.43 0 0 0-3.429-3.429 3.43 3.43 0 0 0-3.429 3.429zM1 13c0 2.604 2.1 4.714 4.714 4.714s4.714-2.1 4.714-4.714-2.1-4.714-4.714-4.714S1 10.396 1 13z"/><path d="M10 15.143l8.575 4.764m0-13.814L10 10.857" stroke-linecap="round"/></svg>