<svg xmlns="http://www.w3.org/2000/svg" width="16" height="17"><path d="M8.636.035c.694-.164 1.4.23 1.642.93l.487 1.467 1.446-.493c.732-.25 1.525.15 1.77.892s-.147 1.546-.88 1.795l-1.446.494 1.006 3.03 1.484-.506c.732-.25 1.525.15 1.77.89s-.147 1.546-.88 1.796l-1.484.507.51 1.538c.246.742-.147 1.547-.88 1.796s-1.525-.15-1.77-.89l-.51-1.538-3.052 1.042.516 1.555c.246.743-.147 1.547-.88 1.797s-1.525-.15-1.77-.89L5.2 13.687l-1.416.484c-.732.25-1.525-.15-1.77-.89s.147-1.546.88-1.797L4.31 11 3.303 7.97l-1.455.496c-.732.25-1.525-.15-1.77-.89L.04 7.443c-.162-.704.227-1.43.916-1.665l1.455-.496-.48-1.45c-.246-.742.147-1.546.88-1.796s1.525.15 1.77.892l.48 1.45 3.052-1.04-.487-1.467c-.246-.743.147-1.546.88-1.796zm.37 5.988L5.954 7.065l1.006 3.03 3.052-1.042-1.006-3.03z" fill="#fff" fill-rule="evenodd" opacity=".5"/></svg>