<svg xmlns="http://www.w3.org/2000/svg" width="17" height="14"><path d="M16.47 2.105c-.58.27-1.202.452-1.856.533.667-.42 1.18-1.083 1.42-1.874a6.29 6.29 0 0 1-2.052.822 3.16 3.16 0 0 0-2.359-1.07c-1.785 0-3.232 1.516-3.232 3.387a3.55 3.55 0 0 0 .084.772c-2.686-.14-5.067-1.49-6.66-3.538-.278.5-.437 1.08-.437 1.703a3.43 3.43 0 0 0 1.438 2.818c-.53-.018-1.028-.17-1.464-.424v.043c0 1.642 1.114 3 2.593 3.322-.27.078-.557.12-.852.12-.208 0-.41-.02-.608-.06.41 1.346 1.605 2.325 3.02 2.352-1.106.908-2.5 1.45-4.014 1.45a6.2 6.2 0 0 1-.771-.048c1.43.962 3.13 1.522 4.954 1.522 5.944 0 9.195-5.16 9.195-9.636a10.2 10.2 0 0 0-.009-.439c.63-.477 1.18-1.074 1.612-1.753z" fill="#fff" fill-rule="evenodd" opacity=".5"/></svg>